<?xml version="1.0" encoding="utf-8"?>
<!-- Generator: Adobe Illustrator 26.1.0, SVG Export Plug-In . SVG Version: 6.00 Build 0)  -->
<svg version="1.1" id="Capa_1" xmlns="http://www.w3.org/2000/svg" xmlns:xlink="http://www.w3.org/1999/xlink" x="0px" y="0px"
	 viewBox="0 0 286.52 56.46" style="enable-background:new 0 0 286.52 56.46;" xml:space="preserve">
<style type="text/css">
	.st0{fill:#1360A4;}
</style>
<g>
	<path class="st0" d="M16.56,0C12.52,0,9.14,1.25,6.42,3.76c-2.72,2.5-4.08,5.53-4.08,9.09h8.97c0.16-1.35,0.74-2.44,1.74-3.27
		c1-0.83,2.22-1.25,3.68-1.25c1.51,0,2.72,0.5,3.63,1.49c0.91,1,1.37,2.3,1.37,3.92v2.83l-7.11,0.57
		c-4.36,0.35-7.89,1.59-10.58,3.74C1.35,23.01,0,25.97,0,29.72c0,3.39,1.2,6.26,3.59,8.6c2.4,2.34,5.29,3.51,8.68,3.51
		c2.05,0,3.94-0.42,5.69-1.25c1.75-0.83,2.88-1.51,3.39-2.02c0.51-0.51,0.87-0.93,1.09-1.25l0.32,3.88h8.24V13.81
		c0-3.98-1.27-7.28-3.8-9.89C24.69,1.31,21.13,0,16.56,0z M21.73,28.16c0,1.35-0.75,2.67-2.26,3.94C17.96,33.37,16.32,34,14.54,34
		c-1.56,0-2.8-0.47-3.72-1.42c-0.92-0.95-1.37-2.01-1.37-3.2c0-1.56,0.51-2.81,1.53-3.73c1.02-0.92,2.45-1.46,4.28-1.62l6.46-0.51
		V28.16z"/>
	<path class="st0" d="M58.27,3.88l-0.81-0.97c-0.59-0.59-1.59-1.2-2.99-1.82c-1.4-0.62-2.94-0.93-4.6-0.93
		c-3.77,0-6.99,1.28-9.65,3.84c-2.67,2.56-4,5.86-4,9.89v12.52c0,4.15,1.29,7.47,3.88,9.97c2.59,2.5,5.79,3.76,9.61,3.76
		c1.67,0,3.16-0.32,4.48-0.97c1.32-0.65,2.15-1.16,2.5-1.53c0.35-0.38,0.61-0.7,0.77-0.97v5.57c0,1.83-0.65,3.27-1.94,4.32
		c-1.29,1.05-2.85,1.57-4.68,1.57c-1.51,0-2.92-0.31-4.24-0.93c-1.32-0.62-2.17-1.1-2.54-1.45c-0.38-0.35-0.65-0.66-0.81-0.93
		l-6.38,5.82l0.48,0.57c0.32,0.43,0.87,0.93,1.66,1.49c0.78,0.57,1.71,1.13,2.79,1.7c1.08,0.57,2.45,1.05,4.12,1.45
		c1.67,0.4,3.45,0.61,5.33,0.61c4.58,0,8.31-1.37,11.19-4.12c2.88-2.75,4.32-6.33,4.32-10.74V0.81h-8.32L58.27,3.88z M57.46,25.93
		c0,1.78-0.56,3.2-1.7,4.28c-1.13,1.08-2.53,1.62-4.2,1.62c-1.67,0-3.07-0.54-4.2-1.62c-1.13-1.08-1.7-2.5-1.7-4.28V14.13
		c0-1.78,0.57-3.2,1.7-4.28c1.13-1.08,2.5-1.62,4.12-1.62c1.72,0,3.15,0.54,4.28,1.62c1.13,1.08,1.7,2.5,1.7,4.28V25.93z"/>
	<path class="st0" d="M92.84,0.48c-1-0.21-2.03-0.32-3.11-0.32c-0.97,0-1.91,0.19-2.83,0.57c-0.92,0.38-1.66,0.8-2.22,1.25
		c-0.57,0.46-1.09,0.98-1.58,1.58c-0.48,0.59-0.81,1-0.97,1.21c-0.16,0.22-0.27,0.4-0.32,0.57l-0.16-4.52h-8.8v40.38h9.37V17.85
		c0-3.07,0.61-5.4,1.82-6.99c1.21-1.59,2.76-2.38,4.64-2.38c1.78,0,3.2,0.3,4.28,0.89l2.75-7.92l-0.73-0.32
		C94.54,0.92,93.83,0.7,92.84,0.48z"/>
	<path class="st0" d="M111.7,0c-4.52,0-8.19,1.32-10.98,3.96c-2.8,2.64-4.2,5.92-4.2,9.85v14.38c0,3.93,1.4,7.22,4.2,9.85
		c2.8,2.64,6.46,3.96,10.98,3.96c4.47,0,8.09-1.32,10.86-3.96c2.77-2.64,4.16-5.92,4.16-9.85V13.81c0-3.93-1.39-7.21-4.16-9.85
		C119.79,1.32,116.17,0,111.7,0z M117.44,27.7c0,1.78-0.57,3.2-1.7,4.28c-1.13,1.08-2.5,1.62-4.12,1.62c-1.72,0-3.15-0.54-4.28-1.62
		c-1.13-1.08-1.7-2.5-1.7-4.28V14.3c0-1.78,0.56-3.2,1.7-4.28c1.13-1.08,2.53-1.62,4.2-1.62c1.67,0,3.07,0.54,4.2,1.62
		c1.13,1.08,1.7,2.5,1.7,4.28V27.7z"/>
	<path class="st0" d="M167.26,0.16c-1.72,0-3.43,0.38-5.13,1.13c-1.7,0.75-2.81,1.35-3.35,1.78c-0.54,0.43-0.97,0.81-1.29,1.13
		l-0.81-0.97c-0.48-0.7-1.37-1.39-2.67-2.06c-1.29-0.67-2.69-1.01-4.2-1.01c-1.67,0-3.24,0.43-4.72,1.29
		c-1.48,0.86-2.44,1.55-2.87,2.06c-0.43,0.51-0.75,0.93-0.97,1.25l-0.4-3.96h-8.72v40.38h9.29V14.7c0-1.67,0.57-3.1,1.7-4.28
		c1.13-1.18,2.45-1.78,3.96-1.78c1.35,0,2.45,0.54,3.31,1.62c0.86,1.08,1.29,2.4,1.29,3.96v26.98h9.29V14.62
		c0-1.67,0.55-3.07,1.66-4.2c1.1-1.13,2.46-1.7,4.08-1.7c1.29,0,2.37,0.53,3.23,1.58c0.86,1.05,1.29,2.36,1.29,3.92v26.98h9.29
		V14.05c0-4.09-1.25-7.43-3.76-10.02C174.25,1.45,171.09,0.16,167.26,0.16z"/>
	<path class="st0" d="M206.09,30.45c-0.22,0.75-0.81,1.51-1.78,2.26c-0.97,0.75-2.21,1.13-3.72,1.13c-1.67,0-3.06-0.54-4.16-1.62
		c-1.1-1.08-1.66-2.48-1.66-4.2v-3.96h20.84V13.65c0-3.88-1.39-7.12-4.16-9.73C208.69,1.31,205.09,0,200.68,0
		c-4.42,0-8.04,1.33-10.86,4c-2.83,2.67-4.24,5.94-4.24,9.81v14.38c0,3.93,1.4,7.22,4.2,9.85c2.8,2.64,6.41,3.96,10.82,3.96
		c3.98,0,7.4-1.16,10.26-3.47c2.85-2.31,4.5-5.38,4.93-9.21h-9.37L206.09,30.45z M194.78,13.81c0-1.62,0.59-2.95,1.78-4
		c1.18-1.05,2.56-1.58,4.12-1.58c1.67,0,3.05,0.51,4.16,1.53c1.1,1.02,1.66,2.37,1.66,4.04v2.58h-11.71V13.81z"/>
	<path class="st0" d="M242.66,3.88l-0.81-0.97c-0.59-0.59-1.59-1.2-2.99-1.82c-1.4-0.62-2.94-0.93-4.6-0.93
		c-3.77,0-6.99,1.28-9.65,3.84c-2.67,2.56-4,5.86-4,9.89v12.52c0,4.15,1.29,7.47,3.88,9.97c2.59,2.5,5.79,3.76,9.61,3.76
		c1.67,0,3.16-0.32,4.48-0.97c1.32-0.65,2.15-1.16,2.5-1.53c0.35-0.38,0.61-0.7,0.77-0.97v5.57c0,1.83-0.65,3.27-1.94,4.32
		c-1.29,1.05-2.85,1.57-4.68,1.57c-1.51,0-2.92-0.31-4.24-0.93c-1.32-0.62-2.17-1.1-2.54-1.45c-0.38-0.35-0.65-0.66-0.81-0.93
		l-6.38,5.82l0.48,0.57c0.32,0.43,0.87,0.93,1.66,1.49c0.78,0.57,1.71,1.13,2.79,1.7c1.08,0.57,2.45,1.05,4.12,1.45
		c1.67,0.4,3.45,0.61,5.33,0.61c4.58,0,8.31-1.37,11.19-4.12c2.88-2.75,4.32-6.33,4.32-10.74V0.81h-8.32L242.66,3.88z M241.85,25.93
		c0,1.78-0.57,3.2-1.7,4.28c-1.13,1.08-2.53,1.62-4.2,1.62c-1.67,0-3.07-0.54-4.2-1.62c-1.13-1.08-1.7-2.5-1.7-4.28V14.13
		c0-1.78,0.57-3.2,1.7-4.28c1.13-1.08,2.5-1.62,4.12-1.62c1.72,0,3.15,0.54,4.28,1.62c1.13,1.08,1.7,2.5,1.7,4.28V25.93z"/>
	<path class="st0" d="M272.07,0c-4.04,0-7.42,1.25-10.14,3.76c-2.72,2.5-4.08,5.53-4.08,9.09h8.97c0.16-1.35,0.74-2.44,1.74-3.27
		c1-0.83,2.22-1.25,3.68-1.25c1.51,0,2.72,0.5,3.63,1.49c0.91,1,1.37,2.3,1.37,3.92v2.83l-7.11,0.57
		c-4.36,0.35-7.89,1.59-10.58,3.74c-2.69,2.15-4.04,5.1-4.04,8.86c0,3.39,1.2,6.26,3.59,8.6c2.4,2.34,5.29,3.51,8.68,3.51
		c2.05,0,3.94-0.42,5.69-1.25c1.75-0.83,2.88-1.51,3.39-2.02c0.51-0.51,0.87-0.93,1.09-1.25l0.32,3.88h8.24V13.81
		c0-3.98-1.27-7.28-3.8-9.89C280.2,1.31,276.64,0,272.07,0z M277.24,28.16c0,1.35-0.75,2.67-2.26,3.94
		c-1.51,1.27-3.15,1.91-4.93,1.91c-1.56,0-2.8-0.47-3.72-1.42c-0.92-0.95-1.37-2.01-1.37-3.2c0-1.56,0.51-2.81,1.53-3.73
		c1.02-0.92,2.45-1.46,4.28-1.62l6.46-0.51V28.16z"/>
</g>
</svg>
