<?xml version="1.0" encoding="utf-8"?>
<!-- Generator: Adobe Illustrator 26.1.0, SVG Export Plug-In . SVG Version: 6.00 Build 0)  -->
<svg version="1.1" id="Capa_1" xmlns="http://www.w3.org/2000/svg" xmlns:xlink="http://www.w3.org/1999/xlink" x="0px" y="0px"
	 viewBox="0 0 494.69 223.9" style="enable-background:new 0 0 494.69 223.9;" xml:space="preserve">
<style type="text/css">
	.st0{fill:#1360A4;}
	.st1{fill:#F7931E;}
</style>
<g>
	<g>
		<path class="st0" d="M52.12,113.25l16.4-15.13c29.71-25.9,37.47-39.08,37.47-54.81c0-24.69-20.14-41.42-51.26-41.42
			C24.41,1.9,4.14,19.37,4.2,47.27h31.39c0-12.38,7.63-19.54,19-19.54c11.18,0,19.27,6.89,19.27,18.2c0,10.24-6.42,17.2-17.66,27.3
			L6.21,117v23.82h101.45v-26.7H52.12V113.25z"/>
		<path class="st0" d="M149.74,100.54h-32.12c0.33,20.37,15.2,35.85,37.29,40.61l13.83-23.95
			C158.51,116.83,150.2,110.36,149.74,100.54z"/>
		<path class="st0" d="M179.99,49.68c-12.98,0-23.76,5.55-28.31,13.11h-0.8l3.14-32.32h60.7V3.77h-87.93l-5.96,73.88l29.24,5.49
			c3.68-6.16,11.31-9.97,19.34-9.9c8.37,0,15.06,3.99,18.63,10.5l15.69-27.18C197.05,52.17,188.95,49.68,179.99,49.68z"/>
	</g>
	<path class="st1" d="M247.36,29.55c-1.07-0.11-2.15-0.1-3.22-0.01c-6.1-0.57-12.44,2.03-15.94,8.09l-92.05,159.43
		c-6.4,11.08,1.6,24.94,14.4,24.94h3.09h0.99h2.31h0.78h3.3c-12.8,0-20.8-13.85-14.4-24.94l92.05-159.43
		c2.81-4.86,7.48-7.46,12.36-8.06C249.81,29.42,248.58,29.44,247.36,29.55z"/>
	<g>
		<path class="st0" d="M229.23,147.35l-0.29-3.84c-0.33,0.44-0.69,0.86-1.08,1.25c-1.04,0.82-2.2,1.49-3.43,1.99
			c-1.76,0.84-3.69,1.27-5.63,1.25c-3.2,0.06-6.29-1.18-8.56-3.43c-2.34-2.23-3.63-5.33-3.56-8.56c-0.15-3.4,1.34-6.66,4.01-8.77
			c3.04-2.27,6.69-3.57,10.48-3.73l7.04-0.55v-2.81c0.06-1.42-0.43-2.81-1.37-3.87c-0.92-1-2.24-1.54-3.6-1.49
			c-1.33-0.04-2.62,0.4-3.65,1.25c-0.98,0.81-1.59,1.97-1.71,3.24h-8.89c-0.03-3.45,1.44-6.74,4.04-9.01
			c2.74-2.5,6.35-3.83,10.05-3.72c3.91-0.23,7.73,1.18,10.55,3.89c2.54,2.62,3.9,6.17,3.77,9.81v27.09H229.23z M221.08,140.24
			c1.8-0.02,3.54-0.69,4.88-1.9c1.3-0.9,2.12-2.33,2.24-3.9v-4.57l-6.41,0.5c-1.55,0.06-3.04,0.63-4.25,1.61
			c-1.03,0.95-1.58,2.3-1.51,3.7c0.01,1.19,0.5,2.34,1.35,3.17C218.37,139.8,219.71,140.3,221.08,140.24z"/>
		<path class="st0" d="M243.19,156.72l6.3-5.75c0.23,0.34,0.5,0.64,0.8,0.91c0.8,0.6,1.68,1.09,2.62,1.44
			c1.31,0.62,2.75,0.93,4.2,0.92c1.68,0.05,3.33-0.51,4.64-1.56c1.29-1.03,2.01-2.63,1.92-4.28v-5.51
			c-0.22,0.34-0.47,0.66-0.75,0.96c-1.94,1.58-4.35,2.45-6.85,2.48c-7.16,0.26-13.17-5.32-13.43-12.48
			c-0.01-0.37-0.01-0.75,0.01-1.12v-12.47c-0.13-3.68,1.31-7.24,3.96-9.8c2.53-2.46,5.94-3.81,9.47-3.75
			c1.57-0.02,3.12,0.3,4.56,0.92c1.08,0.4,2.08,0.98,2.96,1.71l0.8,0.96l0.15-2.95h8.24v40.4c0.15,3.99-1.4,7.86-4.26,10.64
			c-3.01,2.78-6.99,4.24-11.08,4.08c-1.78,0.02-3.56-0.19-5.29-0.6c-1.41-0.31-2.78-0.79-4.08-1.44c-0.96-0.5-1.88-1.07-2.76-1.71
			c-0.64-0.41-1.21-0.91-1.71-1.47L243.19,156.72z M251.9,120.55v11.7c-0.06,1.59,0.57,3.13,1.71,4.23c2.36,2.15,5.96,2.15,8.32,0
			c1.15-1.1,1.78-2.64,1.71-4.23v-11.7c0.06-1.59-0.56-3.13-1.71-4.23c-1.14-1.08-2.66-1.66-4.23-1.61c-1.52-0.03-3,0.55-4.09,1.61
			C252.47,117.42,251.85,118.96,251.9,120.55z"/>
		<path class="st0" d="M301.46,108l-2.72,7.84c-1.32-0.64-2.77-0.94-4.23-0.87c-1.83-0.03-3.55,0.85-4.61,2.35
			c-1.32,2.03-1.95,4.43-1.8,6.85v23.12h-9.28v-39.92h8.72l0.17,4.47c0.07-0.2,0.18-0.38,0.31-0.55c0.17-0.22,0.48-0.62,0.96-1.2
			c0.48-0.58,1.02-1.11,1.61-1.58c0.66-0.5,1.39-0.92,2.16-1.23c0.88-0.37,1.83-0.56,2.79-0.57c1.04,0,2.07,0.11,3.08,0.33
			c0.73,0.14,1.44,0.35,2.12,0.63L301.46,108z"/>
		<path class="st0" d="M332.19,120.26v14.21c0.09,3.69-1.41,7.25-4.11,9.76c-2.93,2.68-6.8,4.1-10.77,3.92
			c-4,0.18-7.91-1.23-10.87-3.92c-2.73-2.5-4.25-6.06-4.16-9.76v-14.21c-0.08-3.7,1.44-7.26,4.16-9.76
			c2.96-2.7,6.87-4.11,10.87-3.94c3.97-0.17,7.84,1.24,10.77,3.92C330.78,113,332.27,116.56,332.19,120.26z M322.99,133.96v-13.24
			c0.06-1.59-0.57-3.14-1.71-4.25c-2.37-2.12-5.96-2.12-8.32,0c-1.15,1.11-1.77,2.65-1.71,4.25v13.24
			c-0.06,1.59,0.56,3.14,1.71,4.25c1.15,1.07,2.68,1.64,4.25,1.59c1.52,0.03,2.98-0.54,4.08-1.59
			C322.43,137.1,323.05,135.55,322.99,133.96z"/>
		<path class="st0" d="M376.22,147.35v-26.72c0.05-1.37-0.39-2.72-1.23-3.8c-0.76-1-1.95-1.58-3.2-1.56c-1.53-0.03-3,0.6-4.04,1.71
			c-1.12,1.09-1.74,2.6-1.71,4.16v26.2h-9.13v-26.72c0.05-1.41-0.39-2.79-1.23-3.92c-0.79-1.03-2.02-1.63-3.32-1.59
			c-1.49-0.01-2.92,0.61-3.92,1.71c-1.11,1.12-1.73,2.65-1.71,4.23v26.29h-9.16v-39.99h8.56l0.41,3.92c0.31-0.46,0.66-0.89,1.03-1.3
			c0.85-0.79,1.81-1.46,2.84-1.99c1.41-0.84,3.03-1.29,4.68-1.28c1.45-0.01,2.88,0.34,4.16,1.01c1.03,0.46,1.93,1.16,2.64,2.04
			l0.8,0.96c0.39-0.4,0.82-0.77,1.27-1.11c1.04-0.69,2.16-1.26,3.32-1.71c1.61-0.74,3.36-1.13,5.14-1.13c3.54-0.1,6.95,1.3,9.4,3.85
			c2.52,2.67,3.86,6.25,3.72,9.92v26.82H376.22z"/>
		<path class="st0" d="M411.12,135.67h9.28c-0.31,3.54-2.04,6.8-4.8,9.04c-2.88,2.3-6.47,3.52-10.16,3.43
			c-3.98,0.19-7.87-1.22-10.81-3.9c-2.73-2.5-4.25-6.06-4.16-9.76v-14.21c-0.06-3.69,1.47-7.24,4.2-9.73
			c6.19-5.23,15.25-5.23,21.44,0c2.7,2.47,4.2,5.97,4.13,9.62v10.28h-20.65v3.92c-0.04,1.57,0.58,3.08,1.71,4.16
			c1.1,1.07,2.59,1.64,4.13,1.59c1.32,0.06,2.62-0.33,3.68-1.11c0.79-0.55,1.39-1.33,1.71-2.24L411.12,135.67z M399.59,120.26v2.53
			h11.61v-2.53c0.05-1.52-0.58-2.99-1.71-4.01c-1.13-1.03-2.61-1.57-4.13-1.52c-1.51-0.01-2.96,0.55-4.08,1.58
			C400.17,117.31,399.55,118.75,399.59,120.26z"/>
		<path class="st0" d="M425.88,156.72l6.32-5.75c0.22,0.33,0.49,0.64,0.79,0.91c0.77,0.6,1.63,1.08,2.53,1.44
			c1.31,0.62,2.75,0.93,4.2,0.92c1.68,0.05,3.33-0.51,4.64-1.56c1.29-1.03,2.01-2.63,1.92-4.28v-5.51
			c-0.22,0.34-0.47,0.66-0.75,0.96c-0.75,0.62-1.59,1.14-2.48,1.52c-1.39,0.65-2.91,0.98-4.45,0.96
			c-7.17,0.22-13.15-5.42-13.37-12.58c-0.01-0.34-0.01-0.68,0.01-1.01v-12.47c-0.13-3.68,1.32-7.24,3.97-9.8
			c2.54-2.47,5.96-3.82,9.5-3.75c1.57-0.02,3.12,0.3,4.56,0.92c1.08,0.4,2.08,0.98,2.96,1.71l0.8,0.96l0.15-3.03h8.24v40.49
			c0.16,3.99-1.4,7.86-4.28,10.64c-3.01,2.78-6.99,4.24-11.08,4.08c-1.78,0.02-3.55-0.18-5.27-0.6c-1.41-0.31-2.78-0.79-4.08-1.44
			c-0.97-0.5-1.89-1.07-2.77-1.71c-0.61-0.41-1.16-0.91-1.63-1.47L425.88,156.72z M434.6,120.55v11.7
			c-0.06,1.59,0.57,3.13,1.71,4.23c2.36,2.15,5.96,2.15,8.32,0c1.15-1.1,1.77-2.64,1.71-4.23v-11.7c0.06-1.59-0.57-3.13-1.71-4.23
			c-1.15-1.08-2.67-1.65-4.25-1.61c-1.57-0.07-3.1,0.51-4.23,1.61c-1.11,1.12-1.69,2.66-1.61,4.23H434.6z"/>
		<path class="st0" d="M482.4,147.35l-0.33-3.84c-0.32,0.45-0.68,0.87-1.08,1.25c-1.04,0.82-2.19,1.49-3.43,1.99
			c-1.76,0.84-3.69,1.27-5.63,1.25c-3.2,0.06-6.29-1.18-8.56-3.43c-2.34-2.23-3.63-5.33-3.56-8.56c-0.15-3.39,1.34-6.65,3.99-8.77
			c3.04-2.27,6.69-3.56,10.48-3.72l7.04-0.55v-2.83c0.07-1.42-0.42-2.8-1.35-3.87c-0.92-1-2.24-1.54-3.6-1.49
			c-1.33-0.04-2.62,0.4-3.65,1.25c-0.98,0.81-1.59,1.97-1.71,3.24h-8.89c-0.03-3.45,1.44-6.74,4.04-9.01
			c2.72-2.48,6.3-3.82,9.98-3.72c3.91-0.24,7.74,1.17,10.57,3.89c2.53,2.63,3.89,6.17,3.77,9.81v27.09H482.4z M474.25,140.24
			c1.75-0.06,3.42-0.73,4.73-1.9c1.3-0.89,2.12-2.33,2.23-3.9v-4.57l-6.39,0.5c-1.55,0.06-3.04,0.63-4.25,1.61
			c-1.03,0.95-1.59,2.3-1.52,3.7c0.01,1.2,0.51,2.34,1.37,3.17c0.99,0.98,2.36,1.49,3.75,1.4H474.25z"/>
	</g>
</g>
</svg>
