<?xml version="1.0" encoding="utf-8"?>
<!-- Generator: Adobe Illustrator 26.1.0, SVG Export Plug-In . SVG Version: 6.00 Build 0)  -->
<svg version="1.1" id="Capa_1" xmlns="http://www.w3.org/2000/svg" xmlns:xlink="http://www.w3.org/1999/xlink" x="0px" y="0px"
	 viewBox="0 0 300 300" style="enable-background:new 0 0 300 300;" xml:space="preserve">
<style type="text/css">
	.st0{fill:#FEC501;}
	.st1{fill:#6BBF48;}
	.st2{fill:#019639;}
	.st3{fill:#44C7E7;}
	.st4{fill:#8E9394;}
	.st5{fill:#029639;}
	.st6{fill:#8D9293;}
	.st7{fill:#8E9393;}
	.st8{fill:#FECA1D;}
	.st9{fill:#FEC918;}
	.st10{fill:#FECB23;}
	.st11{fill:#FD9017;}
	.st12{fill:#FDFDFD;}
	.st13{fill:#FBFBFB;}
</style>
<g>
	<path class="st0" d="M103.7344,110.4864c0.8538-4.3192,2.4917-8.4042,3.7881-12.59c2.4315-7.8509,4.9869-15.6637,7.3932-23.5221
		c0.4215-1.3765,0.9787-1.8687,2.452-1.8533c7.5994,0.0789,15.2003,0.0708,22.7999,0.0049c1.3531-0.0117,1.9662,0.3697,2.3724,1.702
		c2.2136,7.2608,4.5324,14.4896,6.8193,21.728c0.1467,0.4644,0.1335,1.0154,0.7455,1.3586
		c2.4105-7.6153,4.8672-15.1904,7.1718-22.8114c0.4728-1.5633,1.1597-1.9999,2.7344-1.9827
		c7.5993,0.0828,15.2001,0.0509,22.8002,0.0209c1.049-0.0041,1.664,0.1594,2.0353,1.3489
		c5.7966,18.5653,11.6554,37.1111,17.4938,55.6634c0.1107,0.3517,0.1479,0.7266,0.2192,1.0903
		c-4.709-1.0529-9.486-1.366-14.2962-1.3192c-0.2476-1.0313-0.4671-2.0704-0.7476-3.0927
		c-1.3114-4.7796-3.8286-8.8132-7.6175-12.0114c-5.1946-4.3848-11.2492-6.2242-17.9709-5.593
		c-5.3717,0.5044-10.1459,2.5378-14.0338,6.403c-2.9607-1.636-5.9453-3.1932-9.1976-4.2229
		c-9.2264-2.9212-18.6285-2.8553-28.0771-1.6731c-2.1903,0.274-4.4726,0.3933-6.5175,1.4397
		C103.9789,110.5449,103.8567,110.5157,103.7344,110.4864z"/>
	<path class="st1" d="M104.1012,110.5742c2.0449-1.0464,4.3272-1.1656,6.5175-1.4397c9.4486-1.1822,18.8507-1.2481,28.0771,1.6731
		c3.2523,1.0297,6.2369,2.5869,9.1978,4.2229c2.2536,1.8814,4.5949,3.6544,6.4643,5.9663
		c5.9771,7.3916,8.3541,16.099,9.4594,25.3142c0.3114,2.5956,0.0581,5.231,0.6606,7.7956c0,4.0988,0,8.1977,0,12.7178
		c4.3389-4.0668,8.3674-7.7964,12.3441-11.5803c6.7651-6.4369,13.4385-12.9719,20.2849-19.3208
		c1.7529-1.6256,3.1884-3.6865,5.4917-4.6871l0.0627-0.0848c0,0,0.0948,0.0462,0.0944,0.046
		c-0.0294,1.8788-0.1073,3.7586-0.0775,5.6366c0.0683,4.288-0.4002,8.5078-1.5725,12.6322
		c-2.0246,7.1223-5.994,12.6265-13.0808,15.4845c-3.4653,1.3975-7.0906,2.017-10.8016,2.2188
		c-4.463-0.0262-8.9261-0.0525-13.3895-0.0786c-1.087-1.3933-2.4995-2.444-3.7788-3.6382
		c-12.3682-11.5462-24.7005-23.1309-37.0595-34.6869c-4.5303-4.2359-9.1546-8.3727-13.6353-12.6599
		C107.527,114.3517,105.3689,112.8761,104.1012,110.5742z"/>
	<path class="st2" d="M104.1012,110.5742c1.2678,2.3019,3.4258,3.7776,5.2591,5.5317c4.4807,4.2872,9.105,8.424,13.6353,12.6599
		c12.3591,11.556,24.6913,23.1407,37.0595,34.6869c1.2793,1.1942,2.6918,2.2449,3.7788,3.6382
		c-6.8506,0.026-13.7016,0.052-20.5507,0.0781c-3.8074-0.3061-7.6039-0.6708-11.33-1.6026
		c-10.594-2.6493-18.5892-8.5205-23.2771-18.5707c-2.8489-6.1075-4.293-12.5826-4.751-19.2467
		c-0.3781-5.5027-0.3553-11.0329-0.5101-16.5509c0.1065-0.2373,0.2131-0.4746,0.3195-0.7118
		C103.8567,110.5157,103.9789,110.5449,104.1012,110.5742z"/>
	<path class="st3" d="M103.415,111.1981c0.1549,5.518,0.132,11.0482,0.5101,16.5509c0.458,6.6641,1.9021,13.1391,4.751,19.2467
		c4.688,10.0502,12.6831,15.9214,23.2771,18.5707c3.7261,0.9318,7.5226,1.2965,11.33,1.6026
		c-1.7477,0.0355-3.4933,0.101-5.2389,0.102c-16.8217,0.0098-33.6433,0.0123-50.465,0.0009
		c-0.8766-0.0006-2.1427,0.4973-1.5334-1.421c5.6937-17.9261,11.325-35.8721,16.9803-53.8106
		C103.1184,111.7478,103.2838,111.4784,103.415,111.1981z"/>
	<path class="st4" d="M166.7751,190.6598c-1.1245,1.9109-2.1977,3.7608-3.2961,5.5957c-2.1785,3.6393-4.2736,7.331-6.714,10.8074
		c-0.9088,1.2946-1.0922,1.3264-1.8522-0.0522c-2.5172-4.5656-4.9761-9.1633-7.4629-13.7457
		c-0.5057-0.9319-1.0287-1.8547-1.5586-2.7731c-0.1457-0.2525-0.266-0.6383-0.6565-0.5184
		c-0.3334,0.1023-0.3564,0.4725-0.3943,0.7732c-0.0329,0.2618-0.0256,0.5294-0.0256,0.7944
		c-0.0011,6.1019-0.0046,12.2039,0.0013,18.3058c0.0019,1.9568,0.238,2.2284,2.1877,2.6506c0.0432,0.0094,0.0869,0.0166,0.13,0.0261
		c0.4553,0.1008,1.1151,0.0527,1.0295,0.7383c-0.0729,0.5842-0.6799,0.4452-1.0983,0.4469
		c-2.6088,0.011-5.2177,0.0056-7.8266,0.0037c-0.1765-0.0001-0.3566,0.0034-0.5287-0.0287
		c-0.3429-0.0639-0.7661-0.0992-0.7149-0.5881c0.0394-0.3757,0.3934-0.4486,0.709-0.4619c0.8843-0.0373,1.7569-0.0869,2.6122-0.3782
		c1.2757-0.4345,1.9341-1.1794,1.923-2.6291c-0.0493-6.4553-0.0189-12.9112-0.0237-19.3669
		c-0.0013-1.6895-0.2927-1.9967-1.9688-2.1357c-0.2638-0.0219-0.5358,0.0201-0.7943-0.0243
		c-0.506-0.0869-1.3859,0.2897-1.3711-0.5281c0.0123-0.6802,0.8942-0.6008,1.4299-0.6097
		c3.7134-0.0617,7.4275-0.0831,11.1414-0.1111c0.4366-0.0033,0.9972-0.0566,1.0351,0.5423c0.0373,0.5892-0.5029,0.6177-0.95,0.672
		c-2.1688,0.2638-2.2961,0.459-1.3911,2.4464c1.7584,3.8613,3.5608,7.7029,5.8204,11.3054c0.796,1.269,0.8749,1.2531,1.6274,0.0381
		c2.3961-3.8687,4.8693-7.6924,6.9497-11.7471c0.7482-1.4582,0.5593-1.7881-1.0939-1.9973
		c-0.4366-0.0553-0.884-0.0187-1.3241-0.0536c-0.4449-0.0353-0.9701-0.0773-0.9227-0.6888
		c0.0405-0.5214,0.5222-0.5259,0.9257-0.5188c1.2379,0.022,2.4754,0.0763,3.7132,0.0833c2.4761,0.014,4.9525-0.0065,7.4285,0.0155
		c0.4781,0.0042,1.2316-0.2381,1.2366,0.5715c0.0046,0.7491-0.7115,0.4778-1.1409,0.4965
		c-2.0119,0.0875-2.7638,0.7042-2.7806,2.7267c-0.0529,6.3666-0.0522,12.7342-0.006,19.1009
		c0.0152,2.0942,0.7542,2.7324,2.8224,2.8458c0.4448,0.0244,1.1539-0.1826,1.1322,0.5331c-0.0212,0.7036-0.733,0.4794-1.1707,0.482
		c-3.1394,0.0185-6.279,0.0176-9.4184-0.0031c-0.3917-0.0026-1.0524,0.1801-1.0412-0.454c0.0085-0.4761,0.6224-0.3391,0.9944-0.3985
		c0.1304-0.0208,0.2648-0.0143,0.3969-0.0256c2.4818-0.213,2.6368-0.3824,2.6369-2.8857
		c0.0003-5.8809,0.0056-11.7617-0.0096-17.6426C167.1218,191.7994,167.3134,191.2461,166.7751,190.6598z"/>
	<path class="st5" d="M202.5987,131.2363c-2.3033,1.0006-3.7388,3.0615-5.4917,4.6871
		c-6.8463,6.3488-13.5198,12.8838-20.2849,19.3208c-3.9767,3.7839-8.0052,7.5135-12.3441,11.5803c0-4.5202,0-8.619,0-12.7169
		c0.2561-2.3064,0.616-4.5973,1.2167-6.8414c2.2229-8.3046,7.0605-14.1571,15.5503-16.6176
		c2.3034-0.6676,4.6943-0.8032,7.0182-1.3239c4.8103-0.0467,9.5873,0.2663,14.2962,1.3192
		C202.5727,130.8416,202.5857,131.0389,202.5987,131.2363z"/>
	<path class="st4" d="M65.4428,211.8015c0.0903,3.1346-0.5037,6.2704-0.0757,9.4028c0.1943,1.4217,0.4307,2.9485,1.9931,3.4746
		c1.539,0.5183,2.8332-0.2598,3.9347-1.3336c0.1583-0.1543,0.3123-0.3137,0.4772-0.4607c1.2178-1.0854,2.9106-1.0788,3.7562,0.0117
		c0.8639,1.1142,0.4319,2.9514-0.9414,3.7883c-1.3212,0.8051-2.7789,0.8324-4.2403,0.5258
		c-4.4352-0.9305-7.6053-4.5335-8.327-9.3868c-0.2025-1.3618-0.1788-2.7327-0.2665-4.0988
		c-0.0951-1.481-0.8625-1.9322-2.1103-1.1903c-5.8044,3.4512-11.7333,1.7099-15.7341-2.6
		c-3.9072-4.209-4.6532-11.1069-1.6049-16.1689c2.6848-4.4585,6.4949-7.1936,11.8891-7.1479
		c2.047,0.0173,4.0095,0.5807,5.8963,1.407c0.9597,0.4202,1.8803,0.9999,3.0043,0.9431c0.6586-0.0333,0.773,0.5116,0.8651,0.9842
		c0.3888,1.994,0.7541,3.9926,1.1211,5.9907c0.0546,0.2976,0.1653,0.6679-0.2403,0.7889c-0.4762,0.1421-0.5892-0.2553-0.6996-0.5949
		c-0.1912-0.5883-0.3764-1.1786-0.5581-1.7699c-1.6811-5.4695-7.3125-7.017-11.354-6.1063c-2.2085,0.4977-3.783,1.907-4.8071,3.8689
		c-2.4275,4.6505-2.851,9.5496-1.3094,14.528c2.035,6.5715,9.9477,7.7045,14.7184,3.424c0.292-0.262,0.3901-0.5576,0.4139-0.9273
		c0.0426-0.6611,0.1188-1.32,0.178-1.9801c0.1849-2.0607,0.0737-2.1292-2.005-2.2192c-0.7417-0.0321-2.0198,0.5435-2.1067-0.5882
		c-0.0707-0.9209,1.2152-0.4959,1.8747-0.6581c1.5837-0.3894,3.2057-0.6226,4.8111-0.9245c0.9627-0.181,1.5547-0.1544,1.486,1.192
		C65.3489,206.5785,65.4428,209.1924,65.4428,211.8015z"/>
	<path class="st6" d="M88.4879,199.6976c1.5239,0.34,2.8586,0.5912,4.0809,1.2098c2.6526,1.3425,4.0071,3.5117,4.1126,6.4631
		c0.0395,1.1038,0.0188,2.2101,0.0111,3.3151c-0.0077,1.121,0.352,1.8806,1.64,1.935c0.4447,0.0188,1.1209,0.0685,0.9997,0.7612
		c-0.1061,0.6068-0.7231,0.3853-1.1196,0.3536c-2.737-0.2189-5.4723-0.2329-8.2121-0.0566
		c-0.4574,0.0294-1.1238,0.1173-1.1607-0.5473c-0.0393-0.7084,0.6383-0.562,1.0947-0.6183c2.0266-0.2502,2.6158-0.9,2.625-2.9066
		c0.0039-0.8399,0.0009-1.6798,0.0003-2.5197c-0.0031-4.2638-1.6918-6.1196-5.9795-6.4627
		c-1.2742-0.102-2.5626-0.0215-3.8444-0.0342c-0.7794-0.0078-1.1165,0.3771-1.1144,1.1427
		c0.0086,3.1385,0.0128,6.2771-0.0018,9.4156c-0.0038,0.818,0.4049,1.2201,1.1645,1.3356c0.2612,0.0397,0.5322,0.0206,0.7911,0.0692
		c0.599,0.1126,1.6447-0.3122,1.6587,0.5491c0.0141,0.8642-1.0152,0.7491-1.7041,0.7312c-2.9113-0.0754-5.821-0.3317-8.7345-0.0117
		c-0.5073,0.0557-1.2239,0.1607-1.2596-0.578c-0.0373-0.7713,0.7058-0.6086,1.2019-0.6637c0.3509-0.0389,0.707-0.0302,1.0587-0.0638
		c1.6054-0.1537,1.9373-0.4331,1.9454-2.0461c0.0346-6.8516,0.0194-13.7034,0.0395-20.555
		c0.0031-1.0649-0.5399-1.5264-1.5299-1.5858c-0.7047-0.0424-1.4121-0.0488-2.1151-0.1086
		c-0.2578-0.0219-0.5534-0.1355-0.5711-0.4549c-0.0166-0.2999,0.2342-0.4688,0.481-0.565c0.7156-0.2789,1.4821-0.2478,2.2235-0.2459
		c4.1984,0.0106,8.3971,0.0433,12.5949,0.1127c0.7857,0.013,1.5885,0.1523,2.3481,0.3615c2.2514,0.6201,3.843,1.9151,4.275,4.3582
		c0.4339,2.4537-0.5182,4.3049-2.4108,5.7733C91.7701,198.5744,90.1422,198.9306,88.4879,199.6976z M81.622,193.9361
		c0,1.37,0.0513,2.7426-0.0181,4.109c-0.0458,0.9013,0.3403,1.3699,1.165,1.4185c1.6755,0.0986,3.368,0.1869,4.9647-0.4938
		c2.1126-0.9005,3.4917-2.4282,3.661-4.7796c0.1561-2.1684-0.7493-3.8832-2.6522-4.9718c-1.7438-0.9976-3.6683-1.2452-5.6401-1.0562
		c-1.0303,0.0988-1.5412,0.6954-1.4935,1.7971C81.666,191.2826,81.6223,192.6103,81.622,193.9361z"/>
	<path class="st7" d="M208.7589,200.2644c-0.0085,7.4244-6.2952,14.0461-13.3009,14.0098
		c-7.1434-0.037-13.4434-6.6259-13.4427-14.0591c0.0007-7.4851,6.1329-13.7119,13.4847-13.6928
		C202.7728,186.5412,208.7675,192.7544,208.7589,200.2644z M203.8415,200.4698c0.023-1.5509-0.0643-3.0941-0.3645-4.6178
		c-0.487-2.4728-1.3276-4.8022-3.2565-6.5267c-3.617-3.2339-9.2788-2.0835-11.4904,2.5286
		c-2.5098,5.234-2.4892,10.7053-0.4285,16.0953c1.2338,3.2272,3.7021,5.0217,7.231,5.0565
		c3.1837,0.0314,5.8403-2.0383,7.1591-5.3878C203.5983,205.3155,203.8828,202.92,203.8415,200.4698z"/>
	<path class="st7" d="M266.6464,200.185c0.007-7.4697,6.0485-13.6531,13.3495-13.6632c7.3088-0.0101,13.4249,6.2744,13.404,13.7731
		c-0.0206,7.3927-6.3355,14-13.3612,13.9799C272.9146,214.2543,266.6394,207.6523,266.6464,200.185z M288.4743,200.5221
		c0.0079-2.9901-0.3141-5.9262-1.7183-8.6231c-1.3833-2.6568-3.4796-4.3134-6.6091-4.3435
		c-3.1681-0.0305-5.5222,1.5002-6.8001,4.253c-2.5464,5.4858-2.588,11.154-0.1873,16.6968c1.2533,2.894,3.6684,4.5207,6.9234,4.4985
		c3.1997-0.0218,5.3983-1.6959,6.7931-4.4973C288.1276,205.9928,288.4907,203.2943,288.4743,200.5221z"/>
	<path class="st6" d="M118.6713,186.4611c5.3965,0.3032,9.3862,2.8945,11.782,7.7008c2.5194,5.0543,1.8445,9.9749-1.4146,14.4906
		c-3.2835,4.5495-8.6174,6.527-13.4748,5.1898c-5.3096-1.4617-9.6425-6.3838-10.2707-11.6674
		c-0.8865-7.4563,3.7433-13.9969,10.9757-15.4689C117.0415,186.5487,117.8448,186.5415,118.6713,186.4611z M127.0392,200.2691
		c-0.0283-2.4883-0.3249-5.1991-1.4651-7.7461c-1.3027-2.9099-3.3603-4.8654-6.7242-4.9589
		c-3.4376-0.0955-5.8792,1.5802-7.1884,4.6556c-2.2623,5.3141-2.3365,10.7532-0.0938,16.0864
		c1.2671,3.0133,3.6948,4.7274,7.0533,4.6937c3.4312-0.0345,5.6741-1.9474,7.0232-4.9693
		C126.7043,205.656,127.0265,203.1201,127.0392,200.2691z"/>
	<path class="st4" d="M20.7677,204.6976c-1.238,0-2.477,0.0322-3.7136-0.0095c-1.1413-0.0385-1.7918,0.4772-2.1601,1.5382
		c-0.376,1.0834-0.8632,2.128-1.2926,3.1932c-0.6719,1.6668-0.2501,2.5432,1.465,3.1556c0.7277,0.2598,1.4699,0.2743,2.2226,0.2729
		c0.3115-0.0005,0.7023,0.0072,0.7245,0.3952c0.0249,0.4356-0.3591,0.5897-0.7332,0.5879c-0.795-0.0039-1.598,0.0114-2.3832-0.0918
		c-2.0741-0.2726-4.1396-0.3103-6.2104,0.0082c-0.3478,0.0535-0.7055,0.0657-1.058,0.0599
		c-0.4325-0.0072-1.0169,0.0492-1.0287-0.5432c-0.0107-0.5386,0.5557-0.4754,0.9295-0.4693
		c2.1676,0.0354,3.4128-1.1623,4.1928-3.043c2.5048-6.0396,5.0036-12.0818,7.5522-18.1029c0.4429-1.0464,0.2867-1.5926-0.799-2.0218
		c-0.7188-0.2841-2.0046-0.3397-1.8673-1.3056c0.1037-0.7296,1.3558-0.5407,2.0995-0.7328
		c1.2396-0.3203,2.5035-0.5459,3.7444-0.8619c0.5541-0.1411,1.0163-0.1717,1.0739,0.5192
		c0.3709,4.4432,2.8953,8.1058,4.4135,12.1289c1.3403,3.5518,2.9699,6.9938,4.4358,10.4993
		c0.6463,1.5455,1.5694,2.6553,3.4001,2.6564c0.4203,0.0002,0.8558,0.097,0.7918,0.6462c-0.0619,0.5311-0.5276,0.5425-0.928,0.5093
		c-3.4489-0.286-6.8905-0.0411-10.334,0.115c-0.4231,0.0192-1.0361,0.1412-1.0935-0.4332
		c-0.0615-0.6152,0.5928-0.5014,0.9874-0.5813c0.8214-0.1664,1.6502-0.2961,2.475-0.4462c0.9109-0.1657,1.1978-0.7256,0.8598-1.5459
		c-0.7066-1.715-1.4471-3.4164-2.2016-5.111c-0.3214-0.7219-0.9351-1.0114-1.7183-1.0032
		c-1.2821,0.0134-2.5645,0.0036-3.8467,0.0036C20.7677,204.6886,20.7677,204.6931,20.7677,204.6976z M21.021,192.1025
		c-0.1107,0.0045-0.2213,0.0089-0.332,0.0134c-1.318,3.1658-2.634,6.3325-3.9554,9.4968c-0.4057,0.9716,0.018,1.4773,0.9588,1.5077
		c2.1588,0.0699,4.3203,0.0869,6.4802,0.0674c0.5583-0.005,1.0709-0.2502,0.7715-1.0173
		C23.6342,198.8154,22.3283,195.4586,21.021,192.1025z"/>
	<path class="st3" d="M177.2234,167.1695c3.711-0.2017,7.3363-0.8212,10.8016-2.2188c7.0867-2.858,11.0562-8.3622,13.0808-15.4845
		c1.1723-4.1244,1.6408-8.3442,1.5725-12.6322c-0.0299-1.878,0.0481-3.7577,0.0775-5.6366
		c2.1824,6.7398,4.377,13.4755,6.5423,20.2205c1.4956,4.6589,2.9259,9.3389,4.4398,13.9918
		c0.4296,1.3204,0.4736,1.9254-1.3048,1.913c-11.555-0.0807-23.1108-0.0415-34.6664-0.0471
		C177.5857,167.2757,177.4046,167.2065,177.2234,167.1695z"/>
	<path class="st7" d="M223.9605,213.9981c-2.5521-0.1707-5.6176-0.8096-7.7967-3.5603c-0.3631-0.4584-0.6495-0.9569-0.7216-1.5421
		c-0.1134-0.9209-0.0758-1.8105,0.9531-2.2329c1.0285-0.4221,1.8249-0.016,2.3955,0.8414c0.3396,0.5103,0.5793,1.0889,0.8469,1.645
		c1.6087,3.3435,5.8666,4.6917,9.0273,2.8542c3.0644-1.7815,3.2771-5.285,0.4462-7.391c-1.1441-0.8512-2.4554-1.3956-3.7246-2.0181
		c-2.4234-1.1887-4.8391-2.3918-6.787-4.3279c-2.0547-2.0422-2.6295-4.4858-1.714-7.1858c0.9132-2.6934,3.0249-4.0787,5.7374-4.5106
		c2.8745-0.4578,5.622,0.1596,8.2773,1.275c0.6165,0.259,1.042,0.6107,1.089,1.3394c0.0938,1.4552,0.2315,2.9075,0.3368,4.362
		c0.0252,0.3473,0.0656,0.7588-0.3753,0.8861c-0.4338,0.1253-0.6374-0.2179-0.8006-0.538c-0.502-0.9847-0.9586-1.9937-1.491-2.9613
		c-1.4493-2.6338-4.2919-3.8845-7.0574-3.1215c-1.6446,0.4537-2.8705,1.3905-3.2646,3.13c-0.3977,1.7553,0.3409,3.127,1.6643,4.1965
		c1.9429,1.5702,4.2668,2.4932,6.4455,3.6597c1.1717,0.6273,2.3255,1.2677,3.3549,2.1191
		c4.4104,3.6475,3.3521,10.2514-1.9877,12.3445C227.4835,213.7828,226.0988,214.0396,223.9605,213.9981z"/>
	<path class="st7" d="M250.5494,214.0518c-3.3922-0.2205-6.4068-0.878-8.5802-3.5533c-0.4885-0.6013-0.7964-1.2605-0.8098-2.0535
		c-0.014-0.8222,0.2105-1.4863,1.0427-1.8079c0.8593-0.3321,1.5726-0.0553,2.1435,0.5932c0.5005,0.5685,0.7768,1.2749,1.0916,1.9605
		c1.7665,3.8473,7.3788,4.877,10.1681,1.8802c1.7906-1.9238,1.6871-4.3158-0.2639-6.0687c-1.1374-1.022-2.53-1.6097-3.8823-2.261
		c-2.0333-0.9792-4.0404-1.994-5.8418-3.3791c-3.0098-2.3142-4.0356-5.0841-2.9991-8.2099
		c0.9611-2.8984,3.8247-4.7575,7.4103-4.7328c2.2305,0.0154,4.3784,0.4851,6.451,1.3391c0.8834,0.364,1.3281,0.88,1.3396,1.8742
		c0.0142,1.2345,0.1827,2.4667,0.2595,3.7014c0.0259,0.4171,0.1841,0.9633-0.4219,1.0989
		c-0.4969,0.1112-0.6575-0.3547-0.8349-0.7014c-0.5031-0.9835-0.9417-2.0033-1.4953-2.9569
		c-1.5569-2.6819-4.5913-3.8263-7.3955-2.84c-3.2626,1.1476-3.9505,4.8-1.328,7.0576c1.8693,1.6092,4.17,2.4803,6.2913,3.6565
		c1.0429,0.5783,2.128,1.0768,3.0809,1.8106c2.5445,1.9594,3.988,4.3879,3.1407,7.6994c-0.826,3.2285-3.121,4.9152-6.241,5.6131
		C252.0613,213.9539,251.2121,213.9758,250.5494,214.0518z"/>
	<path class="st8" d="M106.365,225.668c-0.0033,1.4956-0.3333,1.7874-1.8528,1.8056c-1.1146,0.0133-2.0034-0.402-2.4685-1.4354
		c-0.4697-1.0435-0.3943-2.1006,0.4119-2.9581c0.7885-0.8387,1.8049-1.084,2.9089-0.7071c0.3295,0.1125,0.9232,0.1886,0.7335,0.7157
		c-0.2113,0.5871-0.6462,0.1571-0.9845,0.0317c-0.7854-0.2912-1.5067-0.1592-2.051,0.4624
		c-0.5766,0.6584-0.6217,1.4378-0.2262,2.2213c0.3633,0.7198,1.0199,0.9566,1.7612,0.9313c0.4123-0.014,0.9259-0.0134,0.9688-0.6481
		c0.032-0.4742,0.0206-0.8972-0.6391-0.882c-0.2358,0.0054-0.4371-0.1256-0.416-0.3973c0.0216-0.2785,0.2555-0.3039,0.4811-0.3358
		C106.0222,224.3266,106.6583,224.5791,106.365,225.668z"/>
	<path class="st9" d="M172.7938,227.4685c-1.4936-0.0111-2.5976-1.1166-2.6019-2.6053c-0.0043-1.5195,1.1996-2.6942,2.716-2.6501
		c1.4583,0.0425,2.5391,1.2027,2.5134,2.6981C175.3953,226.4328,174.3195,227.4798,172.7938,227.4685z M174.6097,224.8919
		c0.0173-1.0697-0.7266-1.9096-1.7262-1.9491c-0.9908-0.0391-1.8135,0.7655-1.8572,1.8165
		c-0.0458,1.1007,0.7752,2.037,1.7878,2.0391C173.771,226.8004,174.593,225.9276,174.6097,224.8919z"/>
	<path class="st10" d="M177.4076,224.7437c0-0.0883-0.0303-0.1915,0.0047-0.2626c0.3401-0.6923-0.8051-2.0084,0.8646-2.1333
		c2.1093-0.1578,3.3364,0.5789,3.5707,2.0916c0.2123,1.3704-0.5987,2.612-1.9394,2.8712c-0.5129,0.0992-1.0577,0.0201-1.5829,0.0724
		c-0.7107,0.0708-0.9436-0.2469-0.9-0.9182c0.0371-0.5714,0.0076-1.1472,0.0076-1.721
		C177.4245,224.7437,177.416,224.7437,177.4076,224.7437z M179.0589,223.0908c-0.6328-0.115-0.8876,0.1976-0.8381,0.8874
		c0.041,0.5714,0.0525,1.1524-0.0025,1.7215c-0.0767,0.7941,0.2796,0.9806,1.0013,0.9307c1.2105-0.0837,1.8163-0.6608,1.7955-1.8178
		C180.9947,223.6803,180.3477,223.0891,179.0589,223.0908z"/>
	<path class="st8" d="M164.9192,224.8706c-0.0004-0.3088-0.0401-0.6239,0.0084-0.9249c0.085-0.5271-0.3442-1.3624,0.3173-1.5214
		c0.8585-0.2063,1.8767-0.31,2.6478,0.3854c0.5793,0.5224,0.658,1.3501,0.0811,1.7521c-1.0042,0.6998-0.3742,1.1909-0.0582,1.8315
		c0.133,0.2695,0.7961,0.5935,0.1894,0.93c-0.4494,0.2492-0.669-0.2564-0.8829-0.5845c-0.0481-0.0739-0.0856-0.1569-0.1435-0.2218
		c-0.3619-0.4056-0.4041-1.317-1.0514-1.1783c-0.5867,0.1258-0.2081,0.9068-0.2895,1.3911
		c-0.0523,0.3115-0.0309,0.6654-0.485,0.6095c-0.3537-0.0434-0.3292-0.3561-0.3315-0.6161
		C164.9159,226.1057,164.9196,225.4882,164.9192,224.8706z M167.438,223.745c-0.0707-0.5851-0.5082-0.6166-0.9686-0.66
		c-0.6064-0.0572-0.7478,0.2385-0.7463,0.7828c0.0016,0.5874,0.3299,0.6341,0.7732,0.5981
		C166.9643,224.4279,167.3806,224.3311,167.438,223.745z"/>
	<path class="st10" d="M150.8498,224.8503c0-0.1325,0-0.2651,0-0.3976c-0.0002-2.1658,0.5213-2.5684,2.721-2.1118
		c0.2204,0.0457,0.4691,0.0646,0.4771,0.3425c0.0104,0.364-0.2853,0.3936-0.5543,0.4021c-0.3972,0.0127-0.7951,0.0145-1.1926,0.0083
		c-0.4293-0.0067-0.6528,0.1566-0.6389,0.6237c0.0131,0.438,0.2115,0.5832,0.6345,0.66c0.5474,0.0995,1.546-0.3654,1.5498,0.369
		c0.0038,0.7525-0.9949,0.3135-1.5415,0.386c-0.5293,0.0702-0.6432,0.3188-0.6531,0.7792
		c-0.0106,0.4979,0.1686,0.7512,0.6869,0.7105c0.0877-0.0069,0.1828-0.0195,0.2639,0.005c0.5233,0.1584,1.4957-0.3919,1.4997,0.4279
		c0.0031,0.6347-0.96,0.2895-1.4784,0.3031C150.8505,227.405,150.8498,227.376,150.8498,224.8503z"/>
	<path class="st8" d="M142.9829,224.7348c-0.0084,0.174,0.0184,0.7103-0.0709,1.2264c-0.1629,0.9421-0.7561,1.4621-1.7248,1.5083
		c-1.0064,0.0481-1.7974-0.3564-1.9378-1.3826c-0.1479-1.0813-0.0791-2.1929-0.0942-3.2914
		c-0.0033-0.2358,0.0891-0.4385,0.3771-0.4224c0.2695,0.0151,0.3712,0.2067,0.3749,0.4451c0.0131,0.836,0.0007,1.6726,0.0267,2.508
		c0.022,0.706,0.1998,1.3806,1.058,1.4054c0.9025,0.0262,1.1945-0.6016,1.2048-1.4011c0.0102-0.7922,0.0014-1.5846,0.0107-2.3768
		c0.0031-0.2635,0.0152-0.5612,0.3765-0.5751c0.3728-0.0143,0.39,0.2854,0.396,0.5497
		C142.9908,223.4124,142.9829,223.8968,142.9829,224.7348z"/>
	<path class="st10" d="M145.3268,224.7703c-0.001-0.2201-0.001-0.4403-0.001-0.6604c0-1.7464,0.8758-2.3022,2.5145-1.5957
		c0.8074,0.3481,1.2527,1.4415,0.6123,1.9216c-1.1146,0.8357-0.4121,1.4213-0.0192,2.144c0.1177,0.2166,0.557,0.4943,0.1084,0.7515
		c-0.2939,0.1685-0.5928-0.0166-0.7717-0.319c-0.0896-0.1515-0.165-0.315-0.2751-0.4501c-0.3495-0.4287-0.4639-1.3303-1.0369-1.2243
		c-0.709,0.131-0.224,0.9587-0.3353,1.4679c-0.059,0.27-0.0777,0.5583-0.4269,0.5364c-0.3473-0.0218-0.3644-0.323-0.3664-0.5907
		C145.3244,226.0911,145.3278,225.4307,145.3268,224.7703z M146.6777,223.0859c-0.3769-0.0821-0.5629,0.163-0.568,0.6714
		c-0.0048,0.4731,0.1024,0.7626,0.6552,0.7139c0.5042-0.0444,1.0436-0.0862,1.0359-0.7384
		C147.7939,223.1434,147.2806,223.1177,146.6777,223.0859z"/>
	<path class="st10" d="M108.7201,224.7888c-0.0002-0.22-0.0003-0.44-0.0003-0.66c0.0002-1.7692,0.8426-2.3159,2.4981-1.6214
		c0.8548,0.3586,1.2592,1.4846,0.5665,2.029c-0.8626,0.6779-0.5254,1.1473-0.1166,1.7973c0.1768,0.2811,0.7509,0.6485,0.2678,0.9652
		c-0.4854,0.3182-0.7425-0.24-0.9672-0.6159c-0.0677-0.1133-0.1156-0.246-0.2057-0.3371c-0.3456-0.3491-0.3707-1.2011-1.0202-1.0057
		c-0.5331,0.1604-0.1579,0.851-0.2393,1.2975c-0.0536,0.294,0.035,0.6969-0.3955,0.6977c-0.4337,0.0008-0.3802-0.4013-0.3847-0.6987
		C108.7139,226.021,108.7203,225.4049,108.7201,224.7888z M111.2734,223.7518c-0.1056-0.5676-0.5296-0.6226-0.9877-0.6595
		c-0.5276-0.0426-0.8198,0.0933-0.8048,0.7066c0.0125,0.5138,0.1969,0.7078,0.7046,0.6714
		C110.6976,224.4335,111.1466,224.3451,111.2734,223.7518z"/>
	<path class="st9" d="M192.5384,227.4801c-1.341-0.0506-2.1573-0.6028-2.5218-1.6629c-0.369-1.0732-0.214-2.1058,0.6622-2.9192
		c0.7893-0.7328,1.7191-0.8799,2.6999-0.4642c0.3122,0.1323,0.8765,0.2714,0.6054,0.7953
		c-0.2468,0.4769-0.5826,0.0777-0.8835-0.0635c-0.846-0.397-1.5689-0.1879-2.0818,0.5659c-0.524,0.7701-0.5149,1.6018,0.0492,2.3451
		c0.5514,0.7265,1.2982,0.8596,2.1247,0.4677c0.3169-0.1503,0.6676-0.6986,0.9559-0.1065c0.2424,0.4978-0.3445,0.646-0.6637,0.7982
		C193.1388,227.4008,192.7301,227.4344,192.5384,227.4801z"/>
	<path class="st9" d="M187.8423,224.3537c-0.0641,0.609-0.0613,1.2345-0.2074,1.8231c-0.2356,0.9489-0.9356,1.3223-1.8879,1.2935
		c-0.9126-0.0276-1.5837-0.47-1.7013-1.3507c-0.1446-1.0821-0.0887-2.1914-0.1088-3.2892
		c-0.0042-0.2305,0.0815-0.4491,0.3548-0.4593c0.3631-0.0135,0.4115,0.2621,0.4147,0.5372
		c0.0098,0.8362-0.0109,1.6733,0.0205,2.5085c0.0273,0.7249,0.2874,1.3453,1.1402,1.3213c0.8262-0.0233,1.1042-0.6245,1.1265-1.3577
		c0.024-0.7917,0.0105-1.5844,0.0209-2.3766c0.0034-0.2585-0.019-0.5802,0.3333-0.6121c0.4633-0.042,0.43,0.3331,0.4361,0.6358
		c0.009,0.44,0.0023,0.8803,0.0023,1.3205C187.8049,224.3499,187.8236,224.3518,187.8423,224.3537z"/>
	<path class="st9" d="M119.7291,227.4789c-1.3369-0.0691-2.0977-0.6851-2.4607-1.7312c-0.3806-1.0966-0.1289-2.1086,0.7424-2.8902
		c0.7946-0.7128,1.734-0.8392,2.7063-0.3932c0.2804,0.1286,0.7838,0.249,0.5845,0.7086c-0.1982,0.4569-0.5248,0.223-0.8646,0.0327
		c-0.81-0.4537-1.5583-0.2692-2.1002,0.4655c-0.5516,0.7478-0.5659,1.5823-0.0341,2.3431c0.5176,0.7405,1.2439,0.912,2.1014,0.5727
		c0.3356-0.1328,0.7702-0.8164,1.0353-0.0812c0.1752,0.4858-0.4803,0.6591-0.8616,0.8181
		C120.2632,227.4549,119.8927,227.4521,119.7291,227.4789z"/>
	<path class="st9" d="M97.8617,226.2039c-0.8132-0.1477-1.3758,0.0157-1.6043,0.8241c-0.0825,0.2917-0.3749,0.4252-0.6325,0.2927
		c-0.3246-0.1669-0.1273-0.44-0.022-0.6779c0.5505-1.2436,1.096-2.4894,1.6422-3.7349c0.1264-0.2882,0.2565-0.5875,0.6442-0.5415
		c0.3036,0.036,0.4035,0.2976,0.5081,0.5444c0.5304,1.2525,1.0666,2.5025,1.5967,3.7552c0.096,0.2269,0.3092,0.5-0.0537,0.6603
		c-0.2704,0.1195-0.5503,0.0105-0.6433-0.2801C99.0519,226.28,98.5658,225.9783,97.8617,226.2039z M97.8111,223.4417
		c-0.3484,0.8334-0.7235,1.3231-0.7135,2.0174c0.4851,0.008,0.9445,0.1267,1.4955-0.098
		C98.3633,224.7969,98.1435,224.2576,97.8111,223.4417z"/>
	<path class="st9" d="M123.573,224.4133c0-0.5305-0.0057-1.0611,0.0026-1.5915c0.0038-0.2398,0.1051-0.4508,0.3742-0.4433
		c0.2623,0.0073,0.3665,0.2171,0.3693,0.4573c0.0098,0.84,0.0097,1.6801,0.0146,2.5202c0.0043,0.7493,0.2728,1.3461,1.0986,1.3812
		c0.8503,0.0361,1.1313-0.571,1.1574-1.3107c0.0266-0.7509-0.0061-1.504,0.0257-2.2544c0.0131-0.3092-0.1459-0.8062,0.417-0.7877
		c0.4406,0.0145,0.3589,0.4313,0.3605,0.7213c0.0048,0.8398,0.0376,1.6841-0.0335,2.5187c-0.1089,1.2803-0.7862,1.8768-1.968,1.8422
		c-1.1462-0.0336-1.7597-0.6985-1.823-1.992c-0.0173-0.3529-0.0026-0.7074-0.0026-1.0612
		C123.5683,224.4133,123.5706,224.4133,123.573,224.4133z"/>
	<path class="st9" d="M202.9944,227.4665c-0.5194,0.0017-0.9162-0.0219-1.2578-0.2597c-0.208-0.1448-0.4933-0.2882-0.3195-0.6097
		c0.1517-0.2808,0.4007-0.2943,0.6666-0.1213c0.3002,0.1953,0.6188,0.3516,0.9895,0.2356c0.2968-0.0929,0.5888-0.2125,0.6578-0.5697
		c0.0698-0.3611-0.1275-0.5915-0.4213-0.7377c-0.2341-0.1165-0.4892-0.1913-0.7359-0.282
		c-0.9545-0.3508-1.5172-0.9464-1.0868-2.0092c0.3381-0.8347,1.7217-1.1717,2.5271-0.6631
		c0.2064,0.1303,0.5134,0.2493,0.3213,0.5959c-0.1238,0.2235-0.3443,0.284-0.5633,0.1706c-0.2786-0.1441-0.5513-0.284-0.8738-0.2231
		c-0.3135,0.0592-0.6093,0.1834-0.7012,0.5179c-0.096,0.3496,0.0903,0.5931,0.405,0.7319c0.2812,0.124,0.568,0.2363,0.8569,0.3412
		c0.7956,0.2889,1.2883,0.7956,1.0908,1.693C204.3579,227.1493,203.6948,227.4375,202.9944,227.4665z"/>
	<path class="st9" d="M159.534,224.8439c-0.0006-0.2652-0.0005-0.5304-0.0005-0.7956c-0.0002-1.7858,0.3058-2.0278,2.0797-1.651
		c0.7271,0.1544,1.2099,0.5354,1.2212,1.3347c0.0112,0.7877-0.4455,1.3572-1.1561,1.378c-1.1454,0.0336-1.5819,0.4631-1.393,1.5877
		c0.0487,0.2902,0.0357,0.6907-0.4305,0.6373c-0.3425-0.0392-0.3129-0.3781-0.317-0.635
		C159.528,226.0815,159.5346,225.4627,159.534,224.8439z M160.9247,224.48c0.5693-0.0103,1.0846-0.0715,1.0973-0.7078
		c0.0111-0.5598-0.447-0.6689-0.9105-0.6888c-0.4586-0.0197-0.8603-0.0119-0.8627,0.6423
		C160.2468,224.2731,160.4134,224.5528,160.9247,224.48z"/>
	<path class="st10" d="M134.9197,225.2941c-0.0006-0.3537-0.0229-0.7092,0.0041-1.0609c0.0535-0.6945-0.0098-1.259-0.9412-1.1478
		c-0.2655,0.0317-0.583-0.0001-0.6015-0.3495c-0.0257-0.488,0.3785-0.3881,0.6654-0.3912c0.8843-0.0094,1.7687-0.0045,2.6531,0.0002
		c0.2693,0.0014,0.5768,0.0179,0.5946,0.3645c0.013,0.253-0.2277,0.403-0.4562,0.3668c-1.2009-0.19-1.1185,0.5967-1.0961,1.3775
		c0.0215,0.7511,0.0083,1.5033,0.0019,2.2549c-0.0027,0.3149-0.0079,0.6639-0.4609,0.6346c-0.3609-0.0233-0.359-0.3236-0.3614-0.59
		C134.9171,226.267,134.9203,225.7805,134.9197,225.2941z"/>
	<path class="st10" d="M129.709,224.7945c-0.0001-0.4832-0.026-0.9682,0.0085-1.4489c0.0253-0.3531-0.2009-0.9419,0.3751-0.9534
		c0.7152-0.0142,0.4022,0.6439,0.428,1.0149c0.0486,0.6994,0.0673,1.4098-0.0001,2.1061c-0.084,0.8672,0.2377,1.1839,1.1007,1.131
		c0.3643-0.0223,1.0663-0.2834,1.0331,0.3836c-0.0303,0.6115-0.7088,0.2629-1.0974,0.343
		c-0.1685,0.0347-0.3535-0.0165-0.5253,0.0091c-0.993,0.1477-1.5046-0.169-1.3335-1.2693
		C129.7649,225.6816,129.7091,225.2337,129.709,224.7945z"/>
	<path class="st10" d="M197.3649,225.2171c0-0.3086-0.0146-0.6181,0.0029-0.9257c0.0401-0.7037,0.0635-1.3681-0.977-1.211
		c-0.2623,0.0396-0.5789-0.0221-0.5901-0.3637c-0.0117-0.3612,0.3106-0.3685,0.5733-0.3706
		c0.8818-0.0072,1.7637-0.0112,2.6454,0.0009c0.2878,0.004,0.6936-0.0701,0.6601,0.4046c-0.0243,0.344-0.3586,0.3674-0.6154,0.3307
		c-0.9586-0.1373-0.948,0.4691-0.9279,1.1336c0.0228,0.7488,0.0179,1.4992-0.0006,2.2483c-0.008,0.3239,0.1441,0.8405-0.3464,0.8539
		c-0.6223,0.017-0.3826-0.5645-0.4158-0.9112C197.336,226.0135,197.3649,225.614,197.3649,225.2171z"/>
	<path class="st10" d="M115.0415,224.8887c0.0005,0.5717,0.0064,1.1436-0.0019,1.7152c-0.0043,0.2973,0.0609,0.6898-0.3597,0.7287
		c-0.4652,0.043-0.4089-0.3653-0.411-0.6572c-0.0091-1.2314-0.0067-2.4629-0.0001-3.6944c0.0014-0.2571-0.0121-0.5832,0.3443-0.598
		c0.4508-0.0187,0.421,0.3562,0.4253,0.6585C115.047,223.6572,115.041,224.273,115.0415,224.8887z"/>
	<path class="st11" d="M188.2632,129.3247c-2.3239,0.5207-4.7148,0.6563-7.0182,1.3239
		c-8.4898,2.4605-13.3274,8.313-15.5503,16.6176c-0.6007,2.2441-0.9606,4.5349-1.2167,6.8414
		c-0.6025-2.5655-0.3492-5.2009-0.6606-7.7966c-1.1053-9.2153-3.4823-17.9226-9.4594-25.3142
		c-1.8694-2.3118-4.2108-4.0849-6.4643-5.9663c3.8877-3.8652,8.6619-5.8986,14.0336-6.403
		c6.7217-0.6312,12.7763,1.2083,17.9709,5.593c3.7888,3.1982,6.306,7.2318,7.6175,12.0114
		C187.7961,127.2542,188.0157,128.2933,188.2632,129.3247z"/>
	<path class="st12" d="M81.6221,193.9361c0.0002-1.3258,0.0439-2.6535-0.0133-3.9768c-0.0477-1.1017,0.4632-1.6983,1.4935-1.7971
		c1.9718-0.189,3.8963,0.0586,5.6401,1.0562c1.9029,1.0887,2.8083,2.8035,2.6522,4.9718c-0.1693,2.3514-1.5484,3.879-3.661,4.7796
		c-1.5968,0.6807-3.2892,0.5924-4.9647,0.4938c-0.8248-0.0486-1.2108-0.5172-1.165-1.4185
		C81.6732,196.6787,81.622,195.3061,81.6221,193.9361z"/>
	<path class="st12" d="M203.8417,200.4691c0.0411,2.451-0.2434,4.8464-1.1499,7.1487c-1.3188,3.3495-3.9754,5.4192-7.1591,5.3878
		c-3.5289-0.0348-5.9972-1.8292-7.231-5.0565c-2.0607-5.39-2.0813-10.8613,0.4285-16.0953
		c2.2116-4.6121,7.8733-5.7625,11.4904-2.5286c1.9289,1.7246,2.7694,4.054,3.2565,6.5267
		C203.7772,197.3757,203.8645,198.9189,203.8417,200.4691z"/>
	<path class="st12" d="M288.4739,200.5228c0.0168,2.7715-0.3463,5.47-1.5979,7.9836c-1.3949,2.8015-3.5934,4.4756-6.7931,4.4973
		c-3.2551,0.0222-5.6701-1.6045-6.9234-4.4985c-2.4006-5.5428-2.3591-11.211,0.1873-16.6968
		c1.2779-2.7528,3.632-4.2835,6.8001-4.253c3.1295,0.0302,5.2258,1.6868,6.6091,4.3435
		C288.1602,194.5959,288.4822,197.532,288.4739,200.5228z"/>
	<path class="st12" d="M127.0392,200.2691c-0.0128,2.8509-0.3349,5.3869-1.395,7.7613c-1.3491,3.0219-3.592,4.9348-7.0232,4.9693
		c-3.3585,0.0338-5.7861-1.6804-7.0533-4.6937c-2.2427-5.3332-2.1685-10.7722,0.0938-16.0864
		c1.3092-3.0754,3.7507-4.7511,7.1884-4.6556c3.3639,0.0935,5.4215,2.0489,6.7242,4.9589
		C126.7143,195.07,127.0109,197.7808,127.0392,200.2691z"/>
	<path class="st13" d="M21.021,192.1025c1.3073,3.3562,2.6133,6.7129,3.923,10.0681c0.2995,0.7671-0.2132,1.0123-0.7715,1.0173
		c-2.1599,0.0195-4.3214,0.0025-6.4802-0.0674c-0.9408-0.0305-1.3646-0.5361-0.9588-1.5077
		c1.3214-3.1644,2.6374-6.331,3.9554-9.4968C20.7996,192.1114,20.9103,192.1069,21.021,192.1025z"/>
	<path class="st13" d="M174.6097,224.8919c-0.0167,1.0357-0.8387,1.9085-1.7956,1.9066c-1.0126-0.0021-1.8335-0.9384-1.7878-2.0391
		c0.0437-1.051,0.8663-1.8557,1.8572-1.8165C173.8831,222.9823,174.627,223.8222,174.6097,224.8919z"/>
	<path class="st13" d="M179.0589,223.0908c1.2888-0.0017,1.9358,0.5895,1.9561,1.7218c0.0208,1.157-0.585,1.7341-1.7955,1.8178
		c-0.7216,0.0499-1.078-0.1366-1.0013-0.9307c0.0549-0.5691,0.0435-1.1501,0.0025-1.7215
		C178.1713,223.2884,178.426,222.9758,179.0589,223.0908z"/>
	<path class="st13" d="M167.438,223.745c-0.0574,0.5861-0.4737,0.6829-0.9417,0.7209c-0.4432,0.036-0.7716-0.0107-0.7732-0.5981
		c-0.0015-0.5443,0.1399-0.84,0.7463-0.7828C166.9298,223.1284,167.3673,223.1599,167.438,223.745z"/>
	<path class="st13" d="M146.6777,223.0859c0.6028,0.0318,1.1161,0.0574,1.1231,0.647c0.0078,0.6522-0.5316,0.694-1.0359,0.7384
		c-0.5528,0.0487-0.66-0.2409-0.6552-0.7139C146.1149,223.249,146.3008,223.0038,146.6777,223.0859z"/>
	<path class="st13" d="M111.2734,223.7518c-0.1268,0.5932-0.5758,0.6817-1.0879,0.7185c-0.5077,0.0364-0.692-0.1576-0.7046-0.6714
		c-0.015-0.6133,0.2772-0.7492,0.8048-0.7066C110.7439,223.1292,111.1678,223.1842,111.2734,223.7518z"/>
	<path class="st13" d="M97.8111,223.4417c0.3324,0.8159,0.5521,1.3553,0.782,1.9194c-0.551,0.2247-1.0105,0.106-1.4955,0.098
		C97.0876,224.7648,97.4627,224.2751,97.8111,223.4417z"/>
	<path class="st13" d="M160.9247,224.48c-0.5113,0.0728-0.6779-0.2069-0.6759-0.7543c0.0024-0.6541,0.4041-0.662,0.8627-0.6423
		c0.4635,0.0199,0.9216,0.129,0.9105,0.6888C162.0093,224.4084,161.494,224.4697,160.9247,224.48z"/>
</g>
</svg>
