<?xml version="1.0" encoding="utf-8"?>
<!-- Generator: Adobe Illustrator 26.1.0, SVG Export Plug-In . SVG Version: 6.00 Build 0)  -->
<svg version="1.1" id="Capa_1" xmlns="http://www.w3.org/2000/svg" xmlns:xlink="http://www.w3.org/1999/xlink" x="0px" y="0px"
	 viewBox="0 0 300 300" style="enable-background:new 0 0 300 300;" xml:space="preserve">
<style type="text/css">
	.st0{fill-rule:evenodd;clip-rule:evenodd;fill:#EF7D00;}
	.st1{fill-rule:evenodd;clip-rule:evenodd;}
	.st2{fill:#EF8224;}
	.st3{fill:#774189;}
	.st4{fill:#147ABE;}
	.st5{fill:#1D1D1B;}
	.st6{fill:#FFFFFF;}
	.st7{fill:#8E348A;}
</style>
<g>
	<g>
		<path class="st4" d="M31.04,125.31l-16.57,46.24h10.87l3.13-9.25h16.96l3.19,9.25h10.96l-16.19-46.24H31.04z M30.85,153.78
			l5.03-16.19c0.19-0.6,0.37-1.16,0.52-1.68c0.15-0.52,0.29-1.04,0.42-1.58h0.26c0.15,0.65,0.3,1.21,0.45,1.69
			c0.15,0.48,0.31,1.02,0.48,1.6l4.93,16.15H30.85z"/>
		<polygon class="st4" points="74.15,125.31 63.74,125.31 63.74,171.55 91.28,171.55 91.28,162.78 74.15,162.78 		"/>
		<rect x="223.96" y="125.31" class="st4" width="10.42" height="46.24"/>
		<polygon class="st4" points="251.58,125.31 241.17,125.31 241.17,171.55 268.7,171.55 268.7,162.78 251.58,162.78 		"/>
		<path class="st4" d="M163.97,156.69l-10.98-31.38h-12.35l-9.27,25.87v-5.46h-19.67v8.64h9.25v7.51c-0.86,0.54-1.85,0.94-2.98,1.21
			c-1.13,0.27-2.27,0.4-3.43,0.4c-3.87,0-6.99-1.29-9.37-3.87c-2.38-2.58-3.56-6.31-3.56-11.19c0-4.77,1.2-8.48,3.59-11.11
			c2.4-2.63,5.42-3.95,9.08-3.95c1.89,0,3.61,0.39,5.16,1.16c1.55,0.77,2.86,2.05,3.93,3.84l8.42-4.19c-1.53-2.9-3.8-5.23-6.84-7
			c-3.03-1.76-6.87-2.64-11.51-2.64c-6.6,0-12.07,2.29-16.41,6.87c-4.34,4.58-6.51,10.5-6.51,17.77c0,7.22,2.16,12.89,6.48,17.01
			c4.32,4.12,10.31,6.17,17.96,6.17c2.94,0,5.86-0.5,8.75-1.51c0.24-0.09,0.47-0.19,0.71-0.27l-0.35,0.98h10.87l3.13-9.25h16.96
			l3.19,9.25h5.76h5.2h0.05l-5.25-15V156.69z M140.44,153.78l5.03-16.19c0.19-0.6,0.37-1.16,0.52-1.68
			c0.15-0.52,0.29-1.04,0.42-1.58h0.26c0.15,0.65,0.3,1.21,0.45,1.69c0.15,0.48,0.31,1.02,0.48,1.6l4.93,16.15H140.44z"/>
		<path class="st4" d="M192.5,152.65c-0.39,1.1-0.69,1.98-0.92,2.64c-0.23,0.67-0.53,1.58-0.92,2.74h-0.19
			c-0.32-1.1-0.59-2.02-0.81-2.76c-0.22-0.74-0.5-1.6-0.84-2.56l-9.45-27.41h-15.41v23.59l8.08,22.65h1.47v-25.57
			c0-1.42-0.01-2.87-0.03-4.35c-0.02-1.48-0.07-3.17-0.13-5.06h0.29c0.3,0.97,0.52,1.7,0.66,2.19c0.14,0.49,0.32,1.05,0.53,1.68
			l11.03,31.12h8.51l10.83-31.44c0.17-0.52,0.35-1.06,0.55-1.63c0.19-0.57,0.41-1.21,0.64-1.92h0.26c-0.04,1.42-0.08,2.7-0.1,3.84
			c-0.02,1.14-0.03,2.3-0.03,3.48v27.67h10.29v-46.24h-14.86L192.5,152.65z"/>
		<path class="st4" d="M279.07,162.77c-3.62,0-6.5,2.81-6.5,6.31c0,3.58,2.89,6.39,6.5,6.39c3.66,0,6.46-2.81,6.46-6.39
			C285.54,165.58,282.73,162.77,279.07,162.77z M279.11,174.12c-2.85,0-4.92-2.23-4.92-5.04c0-2.77,2.08-5.04,4.89-5.04
			s4.85,2.27,4.85,5.08C283.92,171.89,281.88,174.12,279.11,174.12z"/>
		<path class="st4" d="M280.53,169.27v-0.08c0.77-0.23,1.31-0.77,1.31-1.46c0-0.62-0.27-1.12-0.62-1.38c-0.46-0.27-1-0.46-2.19-0.46
			c-1.04,0-1.85,0.08-2.42,0.19v6.31h1.46v-2.54h0.69c0.81,0,1.19,0.31,1.31,1c0.19,0.73,0.31,1.31,0.5,1.54h1.58
			c-0.15-0.23-0.27-0.62-0.46-1.58C281.5,169.96,281.15,169.5,280.53,169.27z M278.8,168.81h-0.69V167
			c0.15-0.04,0.42-0.08,0.81-0.08c0.92,0,1.35,0.39,1.35,0.96C280.26,168.54,279.61,168.81,278.8,168.81z"/>
	</g>
</g>
</svg>
