<?xml version="1.0" encoding="utf-8"?>
<!-- Generator: Adobe Illustrator 26.1.0, SVG Export Plug-In . SVG Version: 6.00 Build 0)  -->
<svg version="1.1" id="Capa_1" xmlns="http://www.w3.org/2000/svg" xmlns:xlink="http://www.w3.org/1999/xlink" x="0px" y="0px"
	 viewBox="0 0 300 300" style="enable-background:new 0 0 300 300;" xml:space="preserve">
<style type="text/css">
	.st0{fill-rule:evenodd;clip-rule:evenodd;fill:#EF7D00;}
	.st1{fill-rule:evenodd;clip-rule:evenodd;}
	.st2{fill:#EF8224;}
	.st3{fill:#774189;}
	.st4{fill:#147ABE;}
	.st5{fill:#1D1D1B;}
	.st6{fill:#FFFFFF;}
	.st7{fill:#8E348A;}
</style>
<g>
	<path class="st5" d="M6.25,171.3V130.2h32.61c2.19,0,4.17,0.43,5.92,1.29c1.76,0.86,3.15,2.04,4.19,3.56
		c1.04,1.52,1.56,3.29,1.56,5.33c0,1.64-0.31,3.09-0.93,4.37c-0.62,1.28-1.46,2.33-2.51,3.17c-1.06,0.84-2.22,1.46-3.5,1.86V150
		c1.52,0.32,2.88,0.92,4.1,1.8c1.22,0.88,2.17,2.01,2.87,3.38c0.7,1.38,1.05,3,1.05,4.88c0,2.47-0.57,4.55-1.71,6.22
		c-1.14,1.68-2.66,2.93-4.58,3.77c-1.91,0.84-4.05,1.26-6.4,1.26H6.25z M16.6,146.59h18.55c1.04,0,1.9-0.18,2.6-0.54
		c0.7-0.36,1.24-0.87,1.62-1.53c0.38-0.66,0.57-1.39,0.57-2.18c0-1.4-0.42-2.45-1.26-3.17c-0.84-0.72-1.94-1.08-3.29-1.08H16.6
		V146.59z M16.6,163.28h19.57c1.44,0,2.6-0.37,3.5-1.11c0.9-0.74,1.35-1.89,1.35-3.44c0-0.88-0.19-1.65-0.57-2.33
		c-0.38-0.68-0.95-1.21-1.71-1.59c-0.76-0.38-1.7-0.57-2.81-0.57H16.6V163.28z"/>
	<path class="st5" d="M77.93,172.02c-4.19,0-7.8-0.59-10.83-1.77c-3.03-1.18-5.38-2.98-7.03-5.41c-1.66-2.43-2.48-5.52-2.48-9.27
		c0-3.67,0.81-6.73,2.42-9.18c1.62-2.45,3.93-4.29,6.94-5.5c3.01-1.22,6.55-1.83,10.62-1.83c4.27,0,7.88,0.6,10.83,1.8
		c2.95,1.2,5.18,2.97,6.7,5.33c1.52,2.35,2.27,5.27,2.27,8.74v2.75H67.4c0.12,1.84,0.62,3.32,1.5,4.46c0.88,1.14,2.1,1.97,3.68,2.48
		c1.58,0.52,3.42,0.78,5.53,0.78c0.96,0,1.96-0.11,3.02-0.33c1.06-0.22,2.05-0.53,2.99-0.93c0.94-0.4,1.72-0.91,2.36-1.53
		c0.64-0.62,1-1.37,1.08-2.24h9.57c0,1.68-0.44,3.23-1.32,4.67c-0.88,1.44-2.15,2.67-3.83,3.71c-1.68,1.04-3.7,1.85-6.07,2.42
		C83.55,171.73,80.88,172.02,77.93,172.02z M67.46,151.97h19.92c0-1.04-0.24-1.94-0.72-2.72c-0.48-0.78-1.17-1.44-2.06-1.97
		c-0.9-0.54-1.93-0.94-3.08-1.2c-1.16-0.26-2.41-0.39-3.77-0.39c-1.95,0-3.68,0.25-5.18,0.75c-1.5,0.5-2.67,1.22-3.53,2.15
		C68.19,149.53,67.66,150.66,67.46,151.97z"/>
	<path class="st5" d="M104.32,171.3v-43.32h9.33v43.32H104.32z"/>
	<path class="st5" d="M135.97,172.02c-2.43,0-4.44-0.31-6.01-0.93c-1.58-0.62-2.74-1.68-3.5-3.17c-0.76-1.5-1.14-3.54-1.14-6.13
		v-15.2h-6.1v-6.82h6.4l1.85-9.33h7.18v9.33h8.68v6.82h-8.68v14c0,1.52,0.29,2.66,0.87,3.44c0.58,0.78,1.82,1.17,3.74,1.17h4.07v5.8
		c-0.56,0.2-1.29,0.38-2.18,0.54c-0.9,0.16-1.82,0.28-2.75,0.36C137.45,171.98,136.65,172.02,135.97,172.02z"/>
	<path class="st5" d="M162.06,172.02c-1.91,0-3.69-0.15-5.33-0.45c-1.64-0.3-3.07-0.8-4.31-1.5c-1.24-0.7-2.2-1.65-2.9-2.84
		c-0.7-1.2-1.05-2.71-1.05-4.55c0-2.51,0.7-4.5,2.09-5.95c1.4-1.46,3.36-2.5,5.89-3.14c2.53-0.64,5.5-1.05,8.92-1.23
		c3.41-0.18,7.13-0.27,11.16-0.27v-1.14c0-1.32-0.32-2.35-0.96-3.11c-0.64-0.76-1.61-1.31-2.9-1.65c-1.3-0.34-2.98-0.51-5.06-0.51
		c-1.56,0-2.98,0.11-4.28,0.33c-1.3,0.22-2.32,0.56-3.08,1.02c-0.76,0.46-1.14,1.05-1.14,1.76v0.6h-9.39
		c-0.04-0.16-0.07-0.31-0.09-0.45c-0.02-0.14-0.03-0.31-0.03-0.51c0-1.87,0.7-3.52,2.09-4.94c1.4-1.42,3.48-2.51,6.25-3.29
		c2.77-0.78,6.21-1.17,10.32-1.17c3.83,0,7.05,0.34,9.66,1.02c2.61,0.68,4.6,1.8,5.95,3.35c1.36,1.56,2.03,3.63,2.03,6.22v13.22
		c0,0.72,0.15,1.29,0.45,1.71c0.3,0.42,0.81,0.63,1.53,0.63h3.11v5.74c-0.48,0.2-1.28,0.43-2.39,0.69
		c-1.12,0.26-2.35,0.39-3.71,0.39c-1.84,0-3.28-0.21-4.34-0.63c-1.06-0.42-1.83-1-2.3-1.73c-0.48-0.74-0.82-1.55-1.02-2.42h-0.48
		c-1.12,1-2.44,1.86-3.98,2.57c-1.54,0.72-3.2,1.27-5,1.65C166,171.83,164.09,172.02,162.06,172.02z M164.51,165.38
		c1.12,0,2.36-0.13,3.74-0.39c1.38-0.26,2.7-0.64,3.98-1.14c1.28-0.5,2.31-1.13,3.11-1.89c0.8-0.76,1.2-1.68,1.2-2.75v-1.68
		c-4.27,0-7.78,0.16-10.53,0.48c-2.75,0.32-4.81,0.82-6.16,1.5c-1.36,0.68-2.03,1.64-2.03,2.87c0,0.84,0.33,1.47,0.99,1.88
		c0.66,0.42,1.51,0.71,2.54,0.87C162.37,165.3,163.43,165.38,164.51,165.38z"/>
	<path class="st5" d="M195.14,171.3v-31.53h7.54l0.66,5.32h0.54c1.16-1.52,2.46-2.71,3.92-3.59c1.46-0.88,3.01-1.5,4.67-1.88
		c1.65-0.38,3.28-0.57,4.88-0.57c2.99,0,5.49,0.47,7.51,1.41c2.01,0.94,3.52,2.36,4.52,4.28c1,1.91,1.5,4.33,1.5,7.24v19.33h-9.33
		v-17.83c0-1.24-0.18-2.3-0.54-3.2c-0.36-0.9-0.86-1.62-1.5-2.18c-0.64-0.56-1.43-0.97-2.36-1.23c-0.94-0.26-1.98-0.39-3.14-0.39
		c-1.68,0-3.23,0.35-4.67,1.05c-1.44,0.7-2.6,1.66-3.5,2.87c-0.9,1.22-1.35,2.64-1.35,4.28v16.63H195.14z"/>
	<path class="st5" d="M257.55,172.02c-4.11,0-7.65-0.62-10.62-1.86c-2.97-1.24-5.27-3.08-6.88-5.53c-1.62-2.45-2.42-5.49-2.42-9.13
		c0-3.67,0.81-6.72,2.42-9.15c1.62-2.43,3.91-4.26,6.88-5.47c2.97-1.22,6.51-1.83,10.62-1.83c4.11,0,7.65,0.61,10.62,1.83
		c2.97,1.22,5.27,3.04,6.88,5.47c1.62,2.43,2.42,5.49,2.42,9.15c0,3.63-0.81,6.67-2.42,9.13s-3.91,4.3-6.88,5.53
		C265.2,171.4,261.66,172.02,257.55,172.02z M257.55,165.2c2.15,0,4-0.37,5.53-1.11c1.54-0.74,2.7-1.78,3.5-3.14
		c0.8-1.36,1.2-2.97,1.2-4.85v-1.2c0-1.91-0.4-3.54-1.2-4.88c-0.8-1.34-1.97-2.36-3.5-3.08c-1.54-0.72-3.38-1.08-5.53-1.08
		c-2.19,0-4.05,0.36-5.56,1.08c-1.52,0.72-2.67,1.75-3.47,3.08c-0.8,1.34-1.2,2.96-1.2,4.88v1.2c0,1.88,0.4,3.49,1.2,4.85
		c0.8,1.36,1.95,2.4,3.47,3.14C253.5,164.83,255.36,165.2,257.55,165.2z"/>
	<path class="st5" d="M284.41,171.3v-43.32h9.33v43.32H284.41z"/>
</g>
</svg>
