<?xml version="1.0" encoding="utf-8"?>
<!-- Generator: Adobe Illustrator 26.1.0, SVG Export Plug-In . SVG Version: 6.00 Build 0)  -->
<svg version="1.1" id="Capa_1" xmlns="http://www.w3.org/2000/svg" xmlns:xlink="http://www.w3.org/1999/xlink" x="0px" y="0px"
	 viewBox="0 0 300 300" style="enable-background:new 0 0 300 300;" xml:space="preserve">
<style type="text/css">
	.st0{fill-rule:evenodd;clip-rule:evenodd;fill:#EF7D00;}
	.st1{fill-rule:evenodd;clip-rule:evenodd;}
	.st2{fill:#EF8224;}
	.st3{fill:#774189;}
	.st4{fill:#147ABE;}
	.st5{fill:#1D1D1B;}
	.st6{fill:#FFFFFF;}
	.st7{fill:#8E348A;}
</style>
<g>
	<path class="st0" d="M150,109.54c80.19,0,145.58,18.19,145.58,40.44c0,22.3-65.39,40.49-145.58,40.49S4.42,172.28,4.42,149.98
		C4.42,127.72,69.81,109.54,150,109.54"/>
	<path d="M150,191.93c-38.92,0-75.58-4.22-103.28-11.91c-28.23-7.84-43.77-18.48-43.77-30c0-11.47,15.54-22.16,43.77-30
		c27.69-7.7,64.36-11.91,103.28-11.91s75.58,4.22,103.28,11.91c28.23,7.84,43.77,18.48,43.77,30c0,11.52-15.54,22.16-43.77,30
		C225.58,187.72,188.92,191.93,150,191.93 M150,111.01c-38.67,0-75.04,4.22-102.49,11.81c-26.47,7.35-41.66,17.25-41.66,27.16
		c0,9.9,15.2,19.8,41.66,27.2c27.45,7.6,63.82,11.81,102.49,11.81s75.04-4.22,102.49-11.81c26.47-7.35,41.66-17.25,41.66-27.2
		s-15.2-19.8-41.66-27.16C225.04,115.22,188.67,111.01,150,111.01"/>
	<path class="st1" d="M47.11,98.31c0-3.73,3.48-6.76,7.79-6.76H65.3c4.31,0,7.79,3.04,7.79,6.76v11.22H62.7v-6.76
		c0-1.23-1.18-2.25-2.6-2.25c-1.42,0-2.6,1.03-2.6,2.25v58.43c0,1.23,1.18,2.25,2.6,2.25c1.42,0,2.6-1.03,2.6-2.25v-24.7h-2.6v-8.97
		h12.99v38.23c0,3.73-3.48,6.76-7.79,6.76H54.91c-4.31,0-7.79-3.04-7.79-6.76V98.31z M78.29,163.5v-35.98h10.39v33.72
		c0,1.23,1.18,2.25,2.6,2.25c1.42,0,2.6-1.03,2.6-2.25v-33.72h10.39v44.95H93.88v-1.18c-1.52,0.78-3.43,1.18-5.2,1.18
		C82.99,172.47,78.29,168.45,78.29,163.5 M125.1,171.3c-1.52,0.78-3.43,1.18-5.2,1.18c-5.73,0-10.39-4.02-10.39-8.97v-11.57
		c0-4.95,4.66-8.97,10.39-8.97c1.76,0,3.68,0.44,5.2,1.18v-5.39c0-1.23-1.18-2.25-2.6-2.25c-1.42,0-2.6,1.03-2.6,2.25v0.34h-10.39
		v-4.8c0-3.73,3.48-6.76,7.79-6.76h10.39c4.31,0,7.79,3.04,7.79,6.76v38.23H125.1V171.3z M125.1,161.25v-8.33
		c0-1.23-1.18-2.25-2.6-2.25s-2.6,1.03-2.6,2.25v8.33c0,1.23,1.18,2.25,2.6,2.25S125.1,162.47,125.1,161.25 M161.47,127.53
		c-5.73,0-10.39,4.02-10.39,8.97v-8.97h-10.39v44.95h10.39v-24.36c0-4.95,4.66-8.97,10.39-8.97V127.53z M180.15,171.3
		c-1.57,0.78-3.43,1.18-5.2,1.18c-5.73,0-10.39-4.02-10.39-8.97v-11.57c0-4.95,4.66-8.97,10.39-8.97c1.76,0,3.68,0.44,5.2,1.18
		v-5.39c0-1.23-1.18-2.25-2.6-2.25c-1.42,0-2.6,1.03-2.6,2.25v0.34h-10.39v-4.8c0-3.73,3.48-6.76,7.79-6.76h10.39
		c4.31,0,7.79,3.04,7.79,6.76v38.23h-10.39L180.15,171.3L180.15,171.3z M180.15,161.25c0,1.23-1.18,2.25-2.6,2.25
		c-1.42,0-2.6-1.03-2.6-2.25v-8.33c0-1.23,1.18-2.25,2.6-2.25c1.42,0,2.6,1.03,2.6,2.25V161.25z M206.12,128.75v-1.23h-10.39v44.95
		h10.39V138.8c0-1.23,1.18-2.25,2.6-2.25s2.6,1.03,2.6,2.25v33.72h10.39v-35.98c0-4.95-4.66-8.97-10.39-8.97
		C209.56,127.53,207.69,127.97,206.12,128.75 M226.91,163.5c0,4.95,4.66,8.97,10.39,8.97c1.81,0,3.68-0.44,5.2-1.18v37.15h10.39
		v-80.93h-10.39v33.72c0,1.23-1.18,2.25-2.6,2.25s-2.6-1.03-2.6-2.25v-33.72h-10.39L226.91,163.5L226.91,163.5z"/>
</g>
</svg>
