<?xml version="1.0" encoding="utf-8"?>
<!-- Generator: Adobe Illustrator 26.1.0, SVG Export Plug-In . SVG Version: 6.00 Build 0)  -->
<svg version="1.1" id="Capa_1" xmlns="http://www.w3.org/2000/svg" xmlns:xlink="http://www.w3.org/1999/xlink" x="0px" y="0px"
	 viewBox="0 0 300 300" style="enable-background:new 0 0 300 300;" xml:space="preserve">
<style type="text/css">
	.st0{fill:#CFD947;}
	.st1{fill:#B7B9BA;}
</style>
<g>
	<g>
		<path class="st0" d="M276.3291,258.5042c-1.9739,0.9542-2.0918,3.1385-3.1113,4.7231
			c-4.7227,7.3407-14.3732,11.9421-25.9048,8.3817c-8.2351-2.5426-14.0725-11.3701-13.7254-20.517
			c0.3286-8.6581,8.0745-17.5198,16.6745-19.0762c11.857-2.146,20.3541,2.6264,24.9149,13.9428
			c0.1351,0.3353,0.7571,0.4744,1.152,0.705C276.3291,250.6104,276.3291,254.5573,276.3291,258.5042z M264.5837,252.3778
			c0.0091-6.2033-3.9889-10.3106-9.9169-10.1879c-5.5897,0.1157-9.5231,4.2486-9.4422,9.9213
			c0.082,5.7487,3.9052,9.5628,9.6247,9.6019C260.8486,261.7541,264.5751,258.1803,264.5837,252.3778z"/>
		<path class="st0" d="M172.7473,271.5651c0-7.5047,0-14.3585,0-21.2124c0-6.9036,0.1115-13.8099-0.0541-20.7095
			c-0.0674-2.8074,1.618-6.6273-3.3972-7.4062c-0.9376-0.1456-0.7892-1.6568-0.794-2.6286c-0.012-2.4453-0.004-4.8906-0.004-7.7184
			c4.8148-1.0446,9.3618-0.4797,14.3712-0.5169c0,8.2365,0,16.0372,0,24.6233c4.05-1.6067,6.9185-4.1448,10.9174-4.2737
			c8.4329-0.2719,14.8597,2.4825,18.8134,10.2031c4.1947,8.1911,3.7772,16.105-1.7115,23.482
			c-4.4568,5.9902-11.3649,9.8156-20.8113,6.4153c-2.9145-1.0491-5.5486-2.3195-8.935-0.4449
			C179.2612,272.4195,176.3309,271.5651,172.7473,271.5651z M203.7589,251.7381c-0.0777-5.8432-5.2555-11.138-10.6727-10.9139
			c-5.5321,0.2289-10.248,5.6732-10.0033,11.5482c0.2334,5.6059,4.9852,10.474,10.2628,10.5142
			C198.8222,262.9283,203.8362,257.5602,203.7589,251.7381z"/>
		<path class="st1" d="M114.9575,236.0178c0-4.7866,0-8.7232,0-12.6599c0-3.6945,0-7.3891,0-11.3659
			c4.6713-1.5043,9.2666-0.5971,14.0716-0.6761c1.2221,2.9576,0.5365,5.9215,0.6658,8.7878
			c0.0307,0.6803-0.172,1.8955-0.5116,1.9903c-5.9703,1.6676-3.672,6.5253-3.7361,10.1562
			c-0.2176,12.3255-0.089,24.6572-0.1065,36.9864c-0.0007,0.4841-0.143,0.968-0.2933,1.9209
			c-3.7812,0.4313-7.7804,2.4159-11.1098-2.1343c-4.8769,2.3832-9.92,4.9722-15.67,3.9458
			c-5.102-0.9108-9.0476-4.1851-11.6498-8.3222c-5.2026-8.2713-5.6926-17.1687,1.0817-25.6513
			C94.1103,230.968,104.5289,228.8551,114.9575,236.0178z M94.311,252.1348c0.1375,5.7428,5.5472,11.1311,10.8208,10.7779
			c5.1892-0.3475,9.8288-5.506,9.8611-10.9638c0.0342-5.7882-5.0424-11.2297-10.4156-11.1642
			C99.2248,240.8499,94.1744,246.4335,94.311,252.1348z"/>
		<path class="st1" d="M142.0043,256.0902c0.909,8.0105,7.6232,9,17.1862,2.5063c1.2541,0.5447,2.7172,0.9262,3.8631,1.7494
			c1.1462,0.8234,2.8964,0.7971,3.4954,2.3768c-5.7198,12.2018-24.374,14.5425-33.5688,2.5411
			c-5.1219-6.6853-5.6046-14.3038-2.1253-21.8504c3.3914-7.3559,8.8993-11.7764,17.6256-11.6699
			c6.3874,0.0779,11.9404,1.1695,16.4018,6.2797c3.4698,3.9744,3.7525,8.8518,4.6547,13.5212
			c0.4944,2.5587-1.4645,3.9198-4.1289,3.9108c-5.4066-0.0183-10.815-0.0815-16.2194,0.0311
			C146.7946,255.5361,144.2977,254.85,142.0043,256.0902z M158.101,247.8554c-4.3511-7.0228-6.6232-8.4665-11.196-6.6934
			c-2.6411,1.0241-6.4169,1.9032-4.7677,6.6934C147.2226,247.8554,152.2505,247.8554,158.101,247.8554z"/>
		<path class="st1" d="M51.3133,271.4592c-4.3236,0-7.6858,0-11.4034,0c0-12.6881,0-25.0907,0-38.1193
			c4.4984,0.8114,9.3389-2.5837,12.7543,3.3788c4.1086-4.0727,8.817-5.4058,14.2101-4.9182
			c6.7548,0.6107,11.04,4.9701,11.1688,11.8431c0.0553,2.9502-0.2267,5.9304,0.1027,8.8452
			c0.3303,2.9229-2.1159,7.2094,3.4887,8.0235c0.918,0.1334,0.8483,1.6516,0.7922,2.6176c-0.1537,2.6476,0.4595,5.356-0.5347,8.2752
			c-4.4047,0-8.7612,0-13.5526,0c-1.5738-4.731-0.3864-9.879-0.7424-14.9066c-0.2239-3.1623,0.3677-6.3425-0.4817-9.5046
			c-0.8784-3.2699-2.3575-5.7746-6.0488-6.2126c-3.2486-0.3855-6.5448,1.6107-8.4256,4.6708
			c-1.2449,2.0255-1.344,4.1271-1.3358,6.3458C51.3285,258.159,51.3133,264.5201,51.3133,271.4592z"/>
		<path class="st1" d="M34.6912,271.5356c-3.847,0-7.2114,0-11.0202,0c0-18.9782,0-37.7534,0-56.9218
			c3.417-1.1539,7.0161-0.136,11.0202-0.6284C34.6912,233.2755,34.6912,252.0479,34.6912,271.5356z"/>
		<path class="st0" d="M219.1865,233.466c3.793-0.2986,7.1442-0.5158,10.8026,0.1273c0,12.6331,0,24.9976,0,37.6849
			c-3.6509,0-6.9864,0-10.8026,0C219.1865,258.8706,219.1865,246.5115,219.1865,233.466z"/>
		<path class="st0" d="M231.7194,220.5091c-0.1939,3.5717-3.8036,6.9071-7.3112,6.7557c-3.3858-0.1462-6.0561-3.3503-5.8788-7.0541
			c0.1802-3.7648,2.8825-6.2473,6.6963-6.1516C228.9222,214.1519,231.9037,217.1133,231.7194,220.5091z"/>
	</g>
	<g>
		<path class="st0" d="M70.7962,120.4914c9.5957-20.2029,23.5562-32.7206,45.9322-35.7481
			c15.3805-2.081,30.7798-0.9403,46.1618-1.0104c10.9381-0.0499,15.8329,5.5913,15.8767,16.6856
			c0.0496,12.5818,0.1965,25.1672-0.0273,37.7452c-0.5307,29.8336-21.188,51.3902-44.3025,55.1258
			c-0.6523,0.1054-16.9037,3.3105-27.3832-0.7788c-18.35-7.1606-31.0798-18.5964-37.3119-37.2889
			C69.1799,153.5357,65.2667,132.1333,70.7962,120.4914z M162.0342,140.1059c1.7628-21.1162-19.1434-40.6184-39.0801-39.9583
			c-21.3658,0.7075-40.2993,17.8166-39.6813,38.8065c0.6617,22.4746,15.8681,39.3788,39.5367,39.9344
			C146.0341,179.4336,163.1769,159.3582,162.0342,140.1059z"/>
		<path class="st0" d="M211.7055,29.9413c3.1322,1.67,6.3959,3.1351,9.3723,5.0474c9.7634,6.2728,12.5407,15.7638,11.2055,26.6068
			c-1.2067,9.8003-7.0939,16.6608-15.8215,20.7171c-9.4082,4.3726-19.5706,2.781-29.3827,1.9713
			c-5.1743-0.4269-8.8848-4.8781-9.2673-9.9349c-0.5528-7.3087-1.2732-14.8054,0.5461-22.0808
			c2.5573-10.2266,7.854-18.1517,18.7748-21.0019c0.3668-0.0957,0.557-0.8681,0.8296-1.325
			C202.5435,29.9413,207.1245,29.9413,211.7055,29.9413z"/>
		<path class="st0" d="M114.5924,148.7818c-10.5229,1.1405-19.7182-8.7642-19.6436-19.0965
			c0.0754-10.4432,9.2185-19.3555,19.9839-18.9987c12.0304,0.3987,18.9742,8.4593,19.0488,18.8639
			C134.0587,140.3242,126.1942,149.5877,114.5924,148.7818z"/>
	</g>
</g>
</svg>
