<?xml version="1.0" encoding="utf-8"?>
<!-- Generator: Adobe Illustrator 26.1.0, SVG Export Plug-In . SVG Version: 6.00 Build 0)  -->
<svg version="1.1" id="Capa_1" xmlns="http://www.w3.org/2000/svg" xmlns:xlink="http://www.w3.org/1999/xlink" x="0px" y="0px"
	 viewBox="0 0 300 300" style="enable-background:new 0 0 300 300;" xml:space="preserve">
<style type="text/css">
	.st0{fill:#6AA453;}
	.st1{fill:#5B8EC2;}
</style>
<g>
	<path class="st0" d="M295.3158,141.8805c-0.7434-0.4167-1.4868-0.8363-2.2302-1.2503c-3.013-1.6755-6.0599-3.2834-9.1377-4.8349
		c-6.7216-3.3904-13.5784-6.4823-20.5732-9.2672c-7.1102-2.83-14.3359-5.3277-21.6798-7.4819
		c-6.5442-1.9205-13.156-3.5678-19.841-4.9279c-3.3735-0.6871-6.761-1.3038-10.1627-1.8529c-2.6498-0.428-5.308-0.811-7.9719-1.1489
		c-2.1063-0.2675-4.2154-0.5069-6.3302-0.7124c-1.9317-0.1887-3.8634-0.3633-5.798-0.5097
		c-1.7121-0.1295-3.4241-0.2422-5.1362-0.3379c-2.0218-0.1126-4.0465-0.1915-6.0711-0.2619
		c-1.3939-0.0507-2.785-0.0451-4.1788-0.0901c-2.081-0.0676-4.1647-0.0507-6.2485-0.0225c-2.2499,0.031-4.4998,0.0901-6.7498,0.1661
		c-1.7008,0.0563-3.4016,0.1408-5.0996,0.245c-2.1626,0.1324-4.3224,0.2675-6.4794,0.4703c-1.667,0.1577-3.3341,0.2844-4.9983,0.459
		c-2.2781,0.2365-4.5562,0.4984-6.8286,0.7997c-1.8388,0.245-3.6776,0.4984-5.5108,0.7772
		c-2.3626,0.3576-4.7195,0.7518-7.0708,1.1714c-3.0581,0.5463-6.1049,1.1489-9.1405,1.805
		c-6.6512,1.4389-13.2377,3.1313-19.7594,5.0799c-7.8198,2.3372-15.5129,5.0264-23.0737,8.0986
		c-8.0085,3.2552-15.8255,6.9103-23.3975,11.0891c-5.1644,2.8525-10.1936,5.9219-14.9807,9.377
		c-2.799,2.019-5.5051,4.1507-7.9888,6.5555c-0.7068,0.6843-1.3995,1.3882-2.0444,2.1317
		c-0.0901,0.1042-0.1887,0.2027-0.2731,0.2957c-0.1155-0.0225-0.1661-0.0929-0.2253-0.1521
		c-2.1119-2.1542-4.6773-3.5255-7.5551-4.3506c-1.5319-0.4393-3.0947-0.6955-4.6829-0.8307
		c-1.4896-0.1267-2.9821-0.1295-4.4717-0.0451c-1.729,0.0986-3.4439,0.3154-5.1334,0.7068
		c-0.0676,0.0141-0.1323,0.0422-0.2337-0.0141c0.4421-0.3661,0.8729-0.7237,1.3066-1.0757
		c8.1437-6.6259,16.6759-12.6998,25.6221-18.1937c6.6568-4.0887,13.5052-7.8311,20.545-11.2243
		c7.251-3.4946,14.6682-6.5977,22.2486-9.3123c7.5241-2.692,15.1666-4.987,22.9301-6.8849
		c4.5618-1.1151,9.1518-2.0922,13.7727-2.9286c3.1398-0.566,6.288-1.0785,9.4502-1.5206c2.2274-0.3097,4.4604-0.5885,6.6935-0.8448
		c2.1514-0.245,4.3084-0.4534,6.4654-0.6392c1.7233-0.1464,3.4495-0.2506,5.1757-0.3689c2.4273-0.1661,4.8603-0.2675,7.2932-0.352
		c4.1647-0.1464,8.3267-0.1774,12.4943-0.107c1.7853,0.031,3.5734,0.076,5.3587,0.1521c2.2077,0.0929,4.4126,0.2084,6.6174,0.3435
		c1.8106,0.1126,3.6185,0.2534,5.4263,0.4139c2.3682,0.2084,4.7307,0.4505,7.0905,0.7209c2.6949,0.3098,5.3869,0.6589,8.0704,1.0532
		c2.6695,0.3914,5.3334,0.8307,7.9888,1.3066c3.2777,0.5913,6.5442,1.239,9.7994,1.9514c4.3957,0.9602,8.7603,2.0359,13.0997,3.2214
		c6.7019,1.8304,13.3221,3.9254,19.8579,6.2823c6.7357,2.4301,13.3644,5.1306,19.8776,8.1042
		c9.1208,4.1648,17.9712,8.8364,26.5401,14.0458c1.8163,1.1038,3.6241,2.2161,5.3981,3.3847
		c0.6533,0.4308,1.346,0.7997,1.9373,1.3319L295.3158,141.8805z"/>
	<path class="st1" d="M94.4136,168.063c0,0.1661,0,0.3126,0,0.4618c0,4.6998,0,9.3996,0,14.0993
		c0,0.5744,0.0563,0.5322-0.5125,0.5322c-2.3513,0-4.6998,0-7.0511,0c-0.0986,0-0.1971-0.0028-0.2957-0.0028
		c-0.1408,0-0.2028-0.0704-0.2028-0.2084c0-0.0986,0-0.1971,0-0.2957c0-8.9068,0-17.8135,0-26.7203
		c0-0.5632-0.0394-0.5266,0.521-0.5266c2.3654,0,4.7279,0.0056,7.0933-0.0056c0.3013,0,0.4815,0.0957,0.6505,0.3464
		c2.9511,4.3534,5.9134,8.7012,8.8758,13.0518c0.3407,0.5012,0.6786,1.0025,1.0222,1.4981
		c0.0676,0.0986,0.1098,0.2253,0.2872,0.3069v-0.4674c0-4.6716,0-9.3432,0-14.0149c0-0.0986,0-0.1971,0-0.2957
		c0.0028-0.4139,0.0028-0.4168,0.4196-0.4168c2.4217,0,4.8406,0,7.2623,0c0.0704,0,0.1408,0.0028,0.2112,0
		c0.1352,0,0.2112,0.0563,0.2084,0.1999c0,0.0986,0,0.1971,0,0.2957c0,8.9209,0,17.8417,0,26.7626c0,0.0563,0,0.1126,0,0.169
		c-0.0113,0.3154-0.0113,0.3238-0.3379,0.3238c-2.4921,0-4.9814-0.0028-7.4735,0.0085c-0.2591,0-0.3717-0.1324-0.4956-0.3154
		c-1.2587-1.8501-2.5203-3.6973-3.779-5.5446c-2.0387-2.9849-4.0746-5.9726-6.1134-8.9575
		c-0.0676-0.0986-0.107-0.2253-0.2872-0.2844L94.4136,168.063z"/>
	<path class="st1" d="M197.8482,169.4371c-0.0113-2.1091,0.2112-4.0296,0.8391-5.8853c1.3404-3.9536,4.0127-6.5639,7.9719-7.8592
		c1.1658-0.383,2.371-0.5885,3.5931-0.6955c1.3911-0.1211,2.7821-0.1183,4.1704,0.0197c2.4386,0.2422,4.7561,0.8701,6.8089,2.2668
		c2.2471,1.529,3.7424,3.6185,4.5843,6.1894c0.4759,1.453,0.7012,2.9455,0.78,4.4717c0.1098,2.1908-0.0169,4.3619-0.6054,6.4794
		c-1.2756,4.604-4.2746,7.4875-8.8786,8.6956c-2.1007,0.5519-4.2492,0.6054-6.409,0.4534c-1.3235-0.0929-2.6245-0.29-3.9001-0.6505
		c-3.0159-0.8476-5.2968-2.6554-6.9272-5.3108c-0.9321-1.5206-1.4784-3.1792-1.7712-4.9307
		c-0.1887-1.1264-0.2703-2.2612-0.2562-3.2467L197.8482,169.4371z M218.0384,169.5413c0-1.9176-0.1126-2.9792-0.4224-4.0634
		c-0.5547-1.9373-1.7346-3.2834-3.7142-3.8381c-0.9039-0.2534-1.8275-0.2816-2.7568-0.1352
		c-1.3235,0.2084-2.4048,0.8335-3.2383,1.881c-0.7378,0.9292-1.0616,2.0303-1.2615,3.1764c-0.2478,1.422-0.2478,2.8525-0.1549,4.283
		c0.0648,0.9828,0.2337,1.9514,0.5773,2.8807c0.5238,1.4164,1.4474,2.4611,2.8497,3.0497c0.9518,0.3999,1.9571,0.4984,2.9793,0.4083
		c0.8335-0.076,1.6332-0.2788,2.3626-0.7096c1.2052-0.7124,1.912-1.7881,2.2781-3.1172c0.3858-1.3939,0.4872-2.8187,0.5012-3.8212
		L218.0384,169.5413z"/>
	<path class="st1" d="M144.737,169.2485c0-4.4464,0-8.8955,0-13.3419c0-0.5294-0.0507-0.5069,0.4984-0.5069
		c7.3327,0,14.6653,0,22.0008,0c0.0423,0,0.0845,0,0.1267,0c0.3604,0.0085,0.3633,0.0085,0.3661,0.3858c0,1.7036,0,3.4044,0,5.1081
		c0,0.4308,0,0.4337-0.4421,0.4337c-3.7311,0-7.4594,0-11.1905,0c-0.7885,0-1.5769,0-2.3654,0
		c-0.3801,0-0.3858,0.0056-0.3858,0.3576c0,1.2249,0,2.4499,0,3.672c0,0.3604,0.0056,0.3633,0.3801,0.3633
		c2.6329,0,5.263,0,7.8959,0c1.5206,0,3.0412,0,4.559,0c0.0986,0,0.1971,0.0056,0.2957,0c0.1633-0.0085,0.2281,0.0676,0.2225,0.2253
		c-0.0056,0.169,0,0.3379,0,0.5069c0,1.4784,0,2.9567,0,4.4323c0,0.0986-0.0028,0.1971,0,0.2957
		c0.0028,0.138-0.0535,0.2112-0.1971,0.2056c-0.1267-0.0028-0.2534,0-0.3801,0c-4.0549,0-8.107,0-12.162,0
		c-0.0986,0-0.1971,0-0.2957,0c-0.3069,0.0084-0.3182,0.0084-0.3182,0.2985c-0.0028,1.6332,0,3.2637-0.0056,4.8969
		c0,0.2281,0.0929,0.2985,0.3013,0.2816c0.1126-0.0084,0.2253,0,0.3379,0c4.5449,0,9.0926,0,13.6375,0
		c0.5744,0,0.5294-0.062,0.5294,0.5125c0,1.7459,0,3.4889,0,5.2348c0,0.0704,0,0.1408,0,0.2112
		c-0.0075,0.2103-0.1211,0.3182-0.3407,0.3238c-0.0845,0-0.169,0-0.2534,0c-7.4172,0-14.8343,0-22.2543,0
		c-0.6336,0-0.5632,0.0591-0.5632-0.566c0-4.4464,0-8.8955,0-13.3419L144.737,169.2485z"/>
	<path class="st1" d="M183.8531,154.9182c1.7515-0.0113,3.4776,0.1774,5.1644,0.673c2.6554,0.7772,4.635,2.4076,6.0542,4.7561
		c0.5491,0.9067,0.9687,1.8726,1.3319,2.8638c0.1239,0.3379,0.1183,0.3435-0.214,0.4167c-2.3316,0.521-4.6604,1.0391-6.9919,1.5657
		c-0.2168,0.0479-0.3041-0.0225-0.3661-0.214c-0.2168-0.673-0.4928-1.3122-0.9546-1.8642c-0.9011-1.0701-2.05-1.6501-3.4326-1.7599
		c-1.07-0.0845-2.1091,0.0788-3.0609,0.6026c-1.3883,0.7659-2.1936,1.9768-2.6104,3.4777
		c-0.2647,0.9546-0.3633,1.9345-0.4027,2.9173c-0.062,1.5206,0.0141,3.0356,0.3126,4.5336
		c0.1098,0.5519,0.2591,1.0954,0.4956,1.6079c0.7096,1.5347,1.9345,2.3738,3.5762,2.6245c0.9124,0.1408,1.8219,0.0845,2.7174-0.1577
		c0.9292-0.2506,1.6811-0.7631,2.2584-1.5347c0.7152-0.9518,1.1095-2.0444,1.4108-3.1792c0.0169-0.0676,0.0282-0.138,0.0422-0.2056
		c0.0366-0.1887,0.1211-0.2478,0.3266-0.183c0.8701,0.276,1.7487,0.5322,2.6216,0.7941c1.4249,0.4308,2.8525,0.8589,4.2774,1.2897
		c0.3689,0.1098,0.3717,0.1126,0.2731,0.4872c-0.4872,1.8698-1.2306,3.6156-2.4611,5.1334
		c-1.6163,1.9909-3.6917,3.2186-6.1978,3.7227c-1.8867,0.3802-3.7959,0.4139-5.7107,0.2844
		c-1.3376-0.0901-2.6526-0.29-3.9423-0.6561c-2.4104-0.6843-4.2774-2.1232-5.7755-4.1c-1.4446-1.9064-2.2809-4.0521-2.6216-6.4062
		c-0.1915-1.3263-0.2731-2.6582-0.2225-3.9958c0.0789-2.0612,0.3802-4.0859,1.1771-6.0092
		c1.3573-3.2693,3.7311-5.4657,7.0652-6.6231c1.2672-0.4393,2.5766-0.6786,3.9142-0.7941c0.6477-0.0563,1.2925-0.062,1.9373-0.0732
		L183.8531,154.9182z"/>
	<path class="st1" d="M129.0636,175.2295c0.1436-0.1295,0.1521-0.2957,0.1971-0.4365c1.9599-6.3387,3.9141-12.6773,5.8684-19.0159
		c0.1239-0.3999,0.1211-0.3999,0.5519-0.3999c2.5907,0,5.1785,0,7.7691,0c0.0704,0,0.1408-0.0028,0.2112,0
		c0.2675,0.0169,0.3013,0.0535,0.2084,0.3098c-0.2534,0.7012-0.5181,1.3967-0.78,2.095c-1.5572,4.1901-3.1144,8.3802-4.6716,12.5703
		c-1.5459,4.1647-3.0919,8.3295-4.6406,12.4914c-0.1239,0.3351-0.1267,0.3379-0.4815,0.3379c-2.8723,0-5.7417,0-8.6139,0.0056
		c-0.2563,0-0.3717-0.0929-0.459-0.3266c-1.5262-4.0662-3.0609-8.1296-4.5956-12.1929c-1.867-4.9448-3.7367-9.8895-5.6037-14.8343
		c-0.0253-0.0648-0.0535-0.1295-0.076-0.1971c-0.0704-0.2224-0.0535-0.2478,0.169-0.2647c0.0845-0.0056,0.169,0,0.2534,0
		c2.6611,0,5.3193,0,7.9803,0c0.0845,0,0.169,0.0056,0.2534,0c0.1661-0.0084,0.2591,0.0704,0.3069,0.2281
		c0.0817,0.2703,0.1718,0.535,0.2534,0.8054c1.0954,3.5002,2.188,7.0032,3.2806,10.5034c0.8251,2.6413,1.6529,5.2855,2.4808,7.9268
		c0.0394,0.1295,0.0873,0.2563,0.1352,0.3942H129.0636z"/>
	<path class="st1" d="M82.1587,169.2823c0,4.4463,0,8.8927,0,13.339c0,0.5857,0.0591,0.535-0.5519,0.535
		c-2.5062,0-5.0095,0-7.5157,0c-0.1126,0-0.2253,0-0.3379,0c-0.1352,0-0.2112-0.0591-0.2084-0.1999c0-0.0986,0-0.1971,0-0.2957
		c0-8.9209,0-17.8417,0-26.7626c0-0.0563,0-0.1126,0-0.169c0.0113-0.3154,0.0113-0.3238,0.3407-0.3238c2.647,0,5.2911,0,7.9381,0
		c0.3267,0,0.3267,0.0085,0.3351,0.3295c0.0028,0.0986,0,0.1971,0,0.2957c0,4.4182,0,8.8364,0,13.2546V169.2823z"/>
	<path class="st1" d="M167.1265,140.5345c0.0619,0.031,0.1211,0.0704,0.1887,0.0901c0.7575,0.2365,1.3094,0.7378,1.7909,1.3488
		c0.4027,0.5097,0.7575,1.0447,1.0503,1.6248c0.6927,1.3685,1.4051,2.7258,2.1091,4.0859c0.0648,0.1239,0.1211,0.2506,0.1718,0.3576
		c-0.0535,0.1323-0.1464,0.1098-0.2253,0.1098c-1.8304,0-3.6579-0.0056-5.4882,0.0085c-0.2703,0-0.3689-0.1436-0.4702-0.3323
		c-0.6617-1.2249-1.3207-2.4498-1.9852-3.6748c-0.3407-0.6308-0.6871-1.2587-1.0363-1.8867
		c-0.4562-0.8166-1.1658-1.1883-2.0894-1.1742c-0.321,0.0056-0.3323,0.0113-0.3323,0.3351c-0.0056,0.8729,0,1.7459,0,2.616
		c0,1.239,0,2.4752,0,3.7142c0,0.3886-0.0028,0.3942-0.397,0.3942c-1.5347,0-3.0666,0-4.6012,0
		c-0.3886,0-0.3942-0.0056-0.3942-0.4055c0-5.5164,0-11.03,0-16.5464c0-0.4139,0.0056-0.4167,0.4224-0.4167
		c3.0666,0,6.1359-0.0056,9.2025,0.0113c0.9264,0.0056,1.8529,0.0929,2.7596,0.3182c1.7571,0.4365,2.968,1.8022,3.2214,3.6016
		c0.1492,1.0701,0.0845,2.1091-0.397,3.0891c-0.6308,1.2841-1.667,2.095-3.0299,2.5034c-0.1549,0.0479-0.3126,0.0957-0.4674,0.1436
		c0,0.0282,0.0028,0.0563,0.0056,0.0845H167.1265z M160.8019,136.0656c0,0.4646-0.0028,0.9264,0,1.3911
		c0.0028,0.3407,0.0085,0.3435,0.3576,0.3464c0.6336,0.0028,1.2643,0.0028,1.8979,0c0.5378-0.0028,1.0616-0.1211,1.5713-0.2731
		c0.6533-0.1943,1.0503-0.7856,1.0503-1.5121c0-0.7885-0.3633-1.3207-1.0588-1.5403c-0.2816-0.0901-0.5716-0.1521-0.8673-0.1549
		c-0.8842-0.0085-1.7712-0.0113-2.6554-0.0113c-0.2872,0-0.2929,0.0113-0.2985,0.3182c-0.0056,0.4787,0,0.9546,0,1.4333
		L160.8019,136.0656z"/>
	<path class="st1" d="M148.8258,138.2254c1.2531,0,2.5062,0,3.7564,0c0.397,0,0.4027,0.0056,0.4027,0.397
		c0,2.2359,0,4.4745,0,6.7104c0,0.1746-0.0141,0.3238-0.1858,0.4365c-1.2644,0.8223-2.5569,1.591-3.9986,2.0697
		c-0.994,0.3295-2.0218,0.4956-3.0609,0.5575c-1.4756,0.0873-2.9483,0.0591-4.4041-0.29c-2.6667-0.6392-4.4295-2.2837-5.384-4.818
		c-0.5744-1.5234-0.7378-3.1032-0.6167-4.728c0.0986-1.3066,0.3717-2.5625,0.9743-3.7255c1.2052-2.3372,3.1369-3.7086,5.7191-4.1366
		c1.9008-0.3154,3.8156-0.29,5.7135,0.0113c2.5991,0.4111,4.1676,2.0162,4.911,4.4182c0.0789,0.2534,0.0479,0.2985-0.2534,0.352
		c-0.8279,0.1521-1.6586,0.2957-2.4893,0.4421c-0.7068,0.1239-1.4136,0.2394-2.1148,0.3773
		c-0.1774,0.0338-0.2478-0.0085-0.3126-0.1661c-0.5238-1.2812-1.5431-1.7937-2.8694-1.8135
		c-1.2981-0.0197-2.3654,0.4365-3.1144,1.5291c-0.4139,0.6054-0.6082,1.2981-0.7096,2.0134
		c-0.1858,1.3066-0.1605,2.6075,0.1464,3.8972c0.259,1.0926,0.8222,1.9683,1.8613,2.4724c0.811,0.3942,1.6755,0.4618,2.554,0.3633
		c0.9856-0.107,1.8642-0.5097,2.7146-0.9912c0.1549-0.0873,0.2197-0.1915,0.214-0.3689c-0.0113-0.3661-0.0141-0.7321,0-1.0982
		c0.0085-0.2253-0.0845-0.29-0.2957-0.2872c-0.8729,0.0084-1.7459,0.0028-2.6188,0.0028c-0.1267,0-0.2534,0.0028-0.3801,0
		c-0.3041-0.0084-0.3126-0.0113-0.3126-0.3041c-0.0028-0.9996-0.0056-1.9993,0-2.9961c0-0.3069,0.0169-0.3182,0.352-0.321
		c0.8307-0.0028,1.6614,0,2.4921,0c0.4365,0,0.8729,0,1.3094,0L148.8258,138.2254z"/>
	<path class="st1" d="M217.3063,130.507c1.3404-0.0225,2.6047,0.1267,3.8268,0.5519c2.5287,0.8814,4.1338,2.6385,4.8462,5.2066
		c0.4421,1.5938,0.459,3.2158,0.2788,4.849c-0.107,0.9715-0.3182,1.9148-0.7265,2.8018c-1.0419,2.264-2.8131,3.6635-5.2179,4.2154
		c-2.1429,0.4928-4.3027,0.4337-6.4231-0.1774c-2.3062-0.6646-3.8494-2.1964-4.7871-4.3647
		c-0.4505-1.0419-0.6505-2.1486-0.6955-3.2805c-0.0591-1.4249-0.0028-2.8385,0.4308-4.2154
		c0.8166-2.5907,2.5174-4.3084,5.1053-5.1334c1.1067-0.3548,2.2499-0.4872,3.3622-0.4562L217.3063,130.507z M220.9923,139.318
		c0.0225-0.597-0.0423-1.2249-0.1662-1.8472c-0.5463-2.7343-2.9004-3.2721-4.6491-2.7286c-1.2306,0.383-1.8951,1.3094-2.1852,2.5231
		c-0.3351,1.4023-0.3238,2.8159-0.0563,4.2267c0.1323,0.6983,0.3914,1.3517,0.8898,1.8839
		c0.7941,0.8448,1.7909,1.0926,2.9145,1.0194c1.4953-0.0957,2.6413-0.963,3.0074-2.6498c0.1718-0.7856,0.2562-1.5797,0.245-2.4245
		L220.9923,139.318z"/>
	<path class="st1" d="M178.3507,136.4176c0,1.6614,0,3.32,0,4.9814c0,0.3689,0.045,0.7293,0.1521,1.0813
		c0.276,0.9067,0.8701,1.4953,1.7769,1.7571c0.6758,0.1971,1.3629,0.1943,2.0415,0.0085c1.1573-0.321,1.8613-1.2475,1.9345-2.5287
		c0.0113-0.183,0.0085-0.3661,0.0085-0.5491c0-3.2918,0-6.5865,0-9.8783c0-0.5547-0.0479-0.5097,0.49-0.5097
		c1.4643,0,2.9286,0,4.3928,0c0.0845,0,0.1689,0.0028,0.2534,0c0.1549-0.0056,0.2393,0.0591,0.2393,0.2196
		c0,0.0986,0.0028,0.1971,0.0028,0.2957c0,3.1792,0.0085,6.3612-0.0028,9.5403c-0.0056,1.3601-0.1689,2.7005-0.8082,3.9282
		c-0.9377,1.7994-2.3766,2.9652-4.3788,3.396c-1.4305,0.3098-2.8723,0.321-4.3253,0.1999c-0.673-0.0563-1.346-0.1014-2.0049-0.2506
		c-2.5907-0.5857-4.1676-2.2021-4.8237-4.7477c-0.2393-0.9321-0.321-1.881-0.321-2.8413c0.0056-3.0384,0-6.0796,0-9.118
		c0-0.0986-0.0028-0.1971,0-0.2957c0.0113-0.3126,0.0197-0.3266,0.3435-0.3266c1.5628-0.0028,3.1257,0,4.6857,0
		c0.3379,0,0.3435,0.0056,0.3435,0.3576c0,1.76,0,3.5171,0,5.2771L178.3507,136.4176z"/>
	<path class="st1" d="M192.3487,139.4278c0-2.7286,0-5.4573,0-8.1887c0-0.459,0-0.459,0.4562-0.459c2.8272,0,5.6572,0,8.4844,0
		c0.8757,0,1.7402,0.0986,2.5766,0.3745c1.7966,0.5942,2.7793,1.8782,3.1003,3.7058c0.1521,0.8645,0.1521,1.7402-0.0197,2.6019
		c-0.4139,2.0979-1.6755,3.4101-3.7424,3.9507c-0.7659,0.1999-1.5459,0.2788-2.3372,0.2731c-0.9152-0.0028-1.8304,0-2.7427,0
		c-0.3717,0-0.3773,0.0056-0.3773,0.3745c0,1.8275,0,3.6579,0,5.4854c0,0.6927,0.0394,0.5998-0.6223,0.5998
		c-1.408,0.0028-2.8131,0-4.2211,0c-0.0986,0-0.1971-0.0056-0.2957,0c-0.1718,0.0084-0.2675-0.0535-0.2591-0.2394
		c0.0056-0.1126,0-0.2253,0-0.3379c0-2.7146,0-5.4291,0-8.1465L192.3487,139.4278z M197.7187,136.2571
		c0,0.5491,0.0028,1.0954,0,1.6445c0,0.1859,0.0563,0.2872,0.2647,0.2844c0.6871-0.0085,1.3798,0.0338,2.0612-0.0788
		c0.5069-0.0845,0.9856-0.2365,1.3404-0.6392c0.4815-0.5491,0.5604-1.1855,0.3435-1.8557c-0.2225-0.6927-0.735-1.0701-1.4418-1.2024
		c-0.7659-0.1436-1.5431-0.0676-2.3119-0.0901c-0.2168-0.0056-0.2563,0.1154-0.2563,0.2929
		C197.7187,135.1617,197.7187,135.708,197.7187,136.2571L197.7187,136.2571z"/>
	<path class="st0" d="M130.3815,149.0104c-0.0253-0.0338-0.0563-0.0648-0.0986-0.031c-0.4731,0.3717-0.8054,0.8307-0.8307,1.4502
		c-0.0197,0.4224-0.0056,0.8448-0.0056,1.2644c0,4.3055,0,8.6083,0,12.9138c0,0.4562,0,0.4562-0.4618,0.4477
		c-0.3295-0.0056-0.3182-0.0056-0.3154-0.3548c0.0113-1.5319,0.0169-3.0665,0.0253-4.5984c0.0085-1.4896,0-2.9821,0.0394-4.4717
		c0.0282-1.1264,0.0113-2.2499,0.0225-3.3763c0.0056-0.5322-0.0422-1.0672,0.0141-1.5994c0.0394-0.3689-0.0929-0.673-0.3548-0.9518
		c-0.8223-0.8814-1.4896-1.867-1.9064-3.0074c-0.535-1.4643-0.5266-2.9426-0.1295-4.4351c0.2506-0.9433,0.6561-1.8219,1.0644-2.7033
		c0.5716-1.2362,1.1742-2.4611,1.6191-3.7536c0.3126-0.9067,0.4872-1.8472,0.7237-2.7709c0.0197-0.0817,0.0253-0.1661,0.0788-0.2225
		c0.1239-0.031,0.1661,0.0563,0.2168,0.1126c1.7177,1.9092,2.8497,4.1141,3.227,6.6597c0.4928,3.3256-0.3154,6.302-2.5456,8.8589
		c-0.1211,0.138-0.245,0.2703-0.3633,0.4111c-0.0394,0.0451-0.1098,0.1014-0.0169,0.1661l0.0056-0.0056L130.3815,149.0104z"/>
	<path class="st0" d="M128.2751,150.8239c-1.132,0.3069-2.2527,0.4168-3.3988,0.3436c-1.3714-0.0873-2.6808-0.4477-3.9874-0.842
		c-1.1855-0.3576-2.3879-0.6336-3.6382-0.6533c-0.5913-0.0085-1.1799,0.0141-1.7571,0.1633
		c-0.0648,0.0169-0.138,0.0169-0.1971,0.0253c-0.0535-0.0957,0.0056-0.1436,0.0535-0.1887c0.9039-0.8729,1.867-1.6642,2.9933-2.2387
		c1.76-0.8983,3.5312-0.9039,5.3165-0.0817c0.9518,0.4365,1.8135,1.0137,2.6329,1.6586c0.6082,0.4787,1.1968,0.9799,1.76,1.5093
		c0.0788,0.076,0.183,0.1323,0.2225,0.3069V150.8239z"/>
	<path class="st0" d="M130.3758,149.016c0.169,0.0141,0.2365-0.1324,0.3407-0.2168c0.7012-0.5801,1.4586-1.0588,2.3485-1.2841
		c1.2249-0.3069,2.371-0.0817,3.4326,0.5829c0.6449,0.4027,1.2446,0.8701,1.76,1.4361c1.0306,1.1348,1.9711,2.3457,2.8553,3.5988
		c0.0619,0.0901,0.1464,0.1746,0.1521,0.2929c-0.0648,0.0732-0.1267,0.0225-0.1887,0c-1.2221-0.428-2.4949-0.6617-3.7536-0.9518
		c-1.0306-0.2365-2.0359-0.5378-2.9173-1.1573c-0.4872-0.3436-0.9321-0.7237-1.2531-1.2334
		c-0.0901-0.1408-0.1971-0.2731-0.3098-0.3999c-0.5407-0.6195-1.2165-0.8251-2.0134-0.6279
		c-0.1211,0.031-0.2422,0.0816-0.3633,0.0986c-0.1183,0.0169-0.0479-0.1014-0.0788-0.1492l-0.0056,0.0056L130.3758,149.016z"/>
	<path class="st1" d="M235.5366,130.8843c0.0788,1.9402-1.5403,3.8634-3.8888,3.8578c-2.1992-0.0028-3.962-1.7262-3.9479-3.8747
		c0.0141-2.1317,1.7656-3.8156,3.9648-3.81c2.4161,0.0056,3.9592,1.9852,3.8747,3.824L235.5366,130.8843z M231.6365,133.9086
		c1.4136,0.0422,2.9117-1.0166,2.9229-2.9933c0.0113-1.7937-1.2475-3.0694-2.9089-3.0722c-1.8332,0-2.9483,1.4586-2.9595,3.0299
		c-0.0113,1.7121,1.2756,3.0299,2.9426,3.0384L231.6365,133.9086z"/>
	<path class="st0" d="M295.5721,142.01c0.0563,0.0282,0.1126,0.0535,0.1689,0.0817l0,0c-0.0535-0.0282-0.1098-0.0563-0.1633-0.0845
		l-0.0056,0.0056V142.01z"/>
	<polygon class="st0" points="295.5749,142.0044 295.558,141.9931 295.5721,142.01 	"/>
	<path class="st1" d="M232.577,130.9857c0.7603,0.4139,0.6251,1.2052,0.8842,1.8529c-0.2957,0.0817-0.5463,0.0366-0.7941,0.0451
		c-0.1408,0.0056-0.1943-0.1014-0.2281-0.2112c-0.0732-0.2422-0.1352-0.4872-0.1999-0.7293
		c-0.1323-0.4872-0.6139-0.7434-1.0841-0.5773c-0.1323,0.0451-0.107,0.1521-0.107,0.2422c-0.0056,0.3238,0,0.6449-0.0028,0.9687
		c-0.0056,0.2985-0.0085,0.3069-0.3069,0.3069c-0.6927,0-0.5913,0.062-0.5942-0.5688c-0.0056-0.9687-0.0028-1.9374,0-2.906
		c0-0.3689,0.0085-0.3717,0.3717-0.4055c0.6279-0.0591,1.2587-0.1267,1.8867,0.0056c0.4055,0.0873,0.735,0.2619,0.8673,0.6983
		c0.1408,0.4675,0.0197,0.8223-0.3914,1.087c-0.0479,0.031-0.1014,0.0507-0.1464,0.0788c-0.045,0.0282-0.0873,0.0648-0.1493,0.1098
		L232.577,130.9857z M231.0564,130.1353c0,0.1267,0,0.2534,0,0.3802c0,0.0901,0.0282,0.1746,0.1323,0.1774
		c0.3097,0.0141,0.6195,0.0366,0.9067-0.1211c0.1633-0.0901,0.2393-0.2281,0.2422-0.4139c0.0028-0.3464-0.2309-0.5435-0.6927-0.5716
		c-0.5829-0.0338-0.5913-0.0253-0.5913,0.5463L231.0564,130.1353z"/>
</g>
</svg>
