<?xml version="1.0" encoding="utf-8"?>
<!-- Generator: Adobe Illustrator 26.1.0, SVG Export Plug-In . SVG Version: 6.00 Build 0)  -->
<svg version="1.1" id="Capa_1" xmlns="http://www.w3.org/2000/svg" xmlns:xlink="http://www.w3.org/1999/xlink" x="0px" y="0px"
	 viewBox="0 0 300 300" style="enable-background:new 0 0 300 300;" xml:space="preserve">
<style type="text/css">
	.st0{fill:#1E549D;}
</style>
<g>
	<g>
		<path class="st0" d="M163.8853,69.8488c-1.4344,2.8575-2.6181,5.6383-4.1597,8.2037c-3.881,6.4582-9.6207,11.2528-14.9534,16.4194
			c-3.0679,2.9724-6.122,6.0197-8.7568,9.3685c-10.6393,13.5227-4.8417,32.8385,10.2026,40.0335
			c17.0859,8.1714,37.7436-2.3955,40.8076-21.0407c1.035-6.2984,0.0067-12.4304-2.9151-18.0519
			c-3.2472-6.2476-7.0043-12.2277-10.3686-18.4172c-1.9035-3.5021-3.5462-7.1553-5.1287-10.8174
			c-0.4752-1.0996-0.3517-2.4583-0.5168-3.8154c11.6217,1.303,26.3184,20.6533,28.5815,36.3802
			c3.0818,21.4156-8.7508,43.4208-30.1516,51.6681c-20.8987,8.0538-44.122,0.8301-56.8917-17.5877
			c-12.365-17.8342-10.7798-42.6886,3.4921-58.857C128.183,66.2778,151.2714,64.3674,163.8853,69.8488z"/>
		<path class="st0" d="M107.9912,222.4858c3.0359,3.6328,5.7973,6.9373,8.8905,10.6386c-1.3035,0.2339-2.0025,0.4612-2.7037,0.468
			c-3.6169,0.0352-7.2352-0.0369-10.8511,0.0327c-1.9322,0.0372-3.4518-0.6339-4.1303-2.4189
			c-1.8701-4.9195-5.4991-6.3335-10.5499-6.8195c-9.2206-0.8872-15.3032-6.8893-16.8997-16.0204
			c-1.3439-7.6866-0.432-15.2338,3.1422-22.2591c3.0793-6.0524,8.0353-10.0585,14.4321-12.2702
			c6.1726-2.1342,12.4727-2.4918,18.8539-1.1537c8.5571,1.7943,13.7125,6.8653,14.9644,15.4958
			c1.0639,7.335,0.5921,14.6289-2.5791,21.5508c-2.132,4.6536-5.2638,8.3442-9.7307,10.8816
			C110.0199,221.0715,109.2697,221.6367,107.9912,222.4858z M85.6489,203.4572c0.3909,1.443,0.8452,4.1835,1.8837,6.6806
			c1.2619,3.0343,4.4258,4.5929,7.7057,4.277c3.8624-0.3721,7.3085-1.8167,9.5546-5.0399
			c4.4949-6.4505,5.6889-13.6418,3.6207-21.2043c-0.9432-3.4489-3.6193-5.2498-7.2346-5.4714
			c-5.665-0.3472-9.6789,2.3081-12.3913,7.0696C86.6161,193.5807,86.0446,197.8381,85.6489,203.4572z"/>
		<path class="st0" d="M283.4238,172.5695c1.5311,3.4197,8.7758,48.9253,8.2006,51.4879c-4.2168,0-8.4958,0-13.0198,0
			c-0.6509-3.5093-1.2489-6.7328-1.844-9.9412c-0.934-0.2485-1.56-0.5549-2.1886-0.5602
			c-5.0439-0.0433-10.0885-0.0158-15.1327-0.0409c-1.8616-0.0093-2.9592,0.9833-3.7882,2.5353
			c-1.4293,2.6758-2.9369,5.3096-4.4421,8.0159c-4.9858,0-9.7467,0-15.0888,0c0.6665-1.3932,1.0282-2.3266,1.5318-3.1758
			c8.9864-15.1538,18.0257-30.2764,26.9507-45.4662c1.306-2.2228,2.8048-3.3439,5.4518-3.2064
			c3.4175,0.1775,6.8513,0.0214,10.2775,0.0588C281.3561,172.2878,282.3785,172.4658,283.4238,172.5695z M275.2989,202.0531
			c-0.5663-5.5053-1.0735-10.8078-2.5696-16.0414c-3.2014,5.267-6.3775,10.3756-9.1797,16.2714
			C267.7423,202.7254,271.2513,202.941,275.2989,202.0531z"/>
		<path class="st0" d="M165.0314,172.5266c4.6688,0,9.0704,0,13.834,0c-0.1241,1.2774-0.132,2.2933-0.3317,3.2699
			c-1.7941,8.7755-3.4461,17.586-5.5166,26.2965c-0.9824,4.1329-2.5089,8.197-4.285,12.064
			c-1.9876,4.3275-5.5802,7.2201-10.1259,8.7126c-7.3182,2.4027-14.7225,3.111-22.1225,0.3855
			c-5.9405-2.1879-8.9739-6.7023-9.1004-12.8932c-0.0751-3.6762,0.3714-7.4155,1.0362-11.0433
			c1.3736-7.496,3.0404-14.9384,4.6105-22.3978c0.2896-1.3761,0.6919-2.7284,1.103-4.3285c4.5759,0,8.9519,0,13.7675,0
			c-0.2077,1.7475-0.2772,3.1365-0.5486,4.4849c-1.7108,8.5006-3.5407,16.978-5.1582,25.496
			c-0.4383,2.3081-0.4294,4.7348-0.3502,7.0979c0.0745,2.2238,1.442,3.6261,3.5737,4.3138c3.5441,1.1434,7.786-0.0567,9.8386-3.3221
			c1.3412-2.1336,2.3931-4.5925,2.9554-7.0478c2.0418-8.9147,3.8138-17.8912,5.7111-26.8394
			C164.2126,175.4069,164.6265,174.0644,165.0314,172.5266z"/>
		<path class="st0" d="M196.9693,221.9344c1.1154-3.423,2.1504-6.5995,3.189-9.7871c3.2165,0.7895,5.9375,1.824,8.7226,2.0429
			c3.079,0.2421,6.2366-0.1115,9.319-0.5172c1.2262-0.1614,2.4981-0.9763,3.4766-1.813c2.077-1.7761,2.1039-4.0683,0.0881-5.915
			c-1.1055-1.0127-2.435-1.8295-3.7698-2.5326c-3.0312-1.5969-6.1309-3.0634-9.1977-4.5932
			c-3.1765-1.5846-4.7279-4.202-5.1459-7.6986c-0.847-7.0844,2.6638-13.4387,9.2096-16.5367
			c4.0543-1.9188,8.4247-2.7076,12.7731-2.612c4.8136,0.1058,9.6105,1.0538,14.4083,1.6839
			c0.5277,0.0693,1.0134,0.4597,2.0168,0.9394c-0.9876,3.302-1.9695,6.585-3.0325,10.1394
			c-1.3253-0.3523-2.2287-0.5365-3.0942-0.8321c-3.8678-1.3211-7.844-1.4209-11.8567-1.0858
			c-0.6565,0.0548-1.3147,0.2323-1.9443,0.438c-1.7847,0.5832-3.3909,1.4227-3.6996,3.5249
			c-0.3071,2.0912,1.1786,3.102,2.6741,3.9831c1.4733,0.8681,3.0222,1.6109,4.5578,2.3681c0.8527,0.4204,1.744,0.7633,2.6217,1.132
			c5.6311,2.3654,9.8045,5.6781,9.5579,12.6545c-0.2655,7.511-3.4587,12.7982-10.0647,15.4862
			c-5.1153,2.0814-10.5395,2.7201-15.9721,2.4652c-3.9655-0.1861-7.9009-1.1099-11.8356-1.7866
			C199.0825,222.9294,198.2524,222.4373,196.9693,221.9344z"/>
		<path class="st0" d="M27.4775,221.6394c1.0085-3.1861,2.0161-6.3692,3.1049-9.8088c1.3771,0.4682,2.2559,0.7541,3.1256,1.0649
			c4.5771,1.6359,9.2345,2.2313,14.0141,1.0358c0.917-0.2294,1.8458-0.5087,2.6865-0.9301c3.8311-1.9205,4.2157-5.2374,0.809-7.8075
			c-1.5799-1.1919-3.4047-2.0728-5.1652-3.0063c-1.4268-0.7566-2.9374-1.353-4.3869-2.0689
			c-7.3583-3.6339-9.5596-9.1623-6.7238-16.9326c1.3759-3.7701,4.0687-6.332,7.5454-8.2097
			c4.4126-2.3832,9.2578-3.0902,14.0894-3.0367c4.4312,0.049,8.8561,0.9709,13.2744,1.5771
			c0.7116,0.0976,1.3741,0.5547,2.3053,0.9501c-0.2791,3.6103-1.6553,6.7611-3.0499,10.1814
			c-1.3253-0.36-2.3858-0.8057-3.4802-0.9165c-3.6642-0.371-7.3372-0.7627-11.0137-0.8454
			c-1.3395-0.0301-2.8235,0.5673-4.0215,1.2598c-2.4766,1.4316-2.6375,4.1713-0.2796,5.8067
			c1.9371,1.3436,4.1349,2.3199,6.2497,3.3947c1.9486,0.9903,4.0114,1.7722,5.8983,2.8635
			c3.6426,2.1066,5.5712,5.2423,5.6419,9.5818c0.1571,9.649-4.1217,15.3813-13.5129,17.7728
			c-8.3278,2.1208-16.5976,1.566-24.8207-0.6258c-0.3656-0.0975-0.7281-0.2301-1.0669-0.3974
			C28.4516,222.4192,28.2436,222.2126,27.4775,221.6394z"/>
		<path class="st0" d="M189.4959,224.0578c-4.3747,0-8.6773,0-13.332,0c0.1001-1.3695,0.064-2.3919,0.2628-3.3662
			c2.3409-11.4738,4.7316-22.9374,7.0748-34.4108c0.6841-3.3495,2.5794-5.904,5.1115-8.031
			c3.2968-2.7693,6.9492-4.8401,11.258-5.598C200.4791,174.9195,191.1506,221.0166,189.4959,224.0578z"/>
		<path class="st0" d="M19.8334,224.0701c-4.2113,0-8.5897,0-13.3317,0c0.1316-1.4572,0.1266-2.5741,0.3455-3.6453
			c2.2709-11.1104,4.5412-22.2212,6.8884-33.3156c1.4296-6.7569,9.0278-13.5627,15.8256-14.308
			c0.2559-0.0281,0.5327,0.136,0.7789,0.2047C30.7473,175.3963,21.463,220.8716,19.8334,224.0701z"/>
		<path class="st0" d="M166.6907,143.2629c-4.8355,1.6553-9.8039,1.7268-14.6996,0.3027
			c-18.2002-5.294-24.4051-27.4696-11.7989-41.659c3.4265-3.8568,7.2636-7.1885,11.2423-10.3921
			c0.1877,0.1517,0.3755,0.3034,0.5632,0.4551c-0.7007,0.9081-1.3754,1.8377-2.1062,2.7208
			c-4.8016,5.8016-8.5715,12.1203-10,19.6456c-2.7392,14.4295,8.3266,28.0486,22.9651,28.2374
			c1.2795,0.0165,2.5595,0.0022,3.8392,0.0022C166.694,142.8048,166.6924,143.0338,166.6907,143.2629z"/>
	</g>
</g>
</svg>
