<?xml version="1.0" encoding="utf-8"?>
<!-- Generator: Adobe Illustrator 26.1.0, SVG Export Plug-In . SVG Version: 6.00 Build 0)  -->
<svg version="1.1" id="Capa_1" xmlns="http://www.w3.org/2000/svg" xmlns:xlink="http://www.w3.org/1999/xlink" x="0px" y="0px"
	 viewBox="0 0 300 300" style="enable-background:new 0 0 300 300;" xml:space="preserve">
<style type="text/css">
	.st0{fill-rule:evenodd;clip-rule:evenodd;fill:#009540;}
	.st1{fill-rule:evenodd;clip-rule:evenodd;fill:#EE7D00;}
	.st2{fill-rule:evenodd;clip-rule:evenodd;fill:#1D1D1B;}
</style>
<g>
	<path class="st0" d="M122.8664,33.1886c33.7374,26.7664,39.6347,56.5477,36.5431,86.2417
		c47.2618,2.0705,51.4038,41.0494,85.1455,33.9846c-59.6872,56.763-68.2143-23.1436-115.4757-8.404
		C141.6138,83.1667,132.0702,58.4626,122.8664,33.1886L122.8664,33.1886z"/>
	<path class="st1" d="M132.7338,47.8056c67.9691-23.6321,111.0577,23.0573,68.6681,83.4752
		c-9.7844-6.4581-16.6499-10.4615-26.7842-12.5692C198.1272,73.8847,177.1935,38.5483,132.7338,47.8056L132.7338,47.8056z"/>
	<path class="st1" d="M123.2323,57.3067c-87.5486,26.0641-77.5166,159.7071,45.7029,103.0518
		c-5.6627-5.7935-20.6355-14.0316-27.9261-13.2604c-6.0764,0.6424-8.3385,2.0005-11.589,2.0623
		C94.3447,149.8405,81.2079,94.7016,123.2323,57.3067L123.2323,57.3067z"/>
	<polygon class="st2" points="16.2296,266.8114 16.2296,192.2794 34.2772,192.2794 34.2772,253.2774 74.6167,253.2774 
		74.6167,266.8114 16.2296,266.8114 	"/>
	<polygon class="st2" points="85.9971,266.8114 85.9971,191.6669 103.6122,191.6669 103.6122,266.8114 85.9971,266.8114 	"/>
	<path class="st2" d="M121.6126,191.6669h35.8186c6.8943,0,12.1531,0.473,15.7802,1.4354
		c17.1334,4.5449,23.5737,20.9767,23.5737,36.864c0,10.8404-3.4624,21.8555-11.8703,29.2514
		c-2.906,2.5569-6.8158,4.571-11.7608,6.002c-3.6879,1.068-8.6358,1.5917-14.8343,1.5917h-36.7071V191.6669L121.6126,191.6669z
		 M140.0916,205.6893v48.4559h15.9689c4.6729,0,4.1492-0.2389,6.2351-0.7177c11.4722-2.628,16.7498-14.3091,16.7498-24.1437
		c0-10.4538-5.9634-20.4332-18.1223-22.8773c-2.3369-0.4691-3.015-0.7172-9.8448-0.7172H140.0916L140.0916,205.6893z"/>
	<path class="st2" d="M283.7704,266.8114h-19.0089l-7.5523-17.0756h-34.5729l-7.1289,17.0756h-18.5269l33.6893-75.1445h18.4655
		L283.7704,266.8114L283.7704,266.8114z M251.6126,237.0866l-11.9215-27.8885l-11.6782,27.8885H251.6126L251.6126,237.0866z"/>
</g>
</svg>
