<?xml version="1.0" encoding="utf-8"?>
<!-- Generator: Adobe Illustrator 26.1.0, SVG Export Plug-In . SVG Version: 6.00 Build 0)  -->
<svg version="1.1" id="Capa_1" xmlns="http://www.w3.org/2000/svg" xmlns:xlink="http://www.w3.org/1999/xlink" x="0px" y="0px"
	 viewBox="0 0 300 300" style="enable-background:new 0 0 300 300;" xml:space="preserve">
<style type="text/css">
	.st0{fill:#45AA36;}
	.st1{fill:#67736D;}
</style>
<g>
	<path class="st0" d="M72.4125,114.981c0.0518,0.0966,0.1502,0.0896,0.2383,0.1098c2.3472,0.5384,3.899,2.4392,3.9557,4.8459
		c0.007,0.2958,0.0083,0.5918,0.0083,0.8877c0.0004,17.3117,0.0007,34.6233-0.0009,51.935
		c-0.0001,0.7914,0.1001,0.6952-0.7197,0.6955c-2.4264,0.001-4.8528-0.0134-7.279-0.0007c-0.3825,0.002-0.655-0.115-0.9298-0.3731
		c-6.3912-6.0013-13.1443-11.5557-20.4537-16.4151c-5.8947-3.9189-12.0357-7.3808-18.6844-9.8783
		c-1.0366-0.3894-2.0988-0.7131-3.1577-1.0393c-0.1588-0.0489-0.4236-0.2807-0.5233-0.0284
		c-0.103,0.2607,0.2346,0.2734,0.4004,0.3465c2.012,0.8874,4.0104,1.8039,5.9818,2.7778
		c8.7956,4.3448,17.0377,9.5352,24.4226,16.021c3.8755,3.4036,7.475,7.0681,10.4467,11.3089
		c0.2124,0.3031,0.3067,0.6017,0.3045,0.9715c-0.0134,2.2749-0.0154,4.5499,0.0012,6.8247
		c0.0028,0.3861-0.0566,0.5359-0.5009,0.5355c-14.8547-0.0135-29.7094-0.0076-44.564-0.0153
		c-2.5087-0.0013-4.4536-1.6257-4.9621-4.0812c-0.0202-0.0974,0.0316-0.2304-0.1182-0.2736c0-18.1294,0-36.2588,0-54.3882
		c0.1843-0.0116,0.3685-0.0328,0.5529-0.0332c2.4823-0.0054,4.9647,0.0059,7.4467-0.023c0.4729-0.0055,0.5715,0.1286,0.5701,0.582
		c-0.0164,5.5679-0.0114,11.1358-0.0092,16.7037c0.0002,0.4419-0.1358,0.9911,0.0745,1.2958
		c0.2166,0.3138,0.8155,0.2005,1.2472,0.2706c5.4978,0.8927,10.8012,2.4777,15.9882,4.4756
		c8.8654,3.4147,17.208,7.8559,25.2718,12.844c0.197,0.1219,0.3702,0.3013,0.6583,0.3282c0-0.1427,0-0.2686,0-0.3945
		c0.0001-11.7092,0.0032-23.4185-0.0025-35.1277c-0.001-2.1012-1.5254-3.6239-3.6494-3.65
		c-2.1297-0.0262-4.2598-0.0265-6.3897-0.0269c-10.2256-0.0019-20.4513-0.0001-30.6769,0.0004c-0.1482,0-0.297-0.0088-0.4445,0.0017
		c-0.224,0.016-0.3366-0.0469-0.3349-0.3031c0.017-2.57,0.0247-5.1401,0.035-7.7102C41.8815,114.981,57.147,114.981,72.4125,114.981
		z M24.9026,147.0878c-0.1434,0.4544-0.0072,0.6579,0.2926,0.8283c0.4173,0.2371,0.8134,0.5129,1.2104,0.784
		c5.0194,3.4275,9.4994,7.4937,13.845,11.7132c5.2096,5.0585,10.1394,10.3809,14.8775,15.8811
		c0.1284,0.149,0.2203,0.3473,0.4691,0.3462c0.8809-0.0038,1.7618-0.0015,2.7762-0.0015
		C48.8482,164.8278,37.6425,155.1367,24.9026,147.0878z M44.8957,176.6397c-5.8413-9.6135-12.4702-18.4783-20.0418-26.7992
		c-0.0359,1.1572-0.0395,1.1602,0.2213,1.4777c6.3246,7.702,11.912,15.8743,15.9973,25.0047
		c0.0776,0.1735,0.148,0.3228,0.3885,0.3208C42.5673,176.6346,43.6736,176.6397,44.8957,176.6397z M24.8652,153.705
		c-0.0696,1.1332,0.0157,2.0621,0.4778,3.0182c2.8392,5.8744,5.1735,11.9413,6.7316,18.2897
		c0.1304,0.5313,0.0762,1.2408,0.4684,1.5393c0.3952,0.3008,1.0726,0.0458,1.6228,0.0942c0.4379,0.0386,0.4728-0.1032,0.3544-0.4933
		c-1.7109-5.638-3.7664-11.1424-6.3555-16.441C27.1786,157.694,26.1162,155.717,24.8652,153.705z M27.3573,176.3923
		c-0.3832-5.2996-1.123-10.5326-2.4763-15.6704c-0.0427,4.254-0.0604,8.5028-0.0321,12.7513
		C24.8575,174.7701,26.0928,176.1476,27.3573,176.3923z"/>
	<path class="st1" d="M145.526,146.7054c-0.0001,3.5509,0.0049,7.1018-0.0023,10.6527c-0.0033,1.6488-0.142,3.2854-0.5613,4.887
		c-0.9827,3.753-3.4026,6.08-7.109,7.1234c-2.884,0.8119-5.8317,0.9616-8.8046,0.8283c-1.9836-0.089-3.94-0.3465-5.8442-0.9411
		c-4.0629-1.2687-6.2731-4.1014-6.9914-8.2087c-0.2237-1.2793-0.3-2.5695-0.3006-3.8643
		c-0.0041-7.7307,0.0033-15.4613-0.0139-23.1919c-0.0012-0.5247,0.1186-0.6932,0.6656-0.6807
		c1.629,0.0373,3.2599,0.0351,4.889,0.0004c0.5053-0.0108,0.6093,0.1456,0.6083,0.6231
		c-0.0148,7.3422-0.0108,14.6845-0.0093,22.0268c0.0003,1.2575,0.0374,2.5108,0.2593,3.7559
		c0.453,2.5414,1.3723,3.595,3.8929,4.1274c3.0223,0.6383,6.0594,0.5754,9.0985,0.0134c2.2802-0.4216,3.4371-1.8232,3.81-4.0285
		c0.2201-1.3011,0.2855-2.6089,0.2868-3.921c0.0071-7.3053,0.0086-14.6106-0.009-21.9158
		c-0.0013-0.5195,0.1031-0.6968,0.6594-0.6828c1.6103,0.0404,3.2226,0.0325,4.8334,0.0036
		c0.4924-0.0088,0.6583,0.1018,0.6554,0.6318C145.5158,138.1979,145.5261,142.4517,145.526,146.7054z"/>
	<path class="st1" d="M170.7439,170.3304c-9.058-0.0023-16.1284-5.5288-17.9827-14.1652
		c-1.2755-5.9408-0.4881-11.6149,3.3238-16.5713c3.2572-4.2352,7.6202-6.5022,12.9667-6.8689
		c4.6776-0.3208,8.9606,0.7496,12.7412,3.5872c1.9058,1.4305,3.4004,3.2284,4.6349,5.2549
		c0.1536,0.2522,0.1064,0.3644-0.1188,0.5251c-1.5062,1.0747-3.0102,2.1529-4.4953,3.2562
		c-0.3472,0.2579-0.4475,0.1199-0.5916-0.1822c-0.8005-1.6774-1.884-3.1288-3.3975-4.2426
		c-6.2284-4.5834-16.9212-2.5786-19.0174,7.4875c-0.6945,3.3353-0.3959,6.6301,1.222,9.7087
		c2.2761,4.331,6.9155,6.7117,11.7845,6.1965c4.5093-0.4771,7.5879-2.9288,9.752-6.7417c0.2096-0.3693,0.4138-0.7431,0.595-1.1268
		c0.1246-0.2638,0.23-0.3144,0.4843-0.1201c1.4409,1.1007,2.889,2.1923,4.3493,3.2671c0.2616,0.1926,0.2408,0.3426,0.1145,0.591
		c-2.8361,5.5799-7.3108,8.9359-13.5198,9.9291C172.5833,170.2758,171.5629,170.3119,170.7439,170.3304z"/>
	<path class="st1" d="M220.8484,169.0663c-0.7965,0-1.5937-0.0185-2.3893,0.0084c-0.3526,0.0119-0.5179-0.1128-0.6537-0.4328
		c-1.1755-2.7697-2.3749-5.5293-3.5486-8.2998c-0.1378-0.3252-0.3059-0.426-0.6532-0.4251c-4.6866,0.0121-9.3733,0.0127-14.0599,0
		c-0.3554-0.001-0.512,0.1169-0.6443,0.437c-1.1356,2.7466-2.2975,5.4823-3.4292,8.2304c-0.1499,0.364-0.325,0.4984-0.7256,0.4919
		c-1.5556-0.0251-3.1123-0.0284-4.6678,0c-0.5175,0.0094-0.5185-0.1298-0.3432-0.5487c4.6824-11.188,9.3528-22.381,14.0288-33.5717
		c0.2616-0.626,0.343-1.4896,0.8634-1.7993c0.4951-0.2947,1.2943-0.0824,1.9599-0.0883c0.4816-0.0042,0.9669,0.0359,1.4438-0.0111
		c0.4551-0.0448,0.6327,0.1465,0.8005,0.5452c4.6119,10.9576,9.2385,21.909,13.8623,32.8615
		c0.3087,0.7313,0.6006,1.4702,0.9279,2.1932c0.1497,0.3306,0.0756,0.4194-0.2713,0.4137
		C222.5158,169.0571,221.682,169.0663,220.8484,169.0663z M211.6063,153.9343c-1.671-3.9272-3.3239-7.812-5.0338-11.8305
		c-1.7014,4.0356-3.3367,7.9146-4.9877,11.8305C204.9584,153.9343,208.2478,153.9343,211.6063,153.9343z"/>
	<path class="st1" d="M280.6546,169.066c-0.7965,0.0001-1.5938-0.0195-2.3893,0.0091c-0.3562,0.0128-0.519-0.1193-0.6532-0.4351
		c-1.1704-2.7523-2.3664-5.4937-3.5264-8.2504c-0.1578-0.3749-0.3475-0.4732-0.7304-0.4722
		c-4.6496,0.0123-9.2993,0.0133-13.9489-0.0021c-0.3985-0.0013-0.5685,0.1263-0.7184,0.4902
		c-1.125,2.7308-2.2839,5.4477-3.4116,8.1774c-0.1486,0.3597-0.3208,0.5005-0.7237,0.4938
		c-1.5742-0.026-3.1492-0.0258-4.7234-0.0016c-0.4632,0.0071-0.4632-0.1279-0.3106-0.4929
		c4.8908-11.7002,9.775-23.4031,14.6525-35.1088c0.1244-0.2986,0.272-0.4221,0.6094-0.4144
		c1.0368,0.0238,2.0752,0.0304,3.1116-0.0024c0.4055-0.0128,0.5729,0.1378,0.7229,0.4945
		c3.177,7.5556,6.3667,15.1059,9.5549,22.6569c1.7305,4.0986,3.4631,8.1964,5.1936,12.295
		c0.2356,0.5579,0.2324,0.5609-0.3749,0.5622C282.2107,169.0672,281.4326,169.0659,280.6546,169.066z M266.3805,142.0988
		c-1.6482,3.9136-3.2315,7.6871-4.8315,11.4535c-0.1834,0.4318,0.0372,0.405,0.3322,0.4046
		c3.0352-0.0041,6.0705-0.002,9.1057-0.0051c0.1204-0.0001,0.2551,0.0462,0.3952-0.0915
		C269.7379,149.9939,268.0885,146.1152,266.3805,142.0988z"/>
	<path class="st1" d="M236.5452,159.0543c0.7034-1.698,1.3798-3.3302,2.0555-4.9625c2.8312-6.8393,5.666-13.6771,8.4836-20.522
		c0.1604-0.3896,0.3535-0.5085,0.7676-0.5024c1.757,0.0256,3.5145,0.0109,5.2586,0.0109c0.0861,0.2164-0.0367,0.358-0.0976,0.5041
		c-4.8604,11.6731-9.7271,23.3437-14.5793,35.0203c-0.1611,0.3877-0.3501,0.5352-0.7683,0.517
		c-0.758-0.0331-1.5196-0.0331-2.2776,0.0003c-0.4004,0.0177-0.5741-0.1289-0.7241-0.4919
		c-3.9411-9.5365-7.8953-19.0676-11.8472-28.5997c-0.8908-2.1486-1.7726-4.3009-2.6795-6.4427
		c-0.1778-0.4199-0.1238-0.5248,0.3466-0.5172c1.5927,0.0256,3.1862,0.0246,4.7789-0.0006
		c0.3969-0.0063,0.5754,0.1249,0.7237,0.4843c3.4152,8.2756,6.8425,16.5462,10.2679,24.8176
		C236.3384,158.5734,236.4265,158.7755,236.5452,159.0543z"/>
	<path class="st1" d="M83.4548,150.941c-0.0006-5.8263,0.006-11.6526-0.0121-17.4789c-0.0016-0.5039,0.1199-0.6536,0.6364-0.6425
		c1.6293,0.0348,3.2601,0.0324,4.8895,0.0005c0.4777-0.0094,0.5685,0.1396,0.5679,0.5878
		c-0.0134,9.692-0.0054,19.3839-0.0231,29.0759c-0.001,0.5442,0.1083,0.6991,0.6827,0.6971
		c6.8163-0.0233,13.6328-0.0083,20.4492-0.0276c0.5275-0.0015,0.642,0.1579,0.6331,0.6495
		c-0.0288,1.5901-0.0225,3.1813-0.0029,4.7717c0.0049,0.3952-0.0784,0.5448-0.5155,0.5441
		c-8.928-0.0125-17.856-0.0133-26.784,0.0028c-0.4897,0.0009-0.527-0.201-0.5264-0.5906
		C83.4579,162.6676,83.4553,156.8043,83.4548,150.941z"/>
</g>
</svg>
