<?xml version="1.0" encoding="utf-8"?>
<!-- Generator: Adobe Illustrator 26.1.0, SVG Export Plug-In . SVG Version: 6.00 Build 0)  -->
<svg version="1.1" id="Capa_1" xmlns="http://www.w3.org/2000/svg" xmlns:xlink="http://www.w3.org/1999/xlink" x="0px" y="0px"
	 viewBox="0 0 300 300" style="enable-background:new 0 0 300 300;" xml:space="preserve">
<style type="text/css">
	.st0{fill-rule:evenodd;clip-rule:evenodd;fill:#EF7D00;}
	.st1{fill-rule:evenodd;clip-rule:evenodd;}
	.st2{fill:#EF8224;}
	.st3{fill:#774189;}
	.st4{fill:#147ABE;}
	.st5{fill:#1D1D1B;}
	.st6{fill:#FFFFFF;}
	.st7{fill:#8E348A;}
</style>
<g>
	<rect x="14.09" y="123.21" class="st5" width="271.82" height="53.57"/>
	<g>
		<path class="st6" d="M45.65,138.07c2.66,0,4.8,0.49,6.34,1.61c1.46,1.09,2.48,2.85,2.48,5.33c0,5.48-4.69,7.69-8.26,7.69
			c-0.41,0-0.79-0.04-1.01-0.08l-2.59-0.68v5.85c0,3.15,0.26,3.23,3.71,3.6v1.05H35.97v-1.05c3.23-0.34,3.38-0.56,3.38-3.68v-14.9
			c0-3.34-0.41-3.41-3.38-3.71v-1.05H45.65z M42.61,150.64c0.45,0.23,1.46,0.49,2.74,0.49c2.51,0,5.63-1.28,5.63-6
			c0-4.13-2.7-5.78-5.85-5.78c-1.09,0-1.88,0.19-2.1,0.45c-0.3,0.26-0.41,0.71-0.41,1.73V150.64z"/>
		<path class="st6" d="M78.56,156.49c-0.23,0.98-1.24,4.84-1.61,5.97H58.71v-1.05c3.49-0.26,3.75-0.6,3.75-3.68v-14.82
			c0-3.34-0.41-3.53-3.23-3.79v-1.05h11.48c3.53,0,4.99-0.04,5.44-0.08c0.04,0.94,0.19,3.75,0.34,5.74l-1.13,0.19
			c-0.34-1.28-0.71-2.06-1.13-2.85c-0.6-1.24-1.46-1.5-3.71-1.5h-3.56c-1.16,0-1.24,0.11-1.24,1.2v8.29h4.17
			c2.81,0,3-0.56,3.45-3.11h1.16v7.73h-1.16c-0.49-2.7-0.79-3.08-3.49-3.08h-4.13v7.47c0,2.63,0.83,2.85,2.7,2.89h3.49
			c2.29,0,2.66-0.34,3.49-1.31c0.71-0.79,1.5-2.33,2.03-3.45L78.56,156.49z"/>
		<path class="st6" d="M108.61,139.12c-2.4,0.26-3.19,0.64-3.3,2.36c-0.04,1.2-0.11,2.78-0.11,6.27v15.05h-1.43l-16.06-19.62v9.38
			c0,3.38,0.11,5.07,0.19,6.15c0.07,1.91,1.01,2.48,3.71,2.7v1.05H82.5v-1.05c2.33-0.19,3.23-0.75,3.38-2.59
			c0.11-1.2,0.19-2.89,0.19-6.3v-9.57c0-1.05-0.07-1.65-0.75-2.48c-0.71-0.94-1.5-1.16-3.34-1.35v-1.05h5.63l15.91,18.87v-9.19
			c0-3.49-0.08-5.1-0.19-6.23c-0.11-1.69-0.98-2.21-3.98-2.4v-1.05h9.27V139.12z"/>
		<path class="st6" d="M132.59,156.49c-0.23,0.98-1.24,4.84-1.61,5.97h-18.24v-1.05c3.49-0.26,3.75-0.6,3.75-3.68v-14.82
			c0-3.34-0.41-3.53-3.23-3.79v-1.05h11.48c3.53,0,4.99-0.04,5.44-0.08c0.04,0.94,0.19,3.75,0.34,5.74l-1.13,0.19
			c-0.34-1.28-0.71-2.06-1.13-2.85c-0.6-1.24-1.46-1.5-3.71-1.5H121c-1.16,0-1.24,0.11-1.24,1.2v8.29h4.17c2.81,0,3-0.56,3.45-3.11
			h1.16v7.73h-1.16c-0.49-2.7-0.79-3.08-3.49-3.08h-4.13v7.47c0,2.63,0.83,2.85,2.7,2.89h3.49c2.29,0,2.66-0.34,3.49-1.31
			c0.71-0.79,1.5-2.33,2.03-3.45L132.59,156.49z"/>
		<path class="st6" d="M166.74,143.96c-0.34-1.2-0.79-2.44-1.2-3.11c-0.6-1.01-0.98-1.28-3.04-1.28h-3.75v18.27
			c0,2.93,0.3,3.34,3.86,3.56v1.05h-10.92v-1.05c3.49-0.22,3.79-0.6,3.79-3.56v-18.27h-3.41c-2.06,0-2.66,0.22-3.3,1.35
			c-0.45,0.75-0.75,1.65-1.24,3.04h-1.13c0.23-2.29,0.45-4.65,0.56-6.75h0.86c0.56,0.9,0.98,0.86,2.03,0.86h14.86
			c1.05,0,1.35-0.15,1.91-0.86h0.9c0,1.76,0.15,4.47,0.34,6.64L166.74,143.96z"/>
		<path class="st6" d="M194.69,162.76c-0.49,0-0.9-0.04-1.39-0.07c-2.74-0.19-4.2-0.9-5.85-3.23c-1.39-1.91-2.74-4.28-3.94-6.19
			c-0.75-1.2-1.24-1.43-3.15-1.43h-1.31v5.89c0,3.19,0.41,3.38,3.42,3.68v1.05h-10.02v-1.05c3.11-0.34,3.38-0.49,3.38-3.68v-14.97
			c0-3.19-0.41-3.3-3.38-3.64v-1.05h9.57c2.74,0,4.58,0.34,6,1.28c1.54,0.98,2.55,2.66,2.55,4.95c0,3.23-2.06,5.25-4.84,6.45
			c0.67,1.16,2.29,3.68,3.41,5.37c1.39,1.99,2.1,2.93,2.96,3.87c1.01,1.09,1.88,1.5,2.74,1.73L194.69,162.76z M180.84,150.56
			c1.95,0,3.19-0.3,4.13-1.09c1.46-1.09,2.06-2.59,2.06-4.62c0-4.02-2.66-5.48-5.55-5.48c-1.09,0-1.73,0.15-1.99,0.38
			c-0.34,0.26-0.45,0.64-0.45,1.61v9.19H180.84z"/>
		<path class="st6" d="M217.13,156.49c-0.23,0.98-1.24,4.84-1.61,5.97h-18.24v-1.05c3.49-0.26,3.75-0.6,3.75-3.68v-14.82
			c0-3.34-0.41-3.53-3.23-3.79v-1.05h11.48c3.53,0,4.99-0.04,5.44-0.08c0.04,0.94,0.19,3.75,0.34,5.74l-1.13,0.19
			c-0.34-1.28-0.71-2.06-1.13-2.85c-0.6-1.24-1.46-1.5-3.71-1.5h-3.56c-1.16,0-1.24,0.11-1.24,1.2v8.29h4.17
			c2.81,0,3-0.56,3.45-3.11h1.16v7.73h-1.16c-0.49-2.7-0.79-3.08-3.49-3.08h-4.13v7.47c0,2.63,0.83,2.85,2.7,2.89h3.49
			c2.29,0,2.66-0.34,3.49-1.31c0.71-0.79,1.5-2.33,2.03-3.45L217.13,156.49z"/>
		<path class="st6" d="M233.9,162.46v-1.05c2.44-0.3,2.74-0.68,2.21-2.1c-0.49-1.46-1.24-3.34-2.03-5.7h-8.11
			c-0.6,1.69-1.16,3.15-1.69,4.69c-0.83,2.44-0.3,2.74,2.78,3.11v1.05h-8.67v-1.05c2.36-0.3,2.96-0.56,4.28-3.94l7.77-19.7l1.2-0.23
			c2.36,6.42,4.95,13.51,7.32,20c1.2,3.26,1.54,3.56,4.2,3.86v1.05H233.9z M230.15,142.46c-1.2,3.23-2.48,6.64-3.6,9.61h7.02
			L230.15,142.46z"/>
		<path class="st6" d="M262.9,143.96c-0.34-1.2-0.79-2.44-1.2-3.11c-0.6-1.01-0.98-1.28-3.04-1.28h-3.75v18.27
			c0,2.93,0.3,3.34,3.86,3.56v1.05h-10.92v-1.05c3.49-0.22,3.79-0.6,3.79-3.56v-18.27h-3.41c-2.06,0-2.66,0.22-3.3,1.35
			c-0.45,0.75-0.75,1.65-1.24,3.04h-1.13c0.23-2.29,0.45-4.65,0.56-6.75h0.86c0.56,0.9,0.98,0.86,2.03,0.86h14.86
			c1.05,0,1.35-0.15,1.91-0.86h0.9c0,1.76,0.15,4.47,0.34,6.64L262.9,143.96z"/>
	</g>
</g>
</svg>
