<?xml version="1.0" encoding="utf-8"?>
<!-- Generator: Adobe Illustrator 26.1.0, SVG Export Plug-In . SVG Version: 6.00 Build 0)  -->
<svg version="1.1" id="Capa_1" xmlns="http://www.w3.org/2000/svg" xmlns:xlink="http://www.w3.org/1999/xlink" x="0px" y="0px"
	 viewBox="0 0 300 300" style="enable-background:new 0 0 300 300;" xml:space="preserve">
<style type="text/css">
	.st0{fill-rule:evenodd;clip-rule:evenodd;fill:#EF7D00;}
	.st1{fill-rule:evenodd;clip-rule:evenodd;}
	.st2{fill:#EF8224;}
	.st3{fill:#774189;}
	.st4{fill:#147ABE;}
	.st5{fill:#1D1D1B;}
	.st6{fill:#FFFFFF;}
	.st7{fill:#8E348A;}
</style>
<g>
	<path class="st2" d="M192.08,149.74c1.55,3.49,3.15,6.91,4.61,10.39c1.85,4.41,3.37,8.94,5.43,13.28
		c1.87,3.92,3.32,8.03,4.95,12.06c1.14,2.82,2.37,5.61,3.4,8.47c2.46,6.82,6.03,13.2,8.05,20.19c0.15,0.53,0.8,0.92,1.62,1.82
		c0-22.38,0-44.24,0-66.23c19.6,0,38.87,0,58.36,0c0,5.76,0,11.63,0,17.66c-12.69,0-25.37,0-38.24,0c0,4.77,0,9.38,0,14.16
		c11.81,0,23.55,0,35.46,0c0,5.59,0,11.04,0,16.88c-5.71,0.22-11.61,0.06-17.51,0.09c-5.95,0.03-11.89,0.01-18,0.01
		c0,9.05,0,17.94,0,27.06c-12.95,0-25.74,0-38.37,0c-1.83-4.61-3.64-9.19-5.46-13.79c-9.56,0-19.1,0-28.65,0
		c-1.99,4.76-3.94,9.44-5.8,13.9c-25.13,0-49.75,0-74.48,0c0-25.31,0-50.51,0-75.9c19.66,0,39.36,0,59.17,0c0,5.81,0,11.57,0,17.65
		c-13.1,0-26.21,0-39.4,0c0,4.2,0,8.07,0,12.11c11.8,0,23.53,0,35.5,0c0,5.39,0,10.63,0,16.04c-11.69,0-23.43,0-35.38,0
		c0,4.14,0,8.12,0,12.43c13.01,0,26.01-0.01,39,0.03c0.31,0,0.62,0.49,1.21,0.99c1.35-2.95,2.96-5.63,3.8-8.52
		c0.9-3.12,2.56-5.85,3.7-8.83c2.95-7.71,6.21-15.3,9.43-22.91c1.35-3.17,2.83-6.35,3.97-9.65c1.09-3.14,2.54-6.16,3.9-9.38
		C178.71,149.74,185.11,149.74,192.08,149.74z M181.87,174.68c-0.76,1.7-1.41,3-1.94,4.35c-1.97,4.98-3.93,9.97-5.83,14.99
		c-0.18,0.48,0.11,1.13,0.16,1.51c5.42,0,10.56,0,16.2,0c-2.27-6.58-5.2-12.59-7-18.99C183.32,175.99,182.68,175.59,181.87,174.68z"
		/>
	<path class="st2" d="M23.37,149.66c6.89,0,13.6,0,20.45,0c0,19.32,0,38.55,0,58.1c11.99,0,23.83,0,35.82,0c0,6.07,0,11.82,0,17.8
		c-18.62,0-37.37,0-56.27,0C23.37,200.43,23.37,175.24,23.37,149.66z"/>
	<path class="st3" d="M38.48,127.85c-5.93,0-11.38,0-16.98,0c0-19.93,0-39.77,0-59.96c1-0.05,2.19-0.17,3.37-0.17
		c8.32-0.02,16.63,0.11,24.95-0.05c4.62-0.09,8.84,1.04,12.82,3.18c4.26,2.29,7.25,5.74,8.67,10.41c1.53,5,1.65,11.1-0.08,15.63
		c-2.08,5.47-6.16,9.1-11.73,11.38c-4.71,1.93-9.48,1.76-14.32,1.79c-2.18,0.01-4.36,0-6.7,0
		C38.48,115.94,38.48,121.69,38.48,127.85z M38.43,97.82c2.49,0,4.69-0.14,6.87,0.03c4.13,0.31,7.28-1.44,9.97-4.25
		c0.4-2.25,0.8-4.44,1.13-6.27c-2.77-4.52-6.07-6.41-10.87-6.45c-2.33-0.02-4.65,0-7.09,0C38.43,86.55,38.43,92,38.43,97.82z"/>
	<path class="st3" d="M79.02,64.99c5.3,0,10.44,0,15.91,0c0,7.21,0,14.34,0,21.81c3.32-1.06,4.65-4.16,7.71-5.14
		c3.06-0.98,6.07-2.36,9.14-1.58c2.75,0.7,5.75,0.99,8.03,3.42c2.1,2.24,3.81,4.63,5.24,7.64c0,11.87,0,24.1,0,36.56
		c-5.25,0-10.5,0-15.91,0c0-9.48,0-19,0-28.36c-1.2-1.62-2.26-3.06-2.89-3.91c-1.67-0.53-2.64-0.84-3.91-1.24
		c-0.73,0.26-1.82,0.64-3.57,1.26c-0.55,0.65-1.56,1.83-3.02,3.55c-1.77,8.09-0.5,17.1-0.85,26.05c-0.04,0.9,0,1.8,0,2.8
		c-5.42,0-10.56,0-15.86,0C79.02,106.99,79.02,86.18,79.02,64.99z"/>
	<path class="st3" d="M147.86,81.05c3.16,9.38,6.3,18.72,9.62,28.59c3.11-9.93,6.05-19.31,8.98-28.66c5.49,0,10.63,0,16.2,0
		c-0.37,1.65-0.49,3.25-1.08,4.66c-2.13,5.09-4.09,10.22-5.81,15.47c-0.8,2.44-1.62,5.03-2.76,7.3c-2.95,5.86-4.07,12.43-7.41,18.1
		c-0.32,4-2.9,7-4.82,10.21c-1.45,2.44-4.02,3.72-6.96,4.51c-2.74,0.74-5.43,1.08-8.11,0.75c-4.21-0.53-8.44-1.3-12.21-3.93
		c1.06-3.89,2.62-7.42,4.75-10.73c2.35,0.76,4.61,1.5,7.08,2.3c0.92-0.53,2.02-1.16,3.38-1.94c-0.17-1.16-0.09-2.43-0.56-3.44
		c-3.26-6.96-5.26-14.44-8.94-21.22c-0.26-4.05-2.76-7.33-3.97-11.07c-1.17-3.63-2.81-7.21-4.48-10.9
		C136.29,81.05,141.74,81.05,147.86,81.05z"/>
	<path class="st3" d="M224.32,103.94c0.15-0.65,0.53-1.77,0.64-2.92c0.43-4.41,1.79-8.4,5.08-11.51c2.74-2.59,4.96-5.79,8.84-7.01
		c1.96-0.61,3.76-1.54,5.91-1.67c2.07-0.13,4.01-1.1,6.2-0.92c2.64,0.22,10.86,1.91,12.36,3.1c3.3,2.63,6.57,5.14,9.1,8.77
		c2.38,3.43,3.14,6.96,3.43,10.82c0.1,1.4,0.01,2.82,0.02,4.22c0.05,5.03-1.79,9.29-5.35,12.81c-2.69,2.65-5.11,5.62-8.85,7
		c-1.61,0.59-7.37,2.24-8.94,2.25c-1.25,0-2.51,0-3.76,0c-9.91-0.02-17.07-4.82-22.04-13.02c-1.26-2.07-2.12-4.51-2-7.16
		C225,107.27,224.58,105.83,224.32,103.94z M254.67,114.71c7.85-5.99,8.66-16.46-1.93-20.57c-2.07,0-3.92,0-4.77,0
		c-4.76,1.41-6.15,4.82-8.1,8.62c0.31,1.85,0.74,4.35,1.01,5.99c1.81,2.05,2.95,3.86,4.56,4.98c1.48,1.04,3.48,1.34,5.32,1.99
		c0.31-0.27,0.62-0.76,1-0.83C252.66,114.74,253.6,114.77,254.67,114.71z"/>
	<path class="st3" d="M191.98,94.04c-2.01,0-3.69,0-5.51,0c0-4.35,0-8.54,0-13.06c1.69,0,3.49,0,5.44,0c0-3.89,0-7.45,0-11.2
		c5.41,0,10.66,0,16.07,0c0,3.65,0,7.21,0,10.94c3.72,0,7.29,0,11.33,0c0,2.28,0.01,4.41,0.01,6.55c0,2.17,0,4.34,0,6.67
		c-3.75,0-7.32,0-11.1,0c0,6.21,0,12.27,0,18.72c0.5,0.42,1.34,1.11,2.49,2.08c2.05-0.38,4.72,0.82,7.42-0.89
		c0.55,4.27,0.07,8.54,0.27,12.82c-2.19,0.31-4.14,1.01-6.17,1.43c-6.28,1.3-11.16,1.04-15.89-2.08c-3.11-2.05-4.21-5.46-4.31-8.91
		C191.83,109.59,191.98,102.06,191.98,94.04z"/>
	<g>
		<g>
			<path class="st2" d="M274.09,225.05c0,5.58-4.38,9.96-10.08,9.96c-5.64,0-10.14-4.38-10.14-9.96c0-5.46,4.5-9.84,10.14-9.84
				C269.71,215.21,274.09,219.59,274.09,225.05z M256.39,225.05c0,4.38,3.24,7.86,7.68,7.86c4.32,0,7.5-3.48,7.5-7.8
				c0-4.38-3.18-7.92-7.56-7.92S256.39,220.73,256.39,225.05z M262.45,230.21h-2.28v-9.84c0.9-0.18,2.16-0.3,3.78-0.3
				c1.86,0,2.7,0.3,3.42,0.72c0.54,0.42,0.96,1.2,0.96,2.16c0,1.08-0.84,1.92-2.04,2.28v0.12c0.96,0.36,1.5,1.08,1.8,2.4
				c0.3,1.5,0.48,2.1,0.72,2.46h-2.46c-0.3-0.36-0.48-1.26-0.78-2.4c-0.18-1.08-0.78-1.56-2.04-1.56h-1.08V230.21z M262.51,224.63
				h1.08c1.26,0,2.28-0.42,2.28-1.44c0-0.9-0.66-1.5-2.1-1.5c-0.6,0-1.02,0.06-1.26,0.12V224.63z"/>
		</g>
	</g>
</g>
</svg>
