<?xml version="1.0" encoding="utf-8"?>
<!-- Generator: Adobe Illustrator 26.1.0, SVG Export Plug-In . SVG Version: 6.00 Build 0)  -->
<svg version="1.1" id="Capa_1" xmlns="http://www.w3.org/2000/svg" xmlns:xlink="http://www.w3.org/1999/xlink" x="0px" y="0px"
	 viewBox="0 0 300 300" style="enable-background:new 0 0 300 300;" xml:space="preserve">
<style type="text/css">
	.st0{fill:#221A16;}
	.st1{fill:#50994F;}
	.st2{fill:#A0BB39;}
	.st3{fill:#7BA73B;}
</style>
<g>
	<path class="st0" d="M291.7344,103.9351c0.005,0.2512,0.0144,0.5025,0.0144,0.7537c0.0007,21.825-0.0044,43.65,0.0208,65.4749
		c0.0009,0.7846-0.2126,0.9364-0.9531,0.9291c-3.9256-0.0387-7.8519-0.035-11.7776-0.0016
		c-0.6569,0.0056-0.8285-0.1449-0.8277-0.8175c0.0212-16.5447,0.0166-33.0894,0.0166-49.7037
		c-0.3163,0.239-0.3016,0.5834-0.3716,0.8575c-1.9189,7.5152-3.8275,15.033-5.7325,22.5518
		c-2.2336,8.8156-4.4664,17.6314-6.6815,26.4516c-0.1265,0.5036-0.3178,0.6613-0.8488,0.6582
		c-4.3536-0.0257-8.7076-0.0289-13.0612,0.002c-0.6137,0.0044-0.7913-0.2155-0.93-0.765
		c-4.1064-16.2698-8.231-32.535-12.3536-48.8007c-0.0711-0.2803-0.1532-0.5578-0.3908-0.8278c0,0.2821,0,0.5641,0,0.8462
		c0,16.2179-0.0057,32.4357,0.0183,48.6536c0.0011,0.7415-0.195,0.9019-0.9117,0.8952c-3.976-0.0373-7.9525-0.0315-11.9286-0.0034
		c-0.6034,0.0043-0.742-0.1707-0.7416-0.7527c0.0149-19.5117,0.0087-39.0235,0.0158-58.5352
		c0.0014-3.8828,2.0201-6.5698,5.7351-7.7062c0.0983-0.0301,0.193-0.0454,0.2247-0.1599c4.9333,0,9.8666,0,14.7998,0
		c0.0266,0.1718,0.0376,0.3477,0.0818,0.5148c3.8525,14.5573,7.707,29.1141,11.5633,43.6704
		c0.4456,1.6819,0.9026,3.3608,1.4026,5.2209c0.1125-0.3545,0.1731-0.5178,0.2162-0.6855
		c4.1124-15.999,8.224-31.9982,12.3307-47.9986c0.0597-0.2325,0.2159-0.4643,0.0785-0.722
		C277.74,103.9351,284.7372,103.9351,291.7344,103.9351z"/>
	<path class="st0" d="M217.1312,103.9351c-0.0019,22.0016-0.0038,44.0032-0.0057,66.0048c-0.0001,1.128-0.0001,1.128-1.1651,1.128
		c-4.2784,0-8.557-0.0132-12.8352,0.0154c-0.5869,0.0039-0.8843-0.1897-1.1769-0.6835
		c-8.4962-14.3383-17.0096-28.6664-25.5211-42.9956c-0.1355-0.2281-0.2819-0.4498-0.5759-0.654c0,0.2844,0,0.5688,0,0.8532
		c0,14.1816-0.0071,28.3633,0.0192,42.5448c0.0014,0.7687-0.1882,0.9465-0.9458,0.9391c-4.1522-0.0407-8.3051-0.0296-12.4576-0.0075
		c-0.5676,0.003-0.7677-0.1071-0.7671-0.7324c0.0184-19.5877,0.0121-39.1755,0.0181-58.7632
		c0.0011-3.6993,2.1901-6.5106,5.7921-7.5047c0.086-0.0237,0.1589-0.0951,0.2379-0.1443c2.9197,0,5.8394,0,8.7591,0
		c0.0315,0.0673,0.0575,0.1379,0.0953,0.2016c8.6632,14.5909,17.327,29.1814,25.9958,43.769
		c0.0749,0.126,0.0861,0.3619,0.3756,0.3027c0-0.2237,0-0.4489,0-0.6741c0-14.3081,0.0002-28.6162-0.0015-42.9243
		c0-0.2249-0.0241-0.4498-0.037-0.6748C207.6673,103.9351,212.3992,103.9351,217.1312,103.9351z"/>
	<path class="st0" d="M136.3362,103.9351c0.9536,0.295,1.9556,0.2687,2.9293,0.4432c5.9575,1.0672,10.7841,3.7728,13.6485,9.3387
		c1.0667,2.0728,1.7201,4.2847,2.0666,6.5828c0.6937,4.6006,0.6575,9.185-0.7332,13.6572
		c-2.4782,7.9697-8.0705,12.2154-16.2398,13.2718c-1.2499,0.1616-2.5074,0.201-3.7668,0.2006
		c-5.0836-0.0016-10.1674,0.0156-15.2508-0.019c-0.7224-0.0049-0.856,0.2212-0.8539,0.8857
		c0.0225,7.3168,0.0062,14.6338,0.0281,21.9506c0.0019,0.6328-0.1071,0.853-0.8091,0.8468
		c-4.278-0.0382-8.5565-0.0295-12.8347-0.0064c-0.5538,0.003-0.7168-0.1234-0.7163-0.7008
		c0.0163-19.6375,0.0096-39.2749,0.0174-58.9124c0.0015-3.7059,2.3686-6.5884,6.0421-7.4339
		c0.0695-0.016,0.1304-0.0693,0.1952-0.1051C118.818,103.9351,127.5771,103.9351,136.3362,103.9351z M118.3388,125.513
		c0,2.7904,0.0197,5.581-0.0149,8.371c-0.0079,0.6345,0.1097,0.8463,0.807,0.8391c3.8996-0.0403,7.7998-0.021,11.6998-0.0183
		c0.9567,0.0007,1.9113-0.0133,2.8613-0.1468c3.3171-0.466,5.8731-1.9429,6.8701-5.3445c0.7682-2.6207,0.7244-5.2725-0.0864-7.8815
		c-0.7233-2.3272-2.3051-3.8403-4.6233-4.59c-1.2333-0.3988-2.5063-0.5519-3.7928-0.5559
		c-4.3529-0.0137-8.7058,0.0033-13.0587-0.0171c-0.5268-0.0025-0.6784,0.1423-0.6739,0.6711
		C118.3517,119.731,118.3388,122.6221,118.3388,125.513z"/>
	<path class="st1" d="M64.6086,192.8105c0.1208-0.3561,0.4522-0.5231,0.7015-0.7576c6.9341-6.5236,11.0344-14.5144,12.2078-23.9417
		c0.4463-3.5862,0.5516-7.2151,0.8025-10.8252c0.5889-8.4748,1.1723-16.95,1.7568-25.4251
		c0.237-3.4358,0.4593-6.8727,0.7177-10.3069c0.0446-0.5923-0.1172-0.7134-0.6971-0.6673
		c-5.1395,0.4087-10.2817,0.7829-15.4227,1.1727c-5.6424,0.4279-11.284,0.8644-16.9265,1.2916
		c-3.5862,0.2715-7.1762,0.4973-10.7592,0.8052c-10.2966,0.885-19.3917,4.4756-26.7419,11.9538
		c-0.1686,0.1715-0.293,0.418-0.5984,0.4427c-0.1171-0.3804,0.1158-0.6802,0.2392-0.9887
		c4.4501-11.1217,12.3568-18.8891,23.206-23.7631c5.6436-2.5354,11.6101-3.7138,17.7648-4.1277
		c7.1019-0.4776,14.1966-1.0595,21.2949-1.5903c5.0161-0.3751,10.0331-0.7382,15.0494-1.1106
		c3.2855-0.244,6.5715-0.4824,9.8547-0.7542c0.6206-0.0514,0.7408,0.1063,0.6956,0.7263
		c-0.3054,4.1856-0.5615,8.3748-0.8355,12.5627c-0.3856,5.8928-0.7759,11.7853-1.1585,17.6783
		c-0.2735,4.213-0.4984,8.4296-0.8155,12.6393c-0.4472,5.9363-0.8094,11.8981-2.8019,17.5837
		c-4.6559,13.2857-13.6483,22.3321-26.8273,27.253c-0.2306,0.0861-0.4557,0.2251-0.7213,0.1358L64.6086,192.8105z"/>
	<path class="st2" d="M5.5371,173.4935c0.0075-9.6465,5.5693-17.5749,14.6978-21.1142c3.0282-1.1741,6.1679-1.7563,9.4022-1.977
		c5.7948-0.3953,11.5847-0.862,17.3769-1.2954c1.7305-0.1295,3.463-0.2327,5.192-0.3795c0.5076-0.0431,0.6615,0.1072,0.6247,0.6133
		c-0.2789,3.8336-0.5379,7.6686-0.8042,11.5031c-0.2332,3.3584-0.4501,6.7181-0.7073,10.0747
		c-0.2185,2.8513-0.2558,5.7182-1.017,8.5148c-2.5216,9.2645-10.7978,16.0144-20.4071,16.5876
		c-11.3737,0.6785-21.174-6.5895-23.8027-17.6633C5.7025,176.7151,5.5028,175.0456,5.5371,173.4935z"/>
	<path class="st3" d="M7.4903,153.1292c0.6792-2.6117,1.7806-4.9989,3.233-7.2123c5.3227-8.1115,12.9057-12.8451,22.3169-14.8062
		c3.4103-0.7106,6.893-0.772,10.3499-1.0416c7.8996-0.6161,15.8027-1.1877,23.7043-1.7773
		c2.0823-0.1554,4.1654-0.3003,6.2462-0.4731c0.4769-0.0396,0.5988,0.0837,0.5636,0.5756
		c-0.4494,6.2908-0.8737,12.5833-1.3083,18.8751c-0.452,6.5432-0.6454,13.1173-1.4191,19.6225
		c-1.4597,12.2726-8.0069,21.0455-19.1763,26.363c-1.0911,0.5194-2.2308,0.9207-3.3821,1.2867
		c-0.1149,0.0365-0.2368,0.0513-0.4242,0.0906c0.1136-0.367,0.3801-0.5204,0.5771-0.7187
		c4.8003-4.8295,7.6308-10.6311,8.3684-17.3844c0.4007-3.6689,0.5365-7.3667,0.7924-11.0515
		c0.4404-6.3422,0.8827-12.6842,1.3209-19.0265c0.0884-1.2788,0.1446-2.56,0.2511-3.8372c0.0417-0.5002-0.0833-0.6508-0.611-0.6097
		c-5.8664,0.4567-11.7348,0.8887-17.6025,1.3298c-4.5638,0.3431-9.142,0.558-13.6875,1.065
		c-7.1436,0.7969-13.6934,3.1727-19.2343,7.9211C8.0666,152.5791,7.7827,152.8591,7.4903,153.1292z"/>
	<path class="st3" d="M119.6587,190.4793c0.1757-0.2323,0.0903-0.4881,0.0909-0.722c0.0072-2.7638,0.017-5.5277-0.0057-8.2913
		c-0.0045-0.5543,0.0883-0.8455,0.7343-0.7836c0.7207,0.069,1.6831-0.2254,2.1145,0.1401c0.5008,0.4243,0.1604,1.4148,0.1638,2.1567
		c0.0179,3.9446-0.0048,7.8894,0.0224,11.8339c0.0042,0.6047-0.2013,0.6783-0.7578,0.7671
		c-1.8133,0.2892-2.8516-0.4026-3.6881-2.0488c-1.2716-2.5025-2.8342-4.8574-4.2751-7.2739
		c-0.1226-0.2056-0.2589-0.403-0.4143-0.6438c-0.1825,0.2966-0.1058,0.5484-0.1064,0.7834c-0.0068,2.814-0.0187,5.6282,0.0078,8.442
		c0.0053,0.5575-0.1415,0.7845-0.7158,0.7182c-0.7393-0.0853-1.6902,0.3152-2.1726-0.1745c-0.4489-0.4556-0.13-1.3891-0.1329-2.1106
		c-0.0143-3.5175-0.0083-7.0351-0.0054-10.5526c0.0012-1.5209,0.5137-1.9684,2.0383-2.0469
		c0.8663-0.0446,1.3362,0.2461,1.7654,0.9989c1.5677,2.7492,3.2131,5.4543,4.8379,8.1707
		C119.2934,190.0655,119.363,190.3535,119.6587,190.4793z"/>
	<path class="st3" d="M177.8439,185.6944c0,0.266,0,0.532,0,0.798c0,2.764-0.0133,5.5281,0.011,8.2919
		c0.0049,0.5598-0.096,0.8556-0.7353,0.7747c-0.7373-0.0933-1.6987,0.3166-2.1665-0.1781
		c-0.4289-0.4535-0.1181-1.3916-0.1205-2.1151c-0.0115-3.5429-0.0075-7.0859-0.0041-10.6288
		c0.0014-1.4345,0.5186-1.8771,1.9557-1.9651c0.9248-0.0566,1.4274,0.2541,1.885,1.0619c1.585,2.7979,3.26,5.545,4.9022,8.3105
		c0.1113,0.1874,0.2343,0.3678,0.4871,0.5359c0-0.2353,0-0.4706,0-0.7059c0-2.8394,0.013-5.6789-0.0112-8.518
		c-0.0046-0.5318,0.157-0.7071,0.6815-0.6718c0.6009,0.0405,1.207,0.0232,1.81,0.0046c0.369-0.0114,0.5429,0.0874,0.5419,0.5014
		c-0.0108,4.6234-0.009,9.2468-0.0024,13.8702c0.0005,0.3463-0.1099,0.5251-0.4745,0.4908
		c-0.0498-0.0047-0.102-0.0079-0.1506,0.0014c-1.8593,0.3556-2.9909-0.3316-3.8732-2.0829
		c-1.3532-2.6857-3.0281-5.2096-4.5665-7.8022C177.957,185.6768,177.9005,185.6856,177.8439,185.6944z"/>
	<path class="st3" d="M252.1919,185.7558c-0.1868,0.2781-0.1173,0.5884-0.1179,0.8824c-0.0056,2.6905-0.0221,5.3812,0.0105,8.0713
		c0.0077,0.6351-0.1202,0.9411-0.8213,0.853c-0.446-0.056-0.9105-0.0563-1.3564,0.0001c-0.7004,0.0885-0.8242-0.2154-0.8199-0.8509
		c0.0272-4.023,0.0123-8.0463,0.0148-12.0695c0.0009-1.4424,0.5121-1.8727,1.9516-1.973c0.9473-0.066,1.4248,0.2953,1.8755,1.0838
		c1.5968,2.7934,3.2701,5.5431,4.9167,8.3079c0.1099,0.1845,0.2395,0.3572,0.4882,0.7253c0-0.4808,0-0.7441,0-1.0074
		c0.0001-2.8162,0.0096-5.6325-0.009-8.4486c-0.0032-0.481,0.1237-0.6799,0.6313-0.6453c0.5762,0.0393,1.1597,0.0432,1.7352-0.0009
		c0.5591-0.0428,0.6639,0.2026,0.6622,0.7014c-0.0151,4.5009-0.0167,9.0019,0.0016,13.5027
		c0.0022,0.5381-0.2013,0.6109-0.6926,0.6861c-1.8423,0.2821-2.9558-0.3653-3.8142-2.0966c-1.2247-2.47-2.7782-4.7775-4.1972-7.1509
		C252.5278,186.1206,252.4735,185.8483,252.1919,185.7558z"/>
	<path class="st3" d="M168.1309,188.4447c1.3678,0.5299,1.6799,1.5073,1.7527,2.6169c0.0591,0.9019,0.1154,1.8044,0.1465,2.7075
		c0.0199,0.5768,0.0726,1.1437,0.3217,1.7797c-0.9967,0-1.92,0.0003-2.8433-0.0001c-0.4217-0.0002-0.4558-0.3316-0.5101-0.6225
		c-0.1434-0.7684-0.1629-1.5472-0.1628-2.3266c0.0001-0.4778-0.019-0.9523-0.1245-1.4227
		c-0.2061-0.9193-0.5996-1.3209-1.5381-1.3636c-1.1043-0.0503-2.2127-0.0052-3.3184-0.0341
		c-0.5058-0.0132-0.4883,0.2886-0.4871,0.6342c0.0049,1.4572-0.0205,2.915,0.0132,4.3714c0.0132,0.5677-0.1109,0.8522-0.7437,0.7741
		c-0.7383-0.0912-1.6965,0.3155-2.1699-0.1767c-0.4362-0.4535-0.1232-1.3908-0.1257-2.1138
		c-0.0123-3.5425-0.0072-7.0851-0.0049-10.6277c0.0009-1.4479,0.499-1.944,1.9477-1.9461c1.6849-0.0024,3.3697-0.004,5.0546,0.0018
		c0.4523,0.0016,0.9069,0.0065,1.3563,0.0517c3.1261,0.3139,4.771,3.9403,2.9753,6.5439
		C169.3357,187.777,168.8748,188.1102,168.1309,188.4447z M163.4998,187.1196c0.6776,0,1.3609,0.0564,2.0314-0.0123
		c1.2107-0.1241,1.7029-0.7837,1.6459-2.0737c-0.049-1.1101-0.6679-1.7083-1.8434-1.744c-0.7281-0.0221-1.4575-0.0055-2.1863-0.0056
		c-1.7779-0.0002-1.7964,0.0002-1.7688,1.7385c0.0109,0.6909-0.3164,1.5694,0.1525,2.0237
		C161.9647,187.4662,162.8283,187.1203,163.4998,187.1196z"/>
	<path class="st3" d="M230.5171,188.1352c0.041-0.5259,0.049-1.0567,0.128-1.5768c0.8783-5.7861,6.0944-7.0034,9.7478-5.641
		c2.8527,1.0638,4.0582,3.377,4.357,6.2504c0.1145,1.1015,0.0544,2.21-0.2114,3.2968c-0.9001,3.6804-3.9095,5.7302-7.7469,5.2747
		C232.8069,195.2663,230.5439,192.5131,230.5171,188.1352z M233.5918,188.233c-0.0158,0.9442,0.1474,1.9546,0.6167,2.8944
		c0.7133,1.4283,1.9188,2.095,3.4795,2.0816c1.5544-0.0133,2.8055-0.6478,3.4427-2.1244c0.857-1.9856,0.8714-4.012-0.0479-5.9835
		c-0.6072-1.302-1.7225-1.9062-3.144-1.9776c-1.5214-0.0764-2.773,0.3997-3.5837,1.7545
		C233.7566,185.8784,233.5822,186.9864,233.5918,188.233z"/>
	<path class="st3" d="M143.2726,188.4974c0.0004-2.0351-0.0055-4.0702,0.0026-6.1053c0.005-1.2483,0.4296-1.6879,1.6716-1.6934
		c2.8164-0.0124,5.633,0.0059,8.4493-0.0146c0.4859-0.0035,0.6398,0.1309,0.6448,0.6297c0.0198,1.9701,0.0374,1.97-1.9292,1.97
		c-1.7351,0-3.4706,0.0173-5.2052-0.0109c-0.4947-0.008-0.6603,0.1372-0.6305,0.6318c0.0392,0.6509,0.035,1.3072,0.0011,1.9587
		c-0.0243,0.4673,0.1458,0.6039,0.6034,0.5965c1.4833-0.0242,2.9676,0.0108,4.4507-0.0194c0.5292-0.0108,0.7611,0.091,0.7487,0.6931
		c-0.0288,1.3971-0.3766,1.8137-1.7703,1.8423c-1.1563,0.0238-2.3137,0.0212-3.47-0.0011c-0.4267-0.0082-0.574,0.1341-0.5612,0.5607
		c0.0256,0.8535,0.0403,1.71-0.0046,2.5619c-0.0291,0.5527,0.121,0.7334,0.7028,0.7233c2.1117-0.0364,4.2247,0.0031,6.3366-0.0264
		c0.5427-0.0076,0.7888,0.107,0.7243,0.6981c-0.0703,0.6442,0.2586,1.4812-0.1245,1.8969c-0.4245,0.4606-1.282,0.1485-1.9477,0.1541
		c-2.6151,0.0217-5.231-0.0188-7.8455,0.0267c-0.7205,0.0125-0.8755-0.2223-0.8623-0.8923
		C143.2979,192.6183,143.2722,190.5576,143.2726,188.4974z"/>
	<path class="st3" d="M278.1514,195.5521c-1.5009,0-1.5009,0-1.968-1.4402c-0.52-1.6034-0.52-1.6034-2.2114-1.6034
		c-1.1563,0-2.3129,0.0161-3.4687-0.0084c-0.418-0.0089-0.64,0.1124-0.7546,0.5336c-0.1844,0.6775-0.4487,1.333-0.6396,2.0089
		c-0.1075,0.3804-0.3027,0.529-0.6964,0.5156c-0.6779-0.023-1.3585-0.0323-2.0355,0.0019
		c-0.5645,0.0286-0.6974-0.1167-0.4902-0.6771c0.8615-2.3296,1.6855-4.6731,2.5219-7.0119
		c0.7103-1.9861,1.4168-3.9735,2.1291-5.9589c0.3568-0.9945,0.6563-1.2012,1.7264-1.2177c2.2577-0.035,2.2606-0.036,3.034,2.1073
		c1.4224,3.9417,2.8418,7.8846,4.2603,11.8277c0.3309,0.92,0.327,0.9215-0.6532,0.9226
		C278.6541,195.5523,278.4028,195.5521,278.1514,195.5521z M272.8394,183.9739c-0.0598,0.0038-0.1197,0.0076-0.1794,0.0114
		c-0.596,1.8535-1.1859,3.709-1.793,5.5589c-0.1221,0.372,0.035,0.4329,0.3485,0.4309c1.0281-0.0066,2.0563-0.0096,3.0843,0.0006
		c0.3344,0.0033,0.4683-0.1071,0.3579-0.4442C274.0506,187.6793,273.4453,185.8265,272.8394,183.9739z"/>
	<path class="st3" d="M203.9138,195.5521c-1.5353,0-1.5353,0-2.0158-1.4836c-0.5052-1.56-0.5052-1.56-2.1744-1.56
		c-1.1814,0-2.3631,0.0143-3.5442-0.0078c-0.3947-0.0074-0.5823,0.1216-0.6887,0.5087c-0.1926,0.7003-0.4613,1.3795-0.6634,2.0777
		c-0.1023,0.3537-0.2908,0.4803-0.6489,0.4703c-0.6782-0.0189-1.3593-0.0377-2.0354,0.0043
		c-0.6207,0.0385-0.7275-0.1423-0.5148-0.7218c1.0891-2.9681,2.146-5.9481,3.2142-8.9239c0.483-1.3456,0.9622-2.6925,1.4501-4.0363
		c0.3421-0.9421,0.6685-1.1668,1.6764-1.1849c2.3011-0.0411,2.2969-0.0396,3.0816,2.1465
		c1.4073,3.9207,2.8193,7.8398,4.2312,11.7588c0.3431,0.9525,0.3466,0.9513-0.6893,0.9521
		C204.3662,195.5522,204.14,195.5521,203.9138,195.5521z M198.5985,183.9863c-0.0611-0.0018-0.1221-0.0036-0.1832-0.0054
		c-0.6005,1.8532-1.2014,3.7064-1.801,5.5599c-0.0857,0.2649-0.0391,0.4339,0.2928,0.4322
		c1.0775-0.0057,2.1551-0.0026,3.2327-0.0013c0.2522,0.0003,0.3757-0.0804,0.284-0.3614
		C199.8122,187.7366,199.2063,185.8612,198.5985,183.9863z"/>
	<path class="st3" d="M131.5322,189.3462c-0.0001-1.7849-0.0189-3.5702,0.0114-5.3546c0.0091-0.5382-0.1719-0.6905-0.6903-0.6732
		c-1.0305,0.0343-2.0638-0.0144-3.0943,0.0203c-0.5109,0.0172-0.6339-0.1731-0.6322-0.6534
		c0.0048-1.3871,0.5652-1.989,1.9442-1.9904c3.0698-0.0031,6.1398,0.016,9.2093-0.0154c0.6122-0.0063,0.7558,0.1872,0.7497,0.7675
		c-0.0198,1.8813,0.0023,1.8815-1.886,1.8815c-0.5787,0-1.1608,0.0391-1.7353-0.0105c-0.6238-0.0538-0.8166,0.1542-0.8094,0.7914
		c0.0327,2.9158,0.0144,5.8323,0.0144,8.7485c0,0.176,0.0115,0.3528-0.002,0.5278c-0.0538,0.6956,0.3241,1.7057-0.155,2.017
		c-0.6879,0.447-1.7047,0.1272-2.5806,0.1385c-0.4377,0.0056-0.3395-0.3579-0.3403-0.6138
		C131.5293,193.0669,131.5323,191.2066,131.5322,189.3462z"/>
	<path class="st3" d="M214.7383,189.4616c-0.0001,1.8083-0.0186,3.617,0.0114,5.4248c0.0088,0.5298-0.151,0.7191-0.6804,0.6726
		c-0.747-0.0657-1.7041,0.2983-2.1935-0.1369c-0.5059-0.4498-0.1615-1.4231-0.1666-2.1644
		c-0.0213-3.064-0.0261-6.1283,0.0056-9.1921c0.0063-0.6138-0.1868-0.7736-0.7708-0.7491
		c-1.0288,0.0431-2.0612-0.0048-3.0913,0.0196c-0.4285,0.0102-0.5508-0.1384-0.5609-0.5606
		c-0.0355-1.4806,0.5154-2.0798,1.9895-2.0808c3.0166-0.0022,6.0333,0.0131,9.0497-0.0126c0.5894-0.005,0.8402,0.1033,0.8301,0.7702
		c-0.0285,1.8757,0.0025,1.8762-1.9009,1.8762c-0.6285,0-1.2582,0.0253-1.8849-0.0078c-0.4898-0.0258-0.654,0.141-0.6469,0.6406
		C214.754,185.7945,214.7384,187.6281,214.7383,189.4616z"/>
	<path class="st3" d="M284.127,188.6111c0.0002-2.0091-0.0083-4.0182,0.003-6.0272c0.0088-1.5541,1.4038-2.4642,2.841-1.8707
		c0.3676,0.1518,0.2084,0.4756,0.2092,0.7193c0.0113,3.5158,0.0236,7.0319-0.0068,10.5475
		c-0.0055,0.6365,0.1171,0.8644,0.8128,0.845c1.934-0.0538,3.8707,0.0002,5.8057-0.0308c0.5357-0.0086,0.715,0.1543,0.6671,0.6792
		c-0.0409,0.4483-0.0398,0.9061-0.0004,1.3546c0.0473,0.5385-0.1027,0.7441-0.6953,0.738
		c-2.9657-0.0305-5.9321-0.0308-8.8978-0.0004c-0.6146,0.0063-0.7589-0.2006-0.7504-0.7768
		C284.1452,192.7299,284.1268,190.6704,284.127,188.6111z"/>
	<path class="st3" d="M226.3732,188.2052c0,2.211-0.0173,4.4222,0.012,6.6328c0.0074,0.557-0.1432,0.769-0.7174,0.7243
		c-0.5999-0.0467-1.2067-0.0244-1.8097-0.0058c-0.3755,0.0116-0.5403-0.1057-0.5391-0.5109
		c0.0128-4.3214,0.0013-8.6429,0.0239-12.9643c0.0047-0.8893,0.4848-1.3179,1.366-1.3783c1.6643-0.1139,1.6643-0.1139,1.6643,1.5475
		C226.3732,184.2355,226.3732,186.2203,226.3732,188.2052z"/>
	<path class="st3" d="M106.1842,188.1235c0,2.2354-0.0159,4.471,0.0113,6.7061c0.0067,0.5483-0.1303,0.7785-0.713,0.7327
		c-0.5996-0.0471-1.2063-0.0233-1.8091-0.0057c-0.3664,0.0107-0.5483-0.085-0.5472-0.5005c0.0116-4.295-0.0025-8.59,0.018-12.8849
		c0.0047-0.9887,0.5141-1.4337,1.5183-1.4738c1.5217-0.0608,1.5217-0.0608,1.5217,1.4734
		C106.1842,184.155,106.1842,186.1392,106.1842,188.1235z"/>
	<polygon class="st1" points="9.5508,136.7784 9.5348,136.7179 9.5826,136.7246 	"/>
	<path class="st1" d="M64.5937,192.7973c-0.0123,0.0346-0.0246,0.0693-0.0368,0.1039c-0.1076-0.1015,0.0061-0.0766,0.0518-0.0907
		C64.6086,192.8105,64.5937,192.7973,64.5937,192.7973z"/>
</g>
</svg>
