<?xml version="1.0" encoding="utf-8"?>
<!-- Generator: Adobe Illustrator 26.1.0, SVG Export Plug-In . SVG Version: 6.00 Build 0)  -->
<svg version="1.1" id="Capa_1" xmlns="http://www.w3.org/2000/svg" xmlns:xlink="http://www.w3.org/1999/xlink" x="0px" y="0px"
	 viewBox="0 0 300 300" style="enable-background:new 0 0 300 300;" xml:space="preserve">
<style type="text/css">
	.st0{fill-rule:evenodd;clip-rule:evenodd;fill:#EF7D00;}
	.st1{fill-rule:evenodd;clip-rule:evenodd;}
	.st2{fill:#EF8224;}
	.st3{fill:#774189;}
	.st4{fill:#147ABE;}
	.st5{fill:#1D1D1B;}
	.st6{fill:#FFFFFF;}
	.st7{fill:#8E348A;}
</style>
<g>
	<path class="st7" d="M22.71,146.59c-3.65,0-7.37,0-11.29,0c5.14-8.48,10.38-16.68,15.54-25.14c2.51,1.41,4.93,3.05,7.37,4.52
		c-1.11,1.78-2.18,3.49-3.31,5.3c0.6,0,1.15-0.03,1.69,0.01c3,0.23,5.92,0.77,8.56,2.33c1.19,0.7,2.38,1.38,3.36,2.4
		c1.21,1.27,2.62,2.38,3.52,3.9c0.76,1.28,1.4,2.65,1.92,4.05c0.97,2.61,1.29,5.36,0.98,8.1c-0.19,1.68-0.51,3.41-1.29,4.97
		c-0.77,1.54-1.43,3.14-2.59,4.45c-0.57,0.64-1.06,1.37-1.67,1.98c-2.22,2.26-4.89,3.78-7.94,4.62c-1.33,0.37-2.66,0.73-4.07,0.68
		c-0.77-0.03-1.55-0.01-2.44-0.01c0.91,1.91,2.26,3.5,3.16,5.38c-1.21,1.01-2.51,1.57-3.67,2.34c-1.18,0.78-2.29,1.64-3.66,2.09
		c-0.89-1.48-1.69-2.88-2.55-4.24c-0.86-1.38-1.79-2.71-2.66-4.08c-0.89-1.41-1.76-2.84-2.62-4.26c-0.84-1.38-1.64-2.78-2.49-4.15
		c-0.85-1.38-1.74-2.73-2.59-4.11c-0.83-1.37-1.81-2.65-2.52-4.27c3.81,0,7.41,0,11.14,0c0.19,0.28,0.5,0.65,0.7,1.07
		c1.09,2.2,2.86,3.72,4.96,4.86c0.71,0.38,1.57,0.6,2.39,0.67c1.27,0.11,2.59,0.19,3.83-0.01c1.43-0.24,2.78-0.85,3.92-1.81
		c0.47-0.4,0.84-0.9,1.31-1.29c1.31-1.05,2.02-2.47,2.34-4.05c0.65-3.22,0.8-4.66-1.09-8.12c-0.76-1.4-1.9-2.48-3.28-3.29
		c-1.07-0.63-2.21-1.24-3.43-1.38c-1.32-0.15-2.66-0.17-4.04,0.15c-2.11,0.49-3.86,1.47-5.26,3.04
		C24.09,144.22,23.49,145.41,22.71,146.59z"/>
	<path class="st5" d="M76.84,153.69c0,3.61,0,7.1,0,10.65c-2.32,0-4.59,0-6.94,0c0-9.39,0-18.82,0-28.38c0.51,0,1.05,0,1.59,0
		c6.85,0,13.7,0,20.55,0c0.91,0,1.8,0.05,2.72,0.28c0.81,0.2,1.59,0.48,2.39,0.7c2.74,0.75,4.17,2.75,5.05,5.2
		c0.34,0.93,0.46,2.03,0.35,3.01c-0.17,1.43-0.36,2.9-1.13,4.2c-0.7,1.18-1.6,2.16-2.82,2.81c-1.15,0.61-2.29,1.29-3.68,1.2
		c-0.84,0.57-1.8,0.32-2.7,0.32C87.15,153.7,82.08,153.69,76.84,153.69z M76.84,147c0.44,0,0.81,0,1.19,0
		c4.73,0,9.46-0.03,14.19,0.02c1.25,0.01,2.19-0.3,2.69-1.73c0-0.35,0-0.9,0-1.46c-0.39-0.39-0.78-0.79-1.05-1.05
		c-1.56-0.67-3.04-0.44-4.5-0.45c-3.62-0.02-7.23-0.01-10.85-0.01c-0.54,0-1.09,0-1.67,0c0,1.39,0,2.66,0,3.94
		C76.84,146.47,76.84,146.68,76.84,147z"/>
	<path class="st5" d="M168.21,162.72c0,0.54,0,1.03,0,1.6c-2.25,0-4.45,0-6.69,0c0-9.63,0-19.25,0-28.9c0.14-0.14,0.3-0.3,0.45-0.46
		c2.12,0,4.24,0,6.51,0c0.03,2.86,0,5.73,0.02,8.78c0.33-0.15,0.57-0.2,0.74-0.34c1.09-0.84,2.35-1.32,3.63-1.73
		c1.91-0.62,3.89-0.72,5.9-0.71c2.6,0.02,5.01,0.75,7.17,2.06c2.43,1.48,3.9,3.75,4.66,6.84c0.42,1.7,0.4,3.4,0.23,5.05
		c-0.18,1.73-0.9,3.39-1.86,4.89c-1.47,2.3-3.64,3.67-6.16,4.43c-1.45,0.44-2.93,0.87-4.51,0.87c-1.7,0-3.4-0.08-5.04-0.41
		C171.52,164.33,169.83,163.69,168.21,162.72z M183.73,150.69c0.01,0.01-0.11-0.11-0.19-0.25c-1.17-2.04-2.51-2.9-4.57-3.49
		c-1.21-0.34-2.37-0.25-3.55-0.28c-2.29-0.06-4.27,0.64-5.87,2.4c-0.91,1-1.38,2.12-1.4,3.44c-0.01,0.78,0,1.56,0,2.17
		c0.27,0.55,0.46,0.98,0.67,1.39c0.43,0.87,1.1,1.46,1.87,2.07c1.43,1.15,3.11,1.19,4.73,1.53c0.97,0.2,1.92-0.12,2.87-0.31
		c1.41-0.28,2.72-0.71,3.81-1.72c0.76-0.71,1.26-1.57,1.65-2.35c0.17-0.85,0.43-1.58,0.42-2.3
		C184.18,152.28,183.91,151.56,183.73,150.69z"/>
	<path class="st5" d="M224.68,154.71c-7.41,0-14.69,0-22.03,0c-0.21,0.98,0.35,1.73,0.83,2.3c1.25,1.5,2.83,2.46,4.87,2.75
		c1.08,0.16,2.13,0.29,3.21,0.27c1.54-0.03,3.02-0.37,4.38-1.12c0.18-0.1,0.37-0.19,0.52-0.27c0.32-0.43,0.63-0.86,0.95-1.28
		c1.27,0,2.49,0,3.71,0c1.16,0,2.32,0,3.52,0c0,0.4,0,0.72,0,1.21c-0.12,0.12-0.47,0.31-0.56,0.59c-0.44,1.36-1.62,2.08-2.63,2.87
		c-1,0.79-2.26,1.21-3.45,1.73c-1.51,0.66-3.12,0.78-4.66,1.25c-0.87,0.26-1.88,0.11-2.82,0.03c-0.9-0.08-1.81,0.23-2.73-0.25
		c-0.62-0.32-1.44-0.19-2.18-0.34c-1.93-0.39-3.64-1.19-5.29-2.18c-1.91-1.15-2.97-2.96-3.87-4.89c-0.24-0.51-0.5-1.08-0.5-1.62
		c-0.01-1.47-0.92-2.93-0.03-4.4c0.46-3.31,0.58-2.91,2.01-5.35c0.11-0.18,0.2-0.38,0.35-0.52c1.96-1.91,4.21-3.25,6.92-3.87
		c2.07-0.48,4.14-0.64,6.25-0.65c2.27-0.01,4.33,0.66,6.35,1.63c2.07,1,3.6,2.51,4.93,4.39c1,1.42,1.34,3.03,1.91,4.57
		C224.95,152.44,224.68,153.53,224.68,154.71z M217.24,150.3c-0.01-0.79-0.58-2-1.26-2.45c-1.63-1.08-3.36-1.87-5.4-1.88
		c-0.99,0-1.92,0.17-2.86,0.37c-2.07,0.43-4.35,1.3-4.95,3.97C207.6,150.3,212.42,150.3,217.24,150.3z"/>
	<path class="st5" d="M288.58,154.67c-7.38,0-14.66,0-21.94,0c-0.58,1.14,0.33,1.78,0.82,2.44c1.12,1.51,2.74,2.2,4.58,2.65
		c1.54,0.38,3.04,0.16,4.56,0.28c0.78-0.6,1.82-0.27,2.68-0.82c0.8-0.52,1.35-1.26,2.13-1.81c2.33,0,4.71,0,7.18,0
		c-0.02,1.05-0.51,1.85-1.12,2.56c-2.08,2.42-4.76,3.7-7.85,4.48c-2.37,0.6-4.74,0.8-7.09,0.55c-2.62-0.28-5.25-0.8-7.57-2.27
		c-1.1-0.7-2.26-1.36-2.98-2.42c-0.86-1.28-1.71-2.67-2.09-4.13c-0.34-1.32-0.69-2.77-0.4-4.19c0.28-1.38,0.45-2.83,1.05-4.08
		c0.64-1.33,1.48-2.65,2.75-3.54c1.75-1.23,3.61-2.18,5.71-2.77c2.41-0.67,4.84-0.78,7.26-0.58c2.73,0.22,5.22,1.19,7.5,2.9
		c1.8,1.34,2.8,3.13,3.79,4.97c0.41,0.76,0.57,1.66,0.76,2.54C288.53,152.51,288.54,153.54,288.58,154.67z M266.36,150.34
		c1.41,0,2.62,0,3.83,0c1.22,0,2.45,0,3.67,0c1.28,0,2.56,0.03,3.84-0.01c1.17-0.03,2.37,0.14,3.58-0.12
		c-1.02-2.11-1.47-2.6-3.02-3.34c-2.19-1.04-4.99-1.1-7.43-0.39C268.8,147.08,267.4,148.26,266.36,150.34z"/>
	<path class="st5" d="M146.9,164.32c-1.08,0.17-2.11,0.24-3.06,0.54c-0.37,0.12-0.72,0.19-1.08,0.2c-1.17,0.02-2.34,0.06-3.51,0
		c-2.85-0.16-5.6-0.79-8.14-2.11c-2.76-1.43-4.54-3.71-5.45-6.69c-0.28-0.9-0.34-1.79-0.31-2.71c0.05-1.24-0.07-2.46,0.28-3.72
		c0.36-1.28,0.85-2.53,1.62-3.49c1.98-2.45,4.55-4.07,7.71-4.7c1.41-0.28,2.79-0.67,4.24-0.66c1.45,0.01,2.91-0.13,4.34,0.05
		c1.02,0.13,2.05,0.42,3.07,0.61c1.03,0.2,1.85,0.96,2.92,1.01c2.1,1.33,4.09,2.8,5.22,5.09c0.6,1.21,1.13,2.48,1.04,3.92
		c-0.07,1.05-0.08,2.12,0.01,3.17c0.06,0.79-0.23,1.48-0.49,2.14c-1.21,3.12-3.42,5.28-6.51,6.54c-0.33,0.14-0.69,0.22-1.02,0.36
		C147.49,164,147.22,164.16,146.9,164.32z M149.09,151.23c-0.36-0.62-0.66-1.17-0.99-1.7c-0.22-0.36-0.4-0.79-0.72-1.03
		c-1.8-1.34-3.87-2.03-6.1-2.16c-1.01-0.06-2.02,0.09-3.04,0.24c-1.45,0.22-2.73,0.74-3.92,1.44c-1.39,0.82-2.11,2.2-2.29,3.8
		c-0.08,0.77-0.02,1.56-0.01,2.33c0.02,1.02,1.2,2.88,2.03,3.55c1.87,1.5,4.1,1.76,6.35,1.99c0.82,0.09,1.59-0.28,2.36-0.29
		c1.27-0.02,2.4-0.47,3.4-1.08c1.83-1.12,3.04-2.73,2.92-5.05C149.06,152.63,149.09,151.96,149.09,151.23z"/>
	<path class="st5" d="M255.4,163.58c-0.62,1.16-1.92,1.19-3,1.43c-1.37,0.3-2.85,0.14-4.16-0.36c-1.5-0.58-2.56-1.76-3.13-3.29
		c-0.2-0.53-0.25-1.13-0.35-1.69c-0.76-4.38-0.08-8.81-0.4-13.27c-0.9,0-1.83,0-2.86,0c-0.16-0.85-0.06-1.68-0.08-2.48
		c-0.02-0.83,0-1.66,0-2.54c0.98,0,1.91,0,2.96,0c0-1.36,0-2.67,0-3.93c2.38-0.75,4.59-1.63,7.04-2.28c0,2.12,0,4.1,0,6.13
		c1.27,0,2.42,0,3.52,0c0.22,0.22,0.37,0.37,0.53,0.53c0,1.45,0,2.9,0,4.48c-0.64,0.01-1.28,0.03-1.93,0.04
		c-0.66,0.01-1.32,0-2.03,0c0,4,0,7.94,0,11.93c0.22,0.22,0.5,0.5,0.78,0.78c1.34,0,2.22-0.27,3.13-0.99
		C255.4,159.91,255.4,161.73,255.4,163.58z"/>
	<path class="st5" d="M113.3,164.35c-2.34,0-4.61,0-6.95,0c0-7.62,0-15.28,0-22.98c2.04,0,4.09,0,6.16,0
		c0.13,0.13,0.29,0.29,0.5,0.5c0,0.87,0,1.81,0,2.88c1.34-2.1,3.12-3.11,5.46-3.5c1.37-0.23,2.7-0.15,4.2-0.29
		c0,1.19,0.07,2.34-0.02,3.49c-0.08,1.06,0.4,2.2-0.38,3.23c-0.58,0-1.13,0.03-1.68-0.01c-1.7-0.12-3.19,0.52-4.67,1.24
		c-1.77,0.86-2.57,2.36-2.6,4.23c-0.06,3.34-0.02,6.68-0.02,10.02C113.3,163.54,113.3,163.92,113.3,164.35z"/>
	<path class="st5" d="M237.34,164.36c-2.32,0-4.59,0-6.91,0c0-9.76,0-19.49,0-29.34c2.24-0.14,4.55-0.01,6.91-0.08
		C237.34,144.75,237.34,154.48,237.34,164.36z"/>
</g>
</svg>
