<?xml version="1.0" encoding="utf-8"?>
<!-- Generator: Adobe Illustrator 26.1.0, SVG Export Plug-In . SVG Version: 6.00 Build 0)  -->
<svg version="1.1" id="Capa_1" xmlns="http://www.w3.org/2000/svg" xmlns:xlink="http://www.w3.org/1999/xlink" x="0px" y="0px"
	 viewBox="0 0 300 300" style="enable-background:new 0 0 300 300;" xml:space="preserve">
<style type="text/css">
	.st0{fill:#087639;}
	.st1{fill:#333333;}
</style>
<g>
	<path class="st0" d="M68.9278,170.9393c0.1658-0.014,0.3316-0.028,0.4975-0.042c0.0001,0,0.0027-0.013,0.0027-0.013
		c0.0375,0,0.075,0,0.1125,0l0.0092,0.0132c0.3883-0.063,0.7759-0.1754,1.1651-0.1812c3.5652-0.0531,7.1306-0.1169,10.696-0.122
		c10.6641-0.0153,21.3283-0.0054,31.9925-0.0054c16.5054,0,33.0108,0.0004,49.5162-0.0003
		c18.4949-0.0009,36.9899-0.0025,55.4849-0.0045c8.4676-0.0009,16.9352-0.0049,25.4028-0.0042
		c7.7355,0.0006,15.4711,0.009,23.2067,0.0081c7.6081-0.0009,15.2162-0.0091,22.8243-0.0141c0.2062-0.0001,0.4124,0,0.6679,0
		c0,1.2786,0,2.5373,0,3.831c-0.1169,0.0074-0.238,0.0217-0.3591,0.0217c-78.5376,0.0009-157.0753,0.0008-235.6129,0.0009
		c-1.7496,0-3.4994-0.0112-5.2487,0.0128c-0.4435,0.0061-0.6171-0.0949-0.5969-0.5734c0.0382-0.9044,0.0354-1.8124,0.001-2.7171
		c-0.0177-0.4658,0.1366-0.5871,0.5926-0.5853c5.1888,0.0197,10.3778,0.0044,15.5666,0.0351
		c1.2685,0.0075,2.5362,0.1484,3.8042,0.228c0.0066,0.0333,0.0134,0.0665,0.0202,0.0997c0.0323-0.0006,0.0646-0.0011,0.0968-0.0017
		c0.0584,0.0021,0.1168,0.0042,0.1753,0.0063C68.9451,170.9318,68.9278,170.9393,68.9278,170.9393z"/>
	<path class="st0" d="M42.5682,153.8112l-5.9471,0.0781c-0.4315-0.0402-0.8713-0.0334-1.3033,0.0057l-2.374-0.0796
		c-0.5314-0.0344-1.0662-0.0178-1.5997-0.0159l-1.0556,0.0104c-0.3668-0.067-0.7474-0.0927-1.1206-0.0809
		c-0.3985,0.0126-0.7949,0.0878-1.1923,0.1357c-0.0756-0.0414-0.1512-0.0829-0.2269-0.124
		c-0.0001,0.0003,0.0128,0.0005,0.0128,0.0005c-0.0506,0.106-0.1013,0.2121-0.1519,0.3182
		c-0.0525-0.0034-0.105-0.0067-0.1575-0.0101l0.0132-0.0101c-0.0472,0.0368-0.0945,0.0736-0.1417,0.1105
		c-0.0116,0.0083-0.0342,0.0193-0.0329,0.0244c0.0055,0.0219,0.0179,0.0421,0.0278,0.0628c0.032,0.0318,0.0639,0.0636,0.0959,0.0955
		c0.033,0.0373,0.0659,0.0746,0.0988,0.112l-0.0119-0.0193c0.0358,0.0702,0.0716,0.1405,0.1073,0.2107l-0.0157-0.0173
		c0.0535,0.0358,0.107,0.0715,0.1605,0.1073c0.0271,0.0318,0.0543,0.0637,0.0814,0.0955c0.0498-0.0043,0.0995-0.0086,0.1493-0.0129
		c0.0315,0.0221,0.063,0.0441,0.0945,0.0662c-0.3846,0.7932-0.7692,1.5865-1.1538,2.3797
		c-0.0491-0.0168-0.0981-0.0335-0.1472-0.0503c-0.3057-0.8624-0.6047-1.7272-0.9189-2.5865
		c-0.3036-0.8305-0.4833-0.9177-1.4526-0.7189c0.4434,1.5307,0.8859,3.0583,1.3752,4.7478
		c-3.2905-1.4957-6.4518-2.9327-9.6037-4.3654c0.5926,0.4155,1.1737,0.9082,1.8283,1.267c2.517,1.3795,5.0537,2.7233,7.5932,4.0612
		c0.3979,0.2096,0.6371,0.4811,0.7491,0.9115c0.1999,0.7673,0.4334,1.5258,0.6456,2.29c0.1196,0.4308,0.2247,0.8656,0.3695,1.4273
		c-4.4789-2.0844-8.8235-4.1063-13.1681-6.1281c-0.0108,0.1307,0.0256,0.1742,0.0716,0.2017
		c2.8731,1.7177,5.7377,3.4497,8.6242,5.1447c1.7498,1.0275,3.5314,2.0014,5.3043,2.9893c0.2565,0.1429,0.5396,0.3055,0.8329,0.046
		c0.2779-0.2459,0.3685-0.5368,0.2575-0.8993c-0.0974-0.3184-0.1251-0.6644-0.2605-0.9635
		c-0.3045-0.6722-0.1117-1.2005,0.3197-1.7479c1.9328-2.4521,3.842-4.9228,5.7597-7.3868
		c-0.0061,0.0002-0.0121,0.0004-0.0182,0.0006c0.0498,0.0106,0.0995,0.0212,0.1493,0.0318c0.0343-0.017,0.0687-0.034,0.103-0.0511
		c0.031-0.0312,0.0621-0.0625,0.0931-0.0937c0.0505,0.0072,0.1011,0.0144,0.1516,0.0216l-0.0132-0.0101
		c0.0525-0.0034,0.105-0.0067,0.1575-0.0101c0.0313,0.0632,0.0626,0.1264,0.094,0.1896c0.0142,0.0349,0.0283,0.0698,0.0424,0.1047
		c0.0141-0.0349,0.0283-0.0697,0.0424-0.1046c0.0315-0.0634,0.063-0.1269,0.0945-0.1902c0.052,0.0104,0.104,0.0208,0.156,0.0312
		l-0.0138,0c0.0998,0.0575,0.1996,0.115,0.2994,0.1725c0.1428,0.048,0.2856,0.096,0.4284,0.1439
		c-0.0036-0.0518-0.0072-0.1036-0.0108-0.1554c0.0517,0.0065,0.1033,0.0131,0.1549,0.0197c0,0-0.0125-0.0108-0.0125-0.0108
		c0.0691,0.0031,0.1382,0.0063,0.2073,0.0094c0,0-0.0151-0.0071-0.0151-0.0071c0.0498-0.0361,0.0996-0.0721,0.1495-0.1082
		c0.034,0.0001,0.0681,0.0003,0.1021,0.0004c0.0004,0.0652,0.0008,0.1305,0.0012,0.1957c-0.0018,0.0372-0.0036,0.0743-0.0054,0.1114
		l-0.0141-0.014c0.0382-0.0178,0.0763-0.0356,0.1145-0.0535l0.007,0.0155c0.0006-0.028,0.014-0.0467,0.0404-0.0562
		c0.0272-0.0005,0.0543,0.0001,0.0814,0.0019c0.0686,0,0.1372,0,0.2058,0c0.0277,0.0647,0.0555,0.1294,0.0832,0.1941
		c0.0471-0.1635,0.0943-0.327,0.1414-0.4906c0.0667,0.0635,0.1333,0.127,0.2,0.1905c0.0332,0.032,0.0664,0.064,0.0996,0.096
		c-0.0065,0.0533-0.0129,0.1066-0.0194,0.1599l0.0059-0.0157c0.0382,0.0178,0.0763,0.0356,0.1145,0.0535l-0.0188,0.0059
		c0.0365,0,0.0729,0,0.1094,0l-0.0168-0.0138c0.0536,0.0358,0.1071,0.0716,0.1607,0.1074l-0.0152,0
		c0.0536-0.0358,0.1071-0.0716,0.1607-0.1074l-0.0147,0.0174c0.0299-0.0679,0.0598-0.1359,0.0898-0.2039
		c0.0369-0.0173,0.0738-0.0345,0.1107-0.0517c0.0611-0.0572,0.1222-0.1144,0.1833-0.1716c0.0711,0.0545,0.1422,0.109,0.2133,0.1634
		l-0.0159-0.0016c0.0763,0.0866,0.1526,0.1731,0.2289,0.2597c0.0684-0.0001,0.1367-0.0002,0.2051-0.0003l-0.014,0.0019
		c0.0519-0.0519,0.1039-0.1037,0.1558-0.1556l-0.0029,0.0148c-0.003-0.0527-0.0061-0.1055-0.0091-0.1582
		c0.0674-0.0964,0.1347-0.1928,0.2021-0.2892c0.0714,0.1583,0.1428,0.3166,0.2143,0.4748l0.0128,0.0162
		c0.0522,0.0008,0.1044,0.0016,0.1566,0.0024l-0.0164-0.0141c0.0535,0.0358,0.107,0.0715,0.1605,0.1073
		c0.0271,0.0317,0.0543,0.0634,0.0814,0.0951c0.0683-0.0001,0.1366-0.0003,0.2049-0.0004c0.0509-0.0274,0.1018-0.0548,0.1527-0.0823
		c0-0.0001,0.0229-0.0141,0.0229-0.0141c0.0688,0.0004,0.1376,0.0007,0.2064,0.0011c0.0586-0.0323,0.1172-0.0645,0.1758-0.0968
		c0.0691,0.0074,0.1382,0.0147,0.2074,0.0221l-0.0138,0.0001c0.0821-0.0032,0.1642-0.0064,0.2463-0.0095l-0.0139-0.0145
		c0.0382-0.0179,0.0765-0.0357,0.1147-0.0536l-0.0008,0.0146c0.1235-0.0237,0.2469-0.0474,0.3704-0.0711l0.005,0.0267l0.0063-0.0267
		c0.1238,0.0176,0.2475,0.0353,0.3712,0.053c-0.0001,0.0001-0.0011,0.0018-0.0011,0.0018c0.0406,0.0419,0.0812,0.0839,0.1218,0.1258
		c0.5004,3.031-0.4314,5.6773-2.4192,7.8963c-2.3864,2.664-5.4289,3.8872-9.049,3.4995c-0.6288-0.0673-0.7402,0.074-0.6425,0.6667
		c0.3405,2.0648,0.374,4.1323,0.0255,6.202c-0.0656,0.3897-0.2359,0.578-0.6573,0.5495c-0.2972-0.0201-0.5995,0.0403-0.9,0.059
		c-0.0596,0.0037-0.1208-0.0193-0.221-0.0371c0.4215-2.2727,0.3307-4.5109-0.2889-6.8137
		c-0.3057,0.1427-0.5701,0.2369-0.8043,0.3804c-1.0288,0.6301-2.0317,1.3037-3.075,1.9082
		c-3.8789,2.2476-8.7976,1.3607-11.7208-2.0306c-2.0752-2.4075-3.5891-5.1519-4.8937-8.0101
		c-1.6611-3.6392-3.4893-7.1826-5.5989-10.5815c-0.0495-0.0798-0.0942-0.1625-0.1167-0.3233
		c3.956,2.3912,8.1613,3.6423,12.8562,2.9597c-0.1426-0.736-0.2926-1.4265-0.4079-2.1227c-0.279-1.685-0.3317-3.3889-0.1062-5.0734
		c0.4205-3.1412,0.9514-6.2676,1.3982-9.4055c0.1473-1.0347,0.1769-2.0861,0.2607-3.1299c0.0146-0.1816,0.0313-0.3631,0.1555-0.5676
		c0.2701,0.4226,0.5634,0.8323,0.8063,1.27c1.077,1.9405,2.6237,3.4361,4.3615,4.7858c1.6916,1.3139,3.3104,2.7212,4.9627,4.0857
		c0.0585,0.0483,0.1334,0.0769,0.2409,0.1372c0.4973-0.9775,0.9799-1.9358,1.4712-2.8896c1.0235-1.9867,2.0561-3.9688,3.0718-5.9594
		c0.1183-0.2319,0.2174-0.5056,0.2185-0.7604c0.0145-3.1467,0.0093-6.2935,0.0078-9.4403c0-0.0783-0.015-0.1565-0.0279-0.2823
		c-0.362,0-0.72,0-1.1154,0c0-0.5144,0-0.9826,0-1.5311c0.2012,0,0.4158,0.0027,0.6304-0.0007
		c0.2443-0.0039,0.5257,0.0744,0.5853-0.3111c0.0085-0.055,0.2021-0.1158,0.3103-0.1161c2.1168-0.0068,4.2336-0.0053,6.3504-0.0042
		c0.0787,0,0.2159-0.0081,0.2274,0.0234c0.2206,0.6053,0.7593,0.307,1.221,0.4216c0,0.4676,0,0.9446,0,1.4672
		c-0.3217,0-0.664,0-1.0673,0c0,0.2271,0,0.4116,0,0.5961c0,3.0673-0.0098,6.1347,0.0122,9.2019
		c0.0028,0.3949,0.0946,0.8278,0.2743,1.1768c1.5957,3.0984,3.2266,6.1787,4.8351,9.2706c1.4417,2.7713,2.8705,5.5493,4.3,8.3268
		c0.3154,0.6128,0.1834,1.2106-0.336,1.6677c-0.44,0.3871-0.9683,0.5266-1.5361,0.5618c-1.2531,0.0777-2.5061,0.158-3.7595,0.231
		L42.5682,153.8112z M33.6384,122.9048c0,0.2172,0,0.3885,0,0.5599c0,3.035,0.007,6.0701-0.0092,9.105
		c-0.002,0.3698-0.0492,0.7796-0.2129,1.1011c-0.6659,1.3078-1.4068,2.5773-2.08,3.8816c-0.9241,1.7904-1.8229,3.5942-2.7065,5.4049
		c-0.1883,0.3859-0.2094,0.8541-0.4022,1.2368c-1.1849,2.3515-2.4012,4.6871-3.5943,7.0345
		c-0.1427,0.2807-0.208,0.6005-0.3313,0.9679c0.4136,0.0304,0.7087,0.0699,1.0039,0.0712
		c4.1878,0.0176,8.3756,0.0285,12.5634,0.0441c2.592,0.0097,5.1854,0.0827,7.7754,0.0172c1.7899-0.0453,1.8862-0.3778,1.1186-1.84
		c-1.4214-2.7077-2.8908-5.3903-4.3253-8.0912c-1.4474-2.7253-2.8834-5.4568-4.306-8.1951c-0.186-0.358-0.3652-0.7708-0.3726-1.1614
		c-0.0361-1.9218-0.0125-3.8447-0.0112-5.7672c0.001-1.4417,0.0002-2.8833,0.0002-4.3694
		C36.3712,122.9048,35.0457,122.9048,33.6384,122.9048z M19.5531,137.7937c-0.0263,0.0243-0.0526,0.0486-0.0788,0.073
		c1.2515,4.0092,2.5029,8.0183,3.7775,12.1013c0.2797-0.4903,0.4975-0.8461,0.2967-1.4137
		c-1.0879-3.0745-2.1055-6.1737-3.1819-9.2524C20.1804,138.7696,19.8284,138.295,19.5531,137.7937z"/>
	<path class="st0" d="M67.3251,165.9633c0.5387,0.4355,1.0762,0.8701,1.674,1.3535c-0.6406,0.4436-1.2434,0.8697-1.8557,1.2818
		c-0.38,0.2558-0.7867,0.6994-1.159,0.6776c-0.4014-0.0236-0.7838-0.4825-1.1619-0.768c-0.8873-0.6701-1.7497-1.3749-2.66-2.0117
		c-0.2896-0.2026-0.6974-0.3259-1.0532-0.3306c-2.2062-0.0294-4.4189,0.0881-6.618-0.04c-2.9035-0.1691-4.9238-2.4137-4.9249-5.0787
		c-0.0005-1.2366-0.0389-2.4897,0.1386-3.7064c0.3609-2.4739,2.7067-4.4136,5.2097-4.4219c3.597-0.012,7.1941-0.013,10.7912,0.0001
		c2.837,0.0103,5.2585,2.3905,5.3107,5.2362c0.023,1.2526,0.0293,2.5134-0.0865,3.7585c-0.135,1.4514-0.9424,2.5838-2.0983,3.4273
		C68.4178,165.6427,67.861,165.7496,67.3251,165.9633z M63.0612,163.3142c0.2001-0.5579,0.4448-0.9461,0.4635-1.3449
		c0.0677-1.4418,0.1106-2.8887,0.0662-4.3307c-0.0506-1.6454-1.2322-3.003-3.0614-2.8321
		c-0.2523,0.0236-0.5088,0.0052-0.7634,0.0023c-1.6615-0.0188-2.8588,1.1419-2.8749,2.8085
		c-0.0124,1.2867-0.0216,2.5741,0.0089,3.8602c0.0095,0.4023,0.0784,0.8368,0.2489,1.1954c0.5061,1.0638,1.384,1.8967,3.1672,1.598
		c0.1317-0.1904,0.1964-0.3605,0.3198-0.4476c0.3366-0.2373,0.7146-0.417,1.0455-0.6611
		C62.1207,162.8384,62.5338,162.5706,63.0612,163.3142z"/>
	<path class="st1" d="M114.746,167.3754c0-0.2253,0-0.3965,0-0.5677c0-1.6847-0.0085-3.3694,0.0066-5.054
		c0.0033-0.3675-0.1364-0.5884-0.4468-0.7632c-0.9419-0.5307-1.8855-0.59-2.868-0.1055c-0.3157,0.1557-0.4363,0.3537-0.4334,0.7033
		c0.0143,1.7319,0.0073,3.464,0.0077,5.196c0,0.1573,0,0.3147,0,0.5458c-2.2736,0-4.5168,0-6.7975,0c0-3.2353,0-6.4374,0-9.6868
		c2.233,0,4.4775,0,6.7838,0c0,0.2612,0.0128,0.5264-0.003,0.7898c-0.0246,0.4112,0.1782,0.4745,0.5002,0.3336
		c0.4507-0.1972,0.89-0.4204,1.3401-0.6191c2.0302-0.8966,4.1171-1.2221,6.252-0.4466c0.6903,0.2507,1.3337,0.6612,1.9502,1.0712
		c0.327,0.2175,0.5172,0.2338,0.8597,0.0273c2.71-1.6338,5.5343-1.9035,8.4651-0.6201c0.1014,0.0444,0.1945,0.1073,0.294,0.1567
		c1.0854,0.5385,1.6465,1.2827,1.552,2.6216c-0.1373,1.9451-0.0334,3.9071-0.0354,5.862c-0.0002,0.1706-0.0222,0.3412-0.0361,0.5417
		c-2.239,0-4.4416,0-6.6946,0c-0.0079-0.1754-0.0218-0.3438-0.0219-0.5122c-0.0016-1.7006-0.0102-3.4012,0.0062-5.1017
		c0.0036-0.3713-0.1453-0.582-0.4529-0.7567c-0.9952-0.5652-1.9774-0.5855-2.9936-0.0401
		c-0.3855,0.2069-0.5428,0.4538-0.5367,0.8952c0.0225,1.6208,0.0107,3.2421,0.0067,4.8632
		c-0.0005,0.2171-0.0303,0.4342-0.0477,0.6663C119.1843,167.3754,117.0073,167.3754,114.746,167.3754z"/>
	<path class="st0" d="M213.4278,156.2153c-2.6031,0-5.1742,0-7.7791,0c0,0.8337,0,1.6197,0,2.4821c2.3854,0,4.7716,0,7.2328,0
		c0,0.8548,0,1.6347,0,2.4681c-2.4156,0-4.8103,0-7.2604,0c-0.0244,0.2924-0.0616,0.538-0.0627,0.7837
		c-0.0059,1.351-0.0055,2.702-0.0011,4.053c0.0009,0.2616-0.01,0.4587-0.3675,0.4568c-2.1167-0.0115-4.2335-0.0065-6.3503-0.0088
		c-0.0941-0.0001-0.1881-0.0177-0.333-0.0322c-0.0152-0.1518-0.0435-0.3035-0.0436-0.4552
		c-0.0024-4.1961,0.0024-8.3922-0.0095-12.5882c-0.0011-0.3784,0.1174-0.4843,0.489-0.4835
		c4.6797,0.0106,9.3593,0.0067,14.039,0.0082c0.1393,0,0.2787,0.0192,0.4464,0.0315
		C213.4278,154.0271,213.4278,155.097,213.4278,156.2153z"/>
	<path class="st1" d="M175.1512,157.6217c2.1815,0,4.3684,0,6.5804,0c0,3.2563,0,6.487,0,9.745c-2.2106,0-4.3976,0-6.6273,0
		c0-0.4463,0-0.884,0-1.4419c-0.207,0.1733-0.3315,0.2789-0.4576,0.3828c-0.8502,0.7004-1.8215,1.0898-2.9285,1.0805
		c-1.1114-0.0093-2.2388,0.0595-3.3304-0.1009c-2.4968-0.367-5.2935-3.1494-3.9036-6.5418
		c0.6845-1.6706,2.0215-2.7549,3.7781-3.0198c1.4108-0.2128,2.88-0.0926,4.3196-0.0326c0.4836,0.0201,0.9617,0.295,1.4319,0.4798
		C174.7245,158.452,174.951,158.3542,175.1512,157.6217z M174.9959,162.4842c0.0011,0,0.0022,0,0.0032,0
		c0-0.3959,0.0223-0.7934-0.0043-1.1875c-0.0712-1.0545-0.901-1.8373-1.9664-1.8795c-0.9439-0.0373-1.8988,0.6962-1.9937,1.6788
		c-0.0877,0.9083-0.0854,1.8403,0.0121,2.7475c0.105,0.9775,1.0894,1.7122,2.0181,1.6532c1.0479-0.0667,1.8549-0.8408,1.9268-1.8728
		C175.018,163.2457,174.9959,162.8642,174.9959,162.4842z"/>
	<path class="st1" d="M91.0765,167.2392c-2.2048,0-4.3909,0-6.6211,0c0-0.6698,0-1.3124,0-2.0185
		c-0.3057,0.3847-0.529,0.7448-0.8275,1.0251c-0.6605,0.6202-1.4952,0.9313-2.3755,0.9848c-1.231,0.0749-2.4849,0.169-3.7002,0.0204
		c-2.2838-0.2792-3.4876-2.6412-3.5117-4.3877c-0.0227-1.6521-0.0026-3.3048-0.0084-4.9572
		c-0.0008-0.2349,0.0272-0.4061,0.3204-0.4052c2.0833,0.0065,4.1665,0.0086,6.2498,0.0131c0.0131,0,0.0262,0.0151,0.086,0.0517
		c0.0093,0.1202,0.0308,0.2728,0.0314,0.4256c0.0066,1.5719,0.0072,3.1438,0.0155,4.7156c0.0029,0.5462,0.0638,1.084,0.4479,1.516
		c0.5562,0.6257,1.5019,0.7008,2.414,0.1971c0.1662-0.0918,0.3128-0.2189,0.4792-0.3102c0.1021-0.056,0.2246-0.0746,0.3837-0.1244
		c0-2.1064,0-4.2629,0-6.4519c2.2175,0,4.402,0,6.6165,0C91.0765,160.7731,91.0765,163.9892,91.0765,167.2392z"/>
	<path class="st1" d="M262.5595,167.363c0-0.4698,0-0.8952,0-1.4118c-0.1858,0.1483-0.3158,0.2483-0.4416,0.3531
		c-0.848,0.7063-1.8213,1.0881-2.9276,1.084c-1.0483-0.0039-2.1097,0.0599-3.1422-0.0783c-2.5175-0.337-4.2771-2.7402-3.9339-5.4146
		c0.3558-2.7725,2.2144-4.3192,5.0081-4.3089c0.968,0.0036,1.9416-0.0044,2.9016,0.0973c0.5211,0.0552,1.0214,0.3229,1.5266,0.5071
		c0.6949,0.2534,0.8754,0.1673,1.0665-0.5624c2.1772,0,4.3628,0,6.583,0c0,3.244,0,6.4735,0,9.7345
		C266.9928,167.363,264.8068,167.363,262.5595,167.363z M262.4648,162.4745c0-0.349,0.0025-0.698-0.0005-1.047
		c-0.0094-1.1049-0.8758-1.985-1.9771-2.0105c-1.0478-0.0243-1.9899,0.8508-2.0304,1.9221
		c-0.0275,0.7285-0.0269,1.4595-0.0028,2.1883c0.0363,1.0974,0.9826,1.9993,2.0395,1.9698
		c1.0133-0.0282,2.0497-0.9114,1.9746-2.0236C262.4459,163.142,262.4648,162.8076,262.4648,162.4745z"/>
	<path class="st1" d="M221.6324,157.583c1.3208,0,2.6416,0.0021,3.9624-0.0005c1.8918-0.0038,3.3109,0.8439,4.2169,2.4681
		c0.9404,1.6859,0.8928,3.4182-0.1132,5.0645c-0.9319,1.525-2.338,2.2784-4.1381,2.2772c-2.5778-0.0017-5.1556-0.0002-7.7334-0.0005
		c-2.2088-0.0002-4.0172-1.2697-4.6908-3.2923c-0.6817-2.0468-0.0064-4.3071,1.687-5.5902
		c0.8233-0.6238,1.7655-0.9233,2.7991-0.9255C218.959,157.5808,220.2956,157.583,221.6324,157.583z M219.2833,162.4833
		c0.0011,0,0.0022,0.0001,0.0033,0.0001c0,0.3648-0.0158,0.7304,0.0031,1.0942c0.0483,0.9315,0.5546,1.5351,1.4714,1.7337
		c0.2753,0.0596,0.5673,0.0583,0.8516,0.0584c1.1079,0.0003,1.9045-0.7434,1.9511-1.8479c0.0281-0.6653,0.0293-1.3338-0.0012-1.9989
		c-0.0517-1.1297-0.6501-1.7825-1.7296-1.9212c-0.2351-0.0302-0.4764-0.0184-0.7148-0.0161
		c-0.9467,0.0091-1.745,0.7202-1.8289,1.6609C219.2529,161.6555,219.2833,162.0707,219.2833,162.4833z"/>
	<path class="st1" d="M161.9858,163.9859c-0.5935,2.0292-2.4111,3.4031-4.4183,3.4051c-2.6896,0.0027-5.3792,0.0012-8.0687,0.0006
		c-2.4034-0.0005-4.3648-1.6916-4.7176-4.0676c-0.2987-2.011,0.3421-3.6541,1.9555-4.8994c0.7269-0.561,1.5767-0.8304,2.4864-0.8357
		c2.8169-0.0162,5.6341-0.0174,8.451-0.0018c1.8721,0.0103,3.7278,1.4066,4.2797,3.1785c0.013,0.0417,0.0016,0.0909,0.0016,0.1824
		c-0.1571,0.0104-0.3081,0.0288-0.4592,0.029c-1.9258,0.002-3.8516-0.0057-5.7772,0.008c-0.3268,0.0023-0.4952-0.0921-0.6522-0.3969
		c-0.4477-0.8695-1.3946-1.2879-2.2321-1.0487c-0.9287,0.2652-1.5748,1.1432-1.5572,2.0982
		c0.012,0.6513,0.0083,1.3029,0.0112,1.9544c0.0047,1.0618,0.621,1.8861,1.577,2.1091c0.9667,0.2255,1.7972-0.1933,2.2545-1.2159
		c0.1771-0.396,0.3856-0.5164,0.8111-0.5104c1.8299,0.026,3.6604,0.0111,5.4906,0.0111
		C161.5932,163.9859,161.7643,163.9859,161.9858,163.9859z"/>
	<path class="st1" d="M233.0478,153.9696c2.2717,0,4.4924,0,6.741,0c0,4.4681,0,8.9102,0,13.3884c-2.2476,0-4.4793,0-6.741,0
		C233.0478,162.8955,233.0478,158.4547,233.0478,153.9696z"/>
	<path class="st1" d="M272.5645,167.3269c0-0.6773-0.0007-1.3265,0.0001-1.9757c0.0028-2.413,0.0174-4.8261-0.0011-7.239
		c-0.0033-0.4311,0.1275-0.5294,0.5396-0.5256c1.8615,0.0173,3.7233,0.0007,5.585-0.0036c0.1411-0.0003,0.2822,0,0.5055,0
		c0,0.3897,0.0055,0.7471-0.0016,1.1042c-0.0068,0.3419,0.1778,0.3681,0.4337,0.2704c0.0872-0.0333,0.1685-0.0907,0.242-0.15
		c1.5739-1.27,3.3862-1.3768,5.3161-1.1033c0,1.3289,0,2.6376,0,3.9423c-0.9663-0.1616-1.9135-0.3469-2.8686-0.4713
		c-0.7823-0.1019-1.5456-0.0381-2.239,0.435c-0.2034,0.1388-0.5066,0.1317-0.8226,0.2051c0,1.7981,0,3.6344,0,5.5115
		C277.0157,167.3269,274.8302,167.3269,272.5645,167.3269z"/>
	<path class="st1" d="M101.1931,167.3682c-2.1835,0-4.3407,0-6.5617,0c-0.0207-0.4265-0.058-0.8478-0.0589-1.2692
		c-0.0054-2.6682,0.0043-5.3364-0.0101-8.0046c-0.0022-0.4013,0.1324-0.5099,0.523-0.5065c1.8764,0.0166,3.753,0.0072,5.6295,0.0022
		c0.2745-0.0007,0.495-0.004,0.4947,0.3845c-0.0028,3.0646,0.0092,6.1293,0.0155,9.1939
		C101.2252,167.2151,101.2107,167.2618,101.1931,167.3682z"/>
	<path class="st1" d="M141.9783,167.3667c-2.194,0-4.3511,0-6.6254,0c0-0.6881,0-1.35,0-2.0119
		c0-2.3836,0.0103-4.7673-0.0085-7.1508c-0.0037-0.4744,0.1377-0.6261,0.6243-0.6191c1.8448,0.0262,3.6902,0.0108,5.5353,0.0048
		c0.2803-0.0009,0.4893,0.0081,0.489,0.3913c-0.0026,3.0506,0.0104,6.1011,0.0172,9.1517
		C142.0104,167.1944,141.9939,167.2562,141.9783,167.3667z"/>
	<path class="st1" d="M249.5504,167.3636c-2.1755,0-4.344,0-6.5706,0c0-3.2601,0-6.4899,0-9.7503c2.1791,0,4.3494,0,6.5706,0
		C249.5504,160.8598,249.5504,164.0994,249.5504,167.3636z"/>
	<path class="st1" d="M138.5407,154.4489c0.683,0,1.366-0.0051,2.049,0.0014c0.6781,0.0065,1.1245,0.4327,1.1425,1.0762
		c0.0197,0.7002-0.4181,1.1732-1.135,1.1795c-1.3818,0.0122-2.7637,0.0098-4.1456,0.0012
		c-0.7261-0.0045-1.1764-0.4601-1.1691-1.1495c0.007-0.6596,0.4622-1.0998,1.1616-1.1072
		C137.1429,154.4432,137.8418,154.4489,138.5407,154.4489z"/>
	<path class="st1" d="M246.0838,156.7097c-0.6826-0.0002-1.3655,0.01-2.0479-0.0029c-0.7738-0.0146-1.1714-0.4123-1.1654-1.1359
		c0.006-0.7173,0.4226-1.1181,1.1838-1.1208c1.3335-0.0047,2.6671-0.006,4.0007,0.0004c0.8366,0.004,1.251,0.4008,1.2402,1.1628
		c-0.01,0.7054-0.455,1.0941-1.2587,1.0962C247.3857,156.7112,246.7347,156.7099,246.0838,156.7097z"/>
	<path class="st1" d="M94.6559,156.8403c0.7475-0.9232,1.4899-1.8507,2.2494-2.764c0.0886-0.1065,0.2715-0.1894,0.4115-0.1905
		c1.6352-0.0131,3.2706-0.0084,4.9548,0.0797c-0.1256,0.0981-0.2458,0.2043-0.3777,0.2931c-1.1854,0.7986-2.3628,1.61-3.5671,2.3792
		c-0.2895,0.1849-0.6666,0.3021-1.0101,0.3198c-0.8687,0.0446-1.7412,0.0148-2.6122,0.0148
		C94.6883,156.9284,94.6721,156.8844,94.6559,156.8403z"/>
	<path class="st0" d="M33.9974,155.9296c-1.6741,2.1915-3.4334,4.3028-5.6856,6.0379c-0.0578-0.1606-0.1053-0.2811-0.1447-0.4042
		c-0.284-0.8888-0.5563-1.7814-0.8536-2.6657c-0.1316-0.3914-0.0935-0.7223,0.1309-1.0773
		c0.4058-0.6421,0.7438-1.3277,1.1606-1.9619c0.1698-0.2583,0.4715-0.4301,0.7132-0.6413c0,0-0.0163-0.0081-0.0163-0.0081
		c0,0.0001,0.0067,0.0105,0.0067,0.0105c0.0686,0.0213,0.1372,0.0426,0.2059,0.0639c0.0346,0.0345,0.0691,0.0689,0.1036,0.1034
		c0.0464,0.0664,0.0927,0.1328,0.1391,0.1992c0,0-0.0121-0.0008-0.0121-0.0008c0.0519-0.0518,0.1038-0.1036,0.1557-0.1555
		c-0.0014-0.0261-0.0024-0.0421-0.0027-0.0482c0.0154-0.0873,0.0307-0.1746,0.0461-0.2618l-0.0088-0.0133
		c0.0686,0,0.1371,0,0.2057,0c0,0-0.0152-0.0005-0.0152-0.0005c0.0532,0.0009,0.1064,0.0018,0.1595,0.0027
		c0,0-0.0162-0.013-0.0162-0.013c0.0983,0.0635,0.1966,0.127,0.2949,0.1905c0.0314,0,0.0627,0,0.0941,0
		c0.0342,0.0047,0.0685,0.0094,0.1027,0.0141l-0.0157-0.013c0.0374,0.0329,0.0747,0.0659,0.1121,0.0988
		c0.0311,0.0678,0.0621,0.1356,0.0932,0.2033l-0.0152-0.0146c0.0531,0.038,0.1063,0.076,0.1594,0.114l-0.0132-0.0101
		c0.0688-0.0004,0.1376-0.0009,0.2064-0.0013c0.0268-0.0314,0.0536-0.0629,0.0803-0.0943c0.068,0.0035,0.1361,0.007,0.2041,0.0105
		c0,0-0.0132-0.0101-0.0132-0.0101c0.0532,0.0006,0.1064,0.0011,0.1597,0.0017l-0.0189-0.0132
		c0.0536,0.0358,0.1071,0.0716,0.1607,0.1074l-0.0144-0.0002c0.0684-0.0002,0.1368-0.0003,0.2052-0.0004
		c0,0-0.0156-0.0012-0.0156-0.0012c0.0688,0.0004,0.1376,0.0007,0.2064,0.0011c0.0592,0.0324,0.1184,0.0648,0.1776,0.0972
		c0.0533-0.0352,0.1066-0.0705,0.1599-0.1057c0,0-0.02,0.0113-0.02,0.0113c0.069-0.052,0.138-0.1039,0.207-0.1559
		c0,0,0.0105-0.0243,0.0105-0.0244c0-0.0001,0.0236-0.0134,0.0236-0.0134c0.0889,0.0091,0.1777,0.0181,0.2666,0.0272l-0.0169-0.0005
		c-0.0035,0.0358-0.0071,0.0717-0.0106,0.1075c0.0381,0.0178,0.0763,0.0356,0.1144,0.0534c0,0-0.0218,0.0045-0.0217,0.0045
		c0.0691,0.0005,0.1383,0.001,0.2074,0.0014l-0.0129-0.0154c0.0053,0.0341,0.0105,0.0683,0.0158,0.1026
		c0,0.0002-0.0202,0.0118-0.0202,0.0118l0.0076-0.0241c0.0515,0.0057,0.1029,0.0114,0.1544,0.0171
		c0.0267-0.0635,0.0535-0.127,0.0802-0.1904c0.0819,0.0066,0.1638,0.0133,0.2457,0.0199c0,0-0.0173-0.0058-0.0172-0.0058
		c0.0001,0,0.0105,0.0249,0.0105,0.0249c0.0382,0.0178,0.0763,0.0356,0.1145,0.0535l-0.0184,0.0059
		c0.0371-0.0003,0.0741-0.0007,0.1112-0.001c0,0-0.0145-0.016-0.0145-0.016c0.0181,0.0751,0.0361,0.1502,0.0542,0.2253
		c-0.0367,0.001-0.0595,0.0192-0.0684,0.0547C33.9825,155.9443,33.9974,155.9296,33.9974,155.9296z"/>
</g>
</svg>
