<?xml version="1.0" encoding="utf-8"?>
<!-- Generator: Adobe Illustrator 26.1.0, SVG Export Plug-In . SVG Version: 6.00 Build 0)  -->
<svg version="1.1" id="Capa_1" xmlns="http://www.w3.org/2000/svg" xmlns:xlink="http://www.w3.org/1999/xlink" x="0px" y="0px"
	 viewBox="0 0 300 300" style="enable-background:new 0 0 300 300;" xml:space="preserve">
<style type="text/css">
	.st0{fill:#006837;}
</style>
<g>
	<path class="st0" d="M293.3801,110.7643c0,33.7677,0,67.5354,0,101.303c-1.3153,1.9905-2.54,4.0484-3.9623,5.9593
		c-4.8025,6.4521-10.764,10.4379-19.2956,10.4717c-49.8514,0.198-99.7019,0.6286-149.553,0.9102
		c-18.1619,0.1026-36.3249,0.008-54.4875,0.0139c-1.911,0.0006-3.8222,0.0639-5.7329,0.1131
		c-10.339,0.2663-20.6785,0.7689-31.0165,0.7387c-9.4996-0.0278-17.8374-7.1553-19.6621-16.4846
		c-0.7291-3.7277-1.0409-7.573-1.1568-11.3764c-0.1987-6.5241-0.1051-13.0573-0.1147-19.5868
		c-0.0228-15.4483-0.0672-30.8966-0.032-46.3448c0.012-5.2554,0.5235-5.6718,5.798-5.7856c1.1148-0.024,2.2304-0.011,3.3456-0.0112
		c15.932-0.0019,31.8644,0.0553,47.7959-0.0432c4.2847-0.0265,8.563-0.6308,12.8507-0.774
		c3.2841-0.1096,4.3778,1.2704,2.7927,4.0653c-5.3453,9.4253-8.0225,20.6314-17.7828,27.1733
		c-0.2603,0.1744-0.6007,0.3983-0.6698,0.6607c-0.3859,1.4655-1.2209,3.0993-0.8551,4.3755
		c0.2444,0.8528,2.2441,1.7243,3.4375,1.6965c6.1966-0.1444,12.3879-0.5517,18.5779-0.9208
		c1.8095-0.1079,2.844-1.2121,3.3096-2.9436c0.4745-1.7643-0.6193-2.51-1.8363-3.4377c-3.3255-2.5348-3.8268-4.3161-2.2622-8.2348
		c1.2977-3.2503,2.8703-6.3899,4.2583-9.6056c0.9113-2.1114,2.5163-3.4016,4.721-3.5222c3.1443-0.172,6.3073-0.0298,9.4618,0.0168
		c5.8851,0.0868,6.389-0.7144,7.5215,7.6541c0.0639,0.4721,0.0552,0.9537,0.0919,1.4299
		c0.4328,5.6143,0.5589,10.9835-6.5219,12.9569c-0.8842,0.2464-1.7331,2.2283-1.7913,3.4446
		c-0.0837,1.7486,1.5442,2.1842,3.0784,2.2542c1.1134,0.0508,2.2293,0.063,3.3441,0.0664c4.3016,0.0132,8.6045,0.0817,12.9044-0.001
		c2.7581-0.0531,5.0068,0.8068,6.6361,3.0546c3.8193,5.2693,8.186,9.7564,14.9231,11.1779
		c0.7616,0.1607,1.8288,1.1472,1.8703,1.8063c0.0415,0.659-0.8871,1.7182-1.6312,2.0325
		c-4.8438,2.0464-7.1779,6.0901-8.8618,10.7001c-0.6461,1.7688-1.57,3.5482-0.0964,5.3618c1.0698-1.0308,2.1512-2.0499,3.2027-3.099
		c0.3354-0.3346,0.5792-0.759,0.8854-1.1252c4.422-5.2872,7.5859-6.0592,13.702-2.7384c8.2542,4.4816,16.302,9.3439,24.5703,13.7981
		c3.8958,2.0987,7.948,4.2119,12.1906,5.3072c14.2432,3.6767,23.5389-6.2368,25.1118-16.2414
		c0.09-0.5726-0.1213-1.1926-0.1924-1.7906c-0.5367,0.2588-1.1992,0.3965-1.5867,0.7989c-1.2102,1.2566-2.1343,2.8531-3.4965,3.8872
		c-4.4664,3.3909-9.5484,3.766-14.4715,1.4987c-10.1234-4.6622-20.0951-9.6565-30.0793-14.6147
		c-1.1823-0.5871-2.0522-1.8028-3.067-2.7272c1.3295-0.6263,2.6177-1.3745,4.0009-1.8419c1.194-0.4035,2.4876-0.5656,3.7515-0.7002
		c8.6687-0.9231,16.3181-4.4995,23.0685-9.7126c18.3593-14.1783,30.1879-32.111,31.1731-56.0342
		c0.1923-4.6688,0.62-5.1291,4.93-5.1323C248.7735,110.6451,271.0768,110.7208,293.3801,110.7643z"/>
	<path class="st0" d="M293.3801,104.0744c-23.7343,0.0373-47.4686,0.0515-71.2027,0.1409c-2.974,0.0112-5.0289-1.1382-6.9203-3.419
		c-6.9749-8.4112-15.8304-12.9685-26.9703-13.0217c-21.8789-0.1045-38.7121,9.8772-52.5914,25.8943
		c-1.9782,2.2829-3.6312,4.8514-5.6545,7.0893c-0.8708,0.9633-2.7997,2.266-3.3737,1.9285
		c-1.1433-0.6721-2.1225-2.2868-2.3894-3.6632c-0.8776-4.5259-1.5078-9.1076-2.0395-13.6903
		c-0.4946-4.2628-0.7439-8.5542-1.097-12.8333c-0.3073-3.7244-0.8667-4.3561-4.6772-4.4802
		c-3.5004-0.114-7.008-0.0321-10.5121,0.0024c-1.6945,0.0167-3.49,0.3995-3.5236,2.4109
		c-0.0882,5.2781-3.4076,9.1735-5.5259,13.5593c-2.491,5.1574-5.4149,10.1048-7.9456,15.2443
		c-1.3449,2.7314-3.1584,4.095-6.2845,4.1481c-13.3668,0.2269-26.7299,0.685-40.0969,0.8849
		c-9.5558,0.143-19.116,0.0553-28.6735-0.019c-4.9149-0.0382-5.4326-0.6175-5.4651-5.5667
		c-0.0407-6.2101-0.1525-12.4247,0.0246-18.6299c0.1808-6.3331,1.6855-12.25,6.1464-17.1443
		c4.6722-5.1261,10.285-7.902,17.2973-7.6564c1.5909,0.0557,3.1857,0.0057,4.7787-0.001
		c75.0158-0.3184,150.0316-0.6339,225.0474-0.9673c3.6434-0.0162,7.3277-0.5867,10.9209-0.2106
		c8.2504,0.8634,13.8298,5.9498,18.2404,12.5554c0.8815,1.3201,1.661,2.7083,2.4876,4.0651
		C293.3801,95.1547,293.3801,99.6146,293.3801,104.0744z"/>
	<path class="st0" d="M157.4892,129.0548c4.1256,1.0527,8.4011,1.719,12.3418,3.2479c6.0196,2.3355,11.0572,0.4317,15.5739-3.0955
		c4.4654-3.4871,3.4919-11.0795-1.6157-13.7905c-2.1997-1.1676-4.8127-1.5511-7.2296-2.3174
		c-3.3276-1.0551-4.8584-2.728-4.3895-4.7502c0.468-2.0182,3.5379-3.1314,6.5614-2.0291c1.5857,0.5781,3.1924,1.5738,4.3267,2.8065
		c1.8382,1.9977,3.7579,2.4954,6.3911,2.0255c8.3062-1.4823,8.9442-0.7459,7.6858,7.5652
		c-2.4398,16.1121-7.2712,31.35-16.9608,44.6549c-2.7728,3.8074-6.0449,7.4697-9.7754,10.2899
		c-2.7727,2.0962-6.5642,3.4144-10.0607,3.8754c-9.3454,1.2321-15.5268-3.8704-16.0467-13.2888
		c-0.2863-5.1859,0.3414-10.4659,1.0049-15.6462c0.5032-3.9283,1.6748-7.7755,2.6188-11.6418
		C149.6083,130.0263,150.1358,129.6424,157.4892,129.0548z"/>
	<path class="st0" d="M188.3262,104.6442c-2.9491-0.5568-5.9317-0.9787-8.839-1.7029c-4.0359-1.0053-7.875-1.0115-11.4798,1.3428
		c-2.8966,1.8917-4.5791,4.5697-4.2091,8.0182c0.3876,3.6117,2.4057,6.17,6.1199,7.0891c1.6984,0.4203,3.4167,0.7757,5.0889,1.283
		c1.9514,0.592,3.5528,1.6996,3.4689,3.9825c-0.085,2.3143-1.9192,3.1539-3.8029,3.7196c-2.9052,0.8725-5.5124-0.2404-7.4983-2.0849
		c-2.6829-2.492-5.6327-3.1666-9.1418-3.1149c-3.8912,0.0574-4.6643-1.0532-3.4452-4.6249
		c0.7632-2.2357,1.7914-4.4568,3.1057-6.4124c2.4825-3.694,5.1295-7.2957,7.9409-10.7463c3.998-4.9072,9.4293-7.5156,15.5469-8.6169
		c4.494-0.809,8.5556,0.5328,11.9285,3.572c1.0162,0.9156,1.8336,2.2358,2.308,3.5296c0.9589,2.6156,0.0863,3.9007-2.7194,4.2291
		c-1.4128,0.1654-2.8609,0.0289-4.293,0.0289C188.379,104.3054,188.3526,104.4748,188.3262,104.6442z"/>
	<path class="st0" d="M105.5045,119.8712c0.3268,2.4033-1.0338,3.4653-3.1774,3.834c-0.4619,0.0795-0.9558,0.0847-1.4204,0.0199
		c-5.4109-0.7545-7.7521-0.2669-4.1388-7.0107c1.4212-2.6525,2.7914-5.3338,4.2846-7.9451
		c0.4345-0.7598,1.2137-1.3226,1.8349-1.9757c0.4948,0.8979,1.1492,1.7467,1.4442,2.7059c0.3689,1.1997,0.5024,2.4841,0.6302,3.7428
		C105.1858,115.4475,105.3281,117.6611,105.5045,119.8712z"/>
	<path class="st0" d="M97.8661,132.0222c-2.087-0.0997-3.9943-0.1503-5.8912-0.3191c-0.3399-0.0302-0.6363-0.549-0.9528-0.8422
		c0.3125-0.3026,0.6208-0.8636,0.938-0.8687c3.9662-0.0634,7.9339-0.0668,11.9003-0.0116c0.3224,0.0045,0.6372,0.5501,0.9556,0.8443
		c-0.3135,0.2973-0.6068,0.8247-0.9437,0.8543C101.8172,131.8593,99.7522,131.9263,97.8661,132.0222z"/>
</g>
</svg>
