<svg id="Layer_1" data-name="Layer 1" xmlns="http://www.w3.org/2000/svg" width="237.78" height="237.78" viewBox="0 0 237.78 237.78"><title>Sociedad Quimica y Minera logo - Brandlogos.net</title><g id="layer1"><g id="g1835"><path id="path-1" d="M500.56,384A116.56,116.56,0,1,1,384,267.44,116.56,116.56,0,0,1,500.56,384Z" transform="translate(-265.11 -265.11)" style="fill:#fff"/><path id="path1748" d="M502.62,384A118.62,118.62,0,1,1,384,265.38,118.63,118.63,0,0,1,502.62,384Z" transform="translate(-265.11 -265.11)" style="fill:none;stroke:#fff;stroke-width:0.5291666388511658px"/><path id="Fill-5" d="M491.35,429.51c6-13.19,9.21-30.23,9.21-47,0-63.57-52.19-115.1-116.56-115.1S267.44,319,267.44,382.54c0,23,6.3,45.58,17.25,62.32,36-13.41,77.25-21.45,119.45-22.69a384.37,384.37,0,0,1,87.21,7.34Z" transform="translate(-265.11 -265.11)" style="fill:#80bc00"/><path id="Fill-7" d="M384.41,500.56A116.56,116.56,0,0,0,489.3,434a280.17,280.17,0,0,0-178,41.06c19.65,15.95,46.06,25.5,73.13,25.5Z" transform="translate(-265.11 -265.11)" style="fill:#003b7c"/><path id="Fill-9" d="M463.35,395.94a19.66,19.66,0,0,1-1,4.36h15.51a19.39,19.39,0,0,1-1-4.36v-15.6h0v-33c0-3.31,1-4.47,1-4.47h-17.5L459,345.59l-15.4,30.86-15.45-30.81-1.38-2.79h-17.5s1,1.13,1,4.47v48.61a19.69,19.69,0,0,1-1,4.36h15.51a19.38,19.38,0,0,1-1-4.36v-32l14.93,30.64h9.79l14.85-30.64,0,16.43h0v15.6ZM330.73,368.67a80.8,80.8,0,0,0-10-3.44q-4.06-1.23-6.14-2a10.76,10.76,0,0,1-3.48-2A4.07,4.07,0,0,1,309.7,358a3.32,3.32,0,0,1,1.62-3,8.23,8.23,0,0,1,4.44-1,29.51,29.51,0,0,1,8.83,1.72c3.51,1.15,8.42,3.23,9.36,5.67l6.28-13.2a41.21,41.21,0,0,0-10.78-4.71A44.91,44.91,0,0,0,317,341.71a32,32,0,0,0-12.24,2.17,18.19,18.19,0,0,0-8.13,6.19,15.67,15.67,0,0,0-2.86,9.34q0,5.65,2.78,9.05a17.4,17.4,0,0,0,6.68,5.08,76.33,76.33,0,0,0,9.87,3.32q4,1.06,6.18,1.84a10.77,10.77,0,0,1,3.65,2.09,4.24,4.24,0,0,1,1.45,3.28,4,4,0,0,1-1.95,3.61,10,10,0,0,1-5.35,1.23,28.67,28.67,0,0,1-10.66-2.46c-4-1.64-8.13-4.08-9.81-7.34l-6.49,12.74a39.44,39.44,0,0,0,12.4,6.84,43.5,43.5,0,0,0,14.39,2.5,33.05,33.05,0,0,0,11.9-2,18.6,18.6,0,0,0,8.42-6.1,15.76,15.76,0,0,0,3.07-9.79,14.55,14.55,0,0,0-2.82-9.3,17.45,17.45,0,0,0-6.76-5.28Zm57.1,12.11a17.79,17.79,0,0,1-2.58,3.85c-.44-.7-.9-1.39-1.43-2.07-2-2.57-4.21-4.66-7.28-5.64l-7.68,7.83a11.55,11.55,0,0,1,5.27,3.52,17.15,17.15,0,0,1,1.1,1.42c-.33,0-.66.07-1,.07a14.14,14.14,0,0,1-8-2.41,17.41,17.41,0,0,1-5.84-6.58,20.55,20.55,0,0,1,0-18.41,16.69,16.69,0,0,1,5.85-6.53,14.54,14.54,0,0,1,8-2.37,14.14,14.14,0,0,1,7.92,2.37,16.34,16.34,0,0,1,5.68,6.53,21.52,21.52,0,0,1,0,18.42Zm12.56,16c-2,.45-4.25-.14-6.55-1.7a31.56,31.56,0,0,0,5.36-5.28,13,13,0,0,0,1.16-1.44,29.14,29.14,0,0,0,5.14-16.88,28.32,28.32,0,0,0-4.11-15.08,29.06,29.06,0,0,0-11.28-10.57,35.38,35.38,0,0,0-32.1,0,29,29,0,0,0-11.28,10.57,28.34,28.34,0,0,0-4.11,15.08,29.07,29.07,0,0,0,14.77,25.69,32.35,32.35,0,0,0,15.51,4.22l.07,0c.37,0,.72,0,1.1,0a36.11,36.11,0,0,0,8.3-.93,21.75,21.75,0,0,0,8.66,6.14,17.19,17.19,0,0,0,10.39.63,16,16,0,0,0,7.41-4.06c.2-.2-5.21-8.38-5.21-8.38a4.76,4.76,0,0,1-3.23,2Z" transform="translate(-265.11 -265.11)" style="fill:#fff"/></g></g></svg>